<svg width="110" height="20" viewBox="0 0 110 20" fill="none" xmlns="http://www.w3.org/2000/svg">
  <g transform="translate(0, 4.81)">
    <path d="M95.197 0.33L106.192 0.33C107.192 0.33 108.042 0.63 108.742 1.23C109.442 1.83 109.792 2.58 109.792 3.48L109.792 14.34L103.992 14.34L103.992 5.94L98.992 5.94L98.992 14.34L95.197 14.34L95.197 0.33Z" fill="#7554CC"/>
    <path d="M82.233 0.33L93.228 0.33C94.228 0.33 95.078 0.63 95.778 1.23C96.478 1.83 96.828 2.58 96.828 3.48L96.828 14.34L91.028 14.34L91.028 5.94L86.028 5.94L86.028 14.34L82.233 14.34L82.233 0.33Z" fill="#7554CC"/>
    <path d="M67.761 0.33L79.955 0.33C80.955 0.33 81.805 0.63 82.505 1.23C83.205 1.83 83.555 2.58 83.555 3.48L83.555 11.114C83.555 12.014 83.205 12.764 82.505 13.364C81.805 13.964 80.955 14.264 79.955 14.264L67.761 14.264L67.761 0.33Z" fill="#7554CC"/>
    <path d="M47.234 0.33L65.609 0.33C66.609 0.33 67.459 0.63 68.159 1.23C68.859 1.83 69.209 2.58 69.209 3.48L69.209 11.114C69.209 12.014 68.859 12.764 68.159 13.364C67.459 13.964 66.609 14.264 65.609 14.264L51.409 14.264L51.409 11.595L63.409 11.595L63.409 3.999L47.234 3.999L47.234 0.33Z" fill="#7554CC"/>
    <path d="M33.512 0.33L45.707 0.33C46.707 0.33 47.557 0.63 48.257 1.23C48.957 1.83 49.307 2.58 49.307 3.48L49.307 11.114C49.307 12.014 48.957 12.764 48.257 13.364C47.557 13.964 46.707 14.264 45.707 14.264L33.512 14.264L33.512 0.33Z" fill="#7554CC"/>
    <path d="M15.863 0L30.878 0C31.878 0 32.728 0.3 33.428 0.9C34.128 1.5 34.478 2.25 34.478 3.15L34.478 11.505L28.678 11.505L28.678 3.669L19.658 3.669L19.658 11.505L15.863 11.505L15.863 0Z" fill="#7554CC"/>
    <path d="M0 0.33L14.790 0.33C15.790 0.33 16.640 0.63 17.340 1.23C18.040 1.83 18.390 2.58 18.390 3.48L18.390 14.34L12.590 14.34L12.590 4.65L4.195 4.65L4.195 14.34L0 14.34L0 0.33Z" fill="#7554CC"/>
  </g>
</svg>
