<svg width="107" height="12" viewBox="0 0 107 12" fill="none" xmlns="http://www.w3.org/2000/svg">
<path d="M95.1973 11.1901V0.330078H97.8373V9.10508H106.192V11.1901H95.1973Z" fill="#7554CC"/>
<path d="M82.2334 11.1901V0.330078H84.8734V9.10508H93.2284V11.1901H82.2334Z" fill="#7554CC"/>
<path d="M67.7607 11.1901V0.330078H79.5357V2.41508H70.4007V4.63508H76.7457V6.72008H70.4007V9.10508H79.9557V11.1901H67.7607Z" fill="#7554CC"/>
<path d="M61.8734 11.1901H58.7684L56.4434 2.98508H56.3834L54.0884 11.1901H50.9834L47.2334 0.330078H50.1284L52.4984 8.28008H52.5434L54.7634 0.330078H58.0934L60.2984 8.28008H60.3434L62.7284 0.330078H65.6084L61.8734 11.1901Z" fill="#7554CC"/>
<path d="M33.5127 11.1901V0.330078H45.2877V2.41508H36.1527V4.63508H42.4977V6.72008H36.1527V9.10508H45.7077V11.1901H33.5127Z" fill="#7554CC"/>
<path d="M30.8783 5.64C30.8783 7.3 30.2283 8.66 28.9283 9.72C28.2383 10.28 27.4083 10.72 26.4383 11.04C25.4683 11.35 24.4033 11.505 23.2433 11.505C22.1433 11.505 21.1233 11.35 20.1833 11.04C19.2433 10.72 18.4283 10.275 17.7383 9.705C16.4883 8.665 15.8633 7.345 15.8633 5.745C15.8633 4.965 16.0233 4.245 16.3433 3.585C16.6633 2.915 17.1333 2.325 17.7533 1.815C18.4433 1.245 19.2583 0.8 20.1983 0.48C21.1483 0.16 22.1633 0 23.2433 0C24.6733 0 25.9183 0.22 26.9783 0.66C28.0383 1.09 28.9033 1.73 29.5733 2.58L26.8283 3.54C26.3783 3.07 25.8483 2.715 25.2383 2.475C24.6383 2.235 23.9683 2.115 23.2283 2.115C22.5183 2.115 21.8683 2.21 21.2783 2.4C20.6983 2.58 20.1983 2.835 19.7783 3.165C19.3583 3.485 19.0333 3.865 18.8033 4.305C18.5733 4.745 18.4583 5.225 18.4583 5.745C18.4583 6.885 18.9883 7.805 20.0483 8.505C20.4583 8.775 20.9333 8.99 21.4733 9.15C22.0233 9.31 22.6133 9.39 23.2433 9.39C23.7933 9.39 24.3133 9.335 24.8033 9.225C25.3033 9.115 25.7533 8.96 26.1533 8.76C26.5633 8.55 26.9183 8.305 27.2183 8.025C27.5283 7.745 27.7733 7.44 27.9533 7.11H22.6883V5.01H30.8783V5.64Z" fill="#7554CC"/>
<path d="M7.38 2.31008L4.995 6.76508H9.765L7.38 2.31008ZM12.12 11.1901L10.875 8.85008H3.915L2.67 11.1901H0L5.775 0.330078H9.03L14.79 11.1901H12.12Z" fill="#7554CC"/>
</svg>
