<svg width="48" height="32" viewBox="0 0 48 32" fill="none" xmlns="http://www.w3.org/2000/svg">
<path d="M44.701 18.7777H43.4124C43.1456 18.7777 42.9232 18.6011 42.9232 18.3804C42.9232 18.1156 43.1456 17.9831 43.4124 17.9831H45.7673L46.3009 16.7922H43.4124C42.2127 16.7922 41.5457 17.4976 41.5457 18.4246C41.5457 19.3515 42.2127 19.9686 43.2345 19.9686H44.5231C44.7899 19.9686 45.0123 20.1451 45.0123 20.3659C45.0123 20.5866 44.8344 20.7631 44.5231 20.7631H41.6791V21.954H44.5231C45.7228 21.954 46.3898 21.2487 46.3898 20.2776C46.3898 19.3065 45.7673 18.7777 44.701 18.7777ZM39.5021 18.7777H38.2135C37.9467 18.7777 37.7243 18.6011 37.7243 18.3804C37.7243 18.1156 37.9467 17.9831 38.2135 17.9831H40.5684L41.102 16.7922H38.2135C37.0138 16.7922 36.3477 17.4976 36.3477 18.4246C36.3477 19.3515 37.0138 19.9686 38.0365 19.9686H39.3251C39.5919 19.9686 39.8143 20.1451 39.8143 20.3659C39.8143 20.5866 39.6364 20.7631 39.3251 20.7631H36.4811V21.954H39.3251C40.5248 21.954 41.1909 21.2487 41.1909 20.2776C41.2354 19.3074 40.6138 18.7777 39.5021 18.7777ZM31.2822 21.9972H35.7261V20.8063H32.7042V19.9686H35.6817V18.7777H32.7042V17.9399H35.7261V16.749H31.2822V21.9982V21.9972ZM28.5272 18.9984H27.0607V17.9399H28.5272C28.9274 17.9399 29.1497 18.2048 29.1497 18.4696C29.1497 18.7786 28.9274 18.9993 28.5272 18.9993M30.5708 18.4255C30.5708 17.4111 29.8593 16.749 28.7041 16.749H25.6377V21.9982H27.0598V20.1902H27.5934L29.1932 21.9982H30.882L29.1488 20.1019C30.0372 19.8812 30.5708 19.2642 30.5708 18.4255ZM22.9725 19.0876H21.4616V17.9408H22.9725C23.3727 17.9408 23.5951 18.2057 23.5951 18.5147C23.5951 18.8237 23.4172 19.0885 22.9725 19.0885M23.1504 16.7509H20.084V22H21.5061V20.2794H23.1504C24.3501 20.2794 25.0615 19.5299 25.0615 18.5147C25.0171 17.4562 24.3065 16.7499 23.1504 16.7499M19.8182 16.7499H17.9969L16.6638 18.3381L15.2863 16.7499H13.4196L15.7745 19.3524L13.3751 21.9991H15.1964L16.6184 20.3226L18.0404 21.9991H19.9062L17.5068 19.3083L19.8172 16.7499H19.8182ZM8.7543 21.9991H13.1973V20.8082H10.1309V19.9704H13.1083V18.7795H10.1309V17.9418H13.1973V16.7509H8.7543V22V21.9991ZM44.1674 13.2196L41.9904 10.0441H40.2126V15.2491H41.6346V11.9404L43.8561 15.2482H45.5449V10.0441H44.1674V13.2205V13.2196ZM35.9911 13.043L36.7461 11.2783L37.5011 13.043H35.9901H35.9911ZM35.8132 10.0432L33.5028 15.2924H35.0582L35.5029 14.2339H37.9467L38.3913 15.2924H39.9912L37.6363 10.0441H35.8141L35.8132 10.0432ZM31.1924 12.6899V12.6016C31.1924 11.808 31.637 11.2783 32.5255 11.2783H34.0809V10H32.3921C30.6588 10 29.7704 11.1026 29.7704 12.5584V12.6466C29.7704 14.2789 30.7922 15.205 32.3476 15.205H32.8367L33.4139 14.0141H32.5699C31.726 14.0582 31.1924 13.5727 31.1924 12.6908M27.6378 15.2491H29.0598V10.0441H27.6378V15.2491ZM24.8827 12.2494H23.4163V11.1909H24.8827C25.2829 11.1909 25.5053 11.4557 25.5053 11.7206C25.5053 12.0296 25.2829 12.2503 24.8827 12.2503M26.9264 11.7206C26.9264 10.7063 26.2149 10.0441 25.0606 10.0441H21.9943V15.2933H23.4163V13.4412H23.9499L25.5497 15.2501H27.283L25.5062 13.3538C26.3946 13.1773 26.9282 12.5161 26.9282 11.7215M16.6193 15.2501H21.0623V14.0592H18.0404V13.2214H20.9734V12.0305H18.0404V11.1927H21.0623V10.0441H16.6193V15.2491V15.2501ZM12.1319 13.3088L10.9313 10.0441H8.7543V15.2491H10.1318V11.4999L11.5094 15.2491H12.7535L14.1311 11.4999V15.2491H15.5531V10.0441H13.3316L12.1319 13.3078V13.3088ZM4.48921 13.0439L5.24422 11.2792L5.99922 13.0439H4.48828H4.48921ZM4.31041 10.0441L2 15.2491H3.55541L4.00007 14.1907H6.44389L6.88856 15.2491H8.48843L6.13262 10.0441H4.31041Z" fill="#006FCF"/>
</svg>
