<svg width="160" height="24" viewBox="0 0 160 24" fill="none" xmlns="http://www.w3.org/2000/svg">
<path d="M37.0039 8.33983V15.6598C37.0039 17.1598 35.3739 18.0998 34.0739 17.3498L30.9039 15.5198L27.7339 13.6898L27.2439 13.4098V10.5898L27.7339 10.3098L30.9039 8.47983L34.0739 6.64983C35.3739 5.89983 37.0039 6.83983 37.0039 8.33983Z" fill="#7554CC"/>
<path d="M27.2438 8.33983V15.6598C27.2438 17.1598 25.6138 18.0998 24.3238 17.3498L21.1438 15.5198L17.9738 13.6898C16.6838 12.9398 16.6838 11.0598 17.9738 10.3098L21.1438 8.47983L24.3238 6.64983C25.6138 5.89983 27.2438 6.83983 27.2438 8.33983Z" fill="#7554CC"/>
<path d="M136.036 18.7203H133.176V5.32031H136.036V9.12031L135.956 11.6403L137.816 9.36031L141.436 5.32031H144.796L140.136 10.6203L144.996 18.7203H141.696L138.116 12.7003L136.036 14.9603V18.7203Z" fill="#28194B"/>
<path d="M125.963 18.8801C121.763 18.8801 119.303 15.8601 119.303 12.0001C119.303 8.14012 121.763 5.12012 125.963 5.12012C128.863 5.12012 130.943 6.58012 131.963 8.94012L129.523 10.9001C129.123 9.22012 127.983 7.86012 125.943 7.86012C123.603 7.86012 122.383 9.56012 122.383 12.0001C122.383 14.4401 123.603 16.1401 125.943 16.1401C127.983 16.1401 129.123 14.7801 129.523 13.1001L131.963 15.0601C130.943 17.4201 128.863 18.8801 125.963 18.8801Z" fill="#28194B"/>
<path d="M108.679 18.7203H105.639L110.659 5.32031H114.339L119.359 18.7203H116.219L115.159 15.7403H109.759L108.679 18.7203ZM111.659 10.4403L110.619 13.3203H114.279L113.259 10.4403L112.459 7.60031L111.659 10.4403Z" fill="#28194B"/>
<path d="M100.856 18.7203H94.3564V5.32031H100.936C103.896 5.32031 105.076 6.82031 105.076 8.72031C105.076 11.0003 103.036 11.7403 100.956 11.8403C104.356 11.9603 105.556 13.3203 105.556 15.2203C105.556 17.7203 103.696 18.7203 100.856 18.7203ZM100.176 7.86031H97.2164V10.7403H100.216C101.336 10.7403 102.056 10.3803 102.056 9.30031C102.056 8.24031 101.316 7.86031 100.176 7.86031ZM100.476 13.0403H97.2164V16.1803H100.436C101.956 16.1803 102.616 15.6803 102.616 14.6003C102.616 13.5203 101.836 13.0403 100.476 13.0403Z" fill="#28194B"/>
<path d="M85.2987 18.7203H75.4587V5.32031H85.2987V7.86031H78.3187V10.6803H84.1587V13.2203H78.3187V16.1803H85.2987V18.7203Z" fill="#28194B"/>
<path d="M66.2075 18.8801C62.9875 18.8801 60.6675 16.5401 60.6675 12.0001C60.6675 8.02012 63.0875 5.12012 67.4075 5.12012C70.2475 5.12012 72.3875 6.44012 73.3275 8.66012L70.9075 10.5001C70.5475 9.00012 69.3475 7.86012 67.4075 7.86012C64.9275 7.86012 63.7475 9.54012 63.7475 12.0001C63.7475 14.5801 65.0475 16.1801 67.3275 16.1801C69.1875 16.1801 70.1475 15.2601 70.6875 13.8401H67.0075V11.5401H73.4275V18.7201H71.5275L70.8475 13.8401C70.7075 17.0001 69.0675 18.8801 66.2075 18.8801Z" fill="#28194B"/>
<path d="M50.0439 18.7203H47.0039L52.0239 5.32031H55.7039L60.7239 18.7203H57.5839L56.5239 15.7403H51.1239L50.0439 18.7203ZM53.0239 10.4403L51.9839 13.3203H55.6439L54.6239 10.4403L53.8239 7.60031L53.0239 10.4403Z" fill="#28194B"/>
</svg>
