<svg width="146" height="60" fill="none" xmlns="http://www.w3.org/2000/svg"><path d="M27.843 57.72a25.778 25.778 0 01-4.07-1.155.186.186 0 01-.072-.085 3.048 3.048 0 01-.143-1.285c.274-2.856-1.666-5.865-4.614-7.156a2.935 2.935 0 00-.203-.079l-.07-.025a.226.226 0 00-.201.023.165.165 0 00-.075.167l.08.438c.072.387.142.767.21 1.146l.017.1c.189 1.078.384 2.194.766 3.266.344.966.874 1.73 1.613 2.314a23.296 23.296 0 01-4.333-2.888.238.238 0 01-.065-.137l-.036-.764c0-.028 0-.1.017-.135.65-1.328.817-2.822.51-4.567-.297-1.684-1.117-3.233-2.439-4.603-.155-.16-.291-.241-.406-.241a.178.178 0 00-.073.014.178.178 0 00-.11.137l-.035.266c-.027.198-.054.393-.077.587-.041.343-.086.686-.13 1.028l-.007.05c-.112.855-.228 1.74-.289 2.625-.07 1.033-.05 2.24.647 3.356l.01.018a26.67 26.67 0 01-2.64-3.415c-.07-.107-.077-.202-.064-.339.056-.58.364-1.05.688-1.473.625-.818 1.003-1.784 1.227-3.134.313-1.888-.003-3.782-.938-5.63-.025-.051-.055-.1-.087-.153l-.073-.12a.211.211 0 00-.189-.095.202.202 0 00-.176.11l-.664 1.463-.14.306c-.464 1.023-.985 2.217-1.288 3.448-.213.87-.226 1.709-.039 2.507a28.662 28.662 0 01-1.78-4.776c-.006-.019-.008-.067.038-.177a3 3 0 011.096-1.31c1.08-.726 1.694-1.735 2.15-2.627.936-1.823 1.19-3.76.776-5.921a.426.426 0 00-.021-.07l-.008-.02a.189.189 0 00-.113-.108.237.237 0 00-.16.002.281.281 0 00-.145.086l-.71.827-.04.047c-.6.698-1.22 1.42-1.816 2.138-.69.83-1.179 1.638-1.492 2.468-.15.4-.25.787-.296 1.162a32.073 32.073 0 01-.336-4.11c-.006-.33.042-.593.3-.881.273-.308.528-.479.88-.592 1.445-.463 2.372-1.44 3.018-2.24 1.043-1.294 1.655-2.8 1.87-4.604.024-.185.037-.373.05-.572l.003-.045.022-.304c.006-.07-.037-.137-.11-.169a.228.228 0 00-.22.024l-.171.128c-.065.049-.12.09-.178.13-.275.194-.551.386-.828.578l-.03.02c-.607.422-1.236.858-1.836 1.309-1.165.87-1.916 1.737-2.361 2.728a5.808 5.808 0 00-.194.485c.183-1.574.481-3.125.89-4.629.05-.183.077-.238.179-.267a.392.392 0 00.168-.1c.296-.296.686-.343 1.064-.35 1.262-.026 2.263-.577 3.075-1.113 1.992-1.315 3.363-4.65 3.363-4.763a.172.172 0 00-.09-.147.229.229 0 00-.19-.015c-.414.154-.829.305-1.259.46-.945.344-1.922.699-2.86 1.087-.946.391-1.692.915-2.226 1.56a33.27 33.27 0 011.759-3.702c.076-.128.433-.265.944-.265.166 0 .327.016.466.045 1.202.252 2.393.1 3.711-.478 1.35-.59 2.468-1.557 3.421-2.954.018-.028.054-.11.073-.156a.157.157 0 00-.025-.166.216.216 0 00-.173-.072h-.002l-.476.026c-.291.016-.575.032-.858.045l-.303.013c-.903.04-1.838.08-2.752.272-1.043.22-1.808.557-2.395 1.057a32.079 32.079 0 012.222-2.88.486.486 0 01.205-.074c.042-.008.192-.036.393-.036.265 0 .498.047.695.142 1.252.537 2.659.577 4.186.117 1.252-.375 2.313-1.071 3.243-2.129a.86.86 0 00.083-.11.133.133 0 00.005-.14c-.072-.132-.384-.195-.515-.215-.322-.05-.686-.106-1.048-.149l-.498-.063-.02-.003c-.564-.073-1.147-.148-1.734-.174-1.072-.048-2.024.144-2.803.568.524-.488 1.06-.952 1.603-1.388.172-.137.366-.276.631-.45a.311.311 0 01.137-.033c1.877-.064 3.44-.79 4.776-2.22.728-.779 1.286-1.76 1.707-3.002l.014-.042c.045-.13.07-.203-.033-.287-.08-.065-.22-.045-.585.081-.33.112-.664.22-1.006.331-.686.223-1.397.454-2.083.715-1.145.436-2.06 1.098-2.719 1.966-.501.66-.7 1.324-.606 2.025a.127.127 0 01-.01.029 30.293 30.293 0 00-3.514 3.136c.783-1.049 1.294-2.256 1.55-3.657.258-1.411.274-2.667.05-3.84a3.558 3.558 0 00-.058-.239l-.037-.142a.19.19 0 00-.137-.128.226.226 0 00-.196.04c-.082.068-.162.132-.24.194l-.056.043c-.2.159-.39.308-.562.478-1.666 1.647-2.637 3.387-2.97 5.318-.152.874-.089 1.617.192 2.272.093.218.239.412.383.604.066.088.132.176.193.267.045.065.048.082.048.079-.027.258-.067.546-.12.891a.317.317 0 01-.034.042l-.019.024a33.41 33.41 0 00-2.508 3.49c.297-.904.534-2.048.518-3.379-.02-1.596-.44-3.019-1.283-4.351-.033-.052-.093-.086-.178-.09a.21.21 0 00-.16.071c-.025.031-.05.06-.075.088-.054.061-.105.12-.15.182-.671.922-1.031 1.939-1.27 2.722-.437 1.436-.637 2.634-.632 3.773.004.968.205 1.712.634 2.341.133.196.301.368.47.54.09.092.182.186.265.282a.332.332 0 01.088.174c.011.23.005.463 0 .688l-.004.156a.223.223 0 01-.018.081 31.725 31.725 0 00-1.416 3.553c.06-.416.093-.818.101-1.21.049-2.23-.731-4.22-2.319-5.916l-.33-.354a.21.21 0 00-.156-.065L5 13.344a.196.196 0 00-.155.112c-.03.07-.06.137-.089.2a6.04 6.04 0 00-.152.363c-.34.935-.507 1.957-.541 3.312l-.001.026c-.025.986-.06 2.337.402 3.63.455 1.272 1.257 1.915 1.412 2.03l.017.013c.423.331.699.634.756.83.023.08.046.16.074.239.12.35.045.683-.037 1.043-.04.182-.082.37-.097.563-.058.77-.13 1.555-.2 2.313l-.005.07-.054.58c-.176-1.735-.832-3.312-1.96-4.707a9.965 9.965 0 00-2.449-2.17 1.975 1.975 0 00-.139-.078 3.287 3.287 0 01-.098-.052.231.231 0 00-.193-.007.178.178 0 00-.112.14c-.012.11-.027.216-.042.326-.032.226-.061.439-.062.658-.014 2.27.534 4.397 1.629 6.32a4.628 4.628 0 001.198 1.382 3.28 3.28 0 001.604.674.208.208 0 01.048.022c.032.057.066.113.099.17.118.2.24.407.301.615.051.176.051.368.051.571 0 .075 0 .15.003.223.057 1.758.131 2.37.452 3.942a7.288 7.288 0 00-.759-1.386c-1.286-1.824-2.92-3.062-4.994-3.784-.132-.047-.264-.08-.417-.12L.46 31.4a19.52 19.52 0 01-.199-.051.223.223 0 00-.188.032.167.167 0 00-.072.154c.015.125.026.246.036.365.02.26.041.504.113.747.67 2.265 1.777 4.07 3.386 5.517.689.618 1.414.973 2.217 1.084.203.028.45.031.87.008l.121-.006.05-.002c.032 0 .035 0 .058.03l.562.676c.007.009.018.041.025.063l.008.024a32.112 32.112 0 002.16 4.987 10.286 10.286 0 00-1.273-1.288c-2.158-1.835-5.846-1.888-6.26-1.888h-.051l-.033.006c-.1.032-.156.126-.124.216.028.084.055.17.086.27.059.187.12.381.206.57.409.894 1.071 1.755 2.085 2.71.697.654 1.483 1.318 2.504 1.738 1.12.46 2.13.572 3.134.347.17-.04.367-.09.536-.185.12-.068.154-.066.272.011.14.092.29.168.434.243.08.04.16.082.236.124.012.009.038.046.047.06a28.099 28.099 0 002.967 3.578 6.718 6.718 0 00-1.808-.816c-1.933-.546-3.959-.476-5.966.204-.299.101-.627.255-.65.266a.178.178 0 00-.087.119.16.16 0 00.04.135l.183.214.013.016c.135.162.289.345.46.507.776.728 1.732 1.216 2.65 1.635 1.261.574 2.551.883 3.835.919l.18.003c1.181 0 2.102-.341 2.813-1.038a.156.156 0 01.056-.016c.272.017.53.051.722.08.03.004.068.02.091.038a25.22 25.22 0 003.757 2.417 7.55 7.55 0 00-.614-.133c-1.403-.236-2.835-.088-4.407.46-1.06.37-2.047.915-3.016 1.664a.16.16 0 00-.025.24c.343.382.789.596 1.18.755.954.389 2.03.637 3.293.761.004 0 .41.031.978.031.41 0 .793-.016 1.135-.048.327-.03.654-.08.97-.146 1.455-.31 2.44-.948 3.005-1.939a.318.318 0 01.109-.042c.262-.057.498-.098.723-.124a.446.446 0 01.202.035 25.58 25.58 0 003.157.84.224.224 0 00.048.004c.073 0 .14-.035.176-.093.104-.17.23-.332.377-.484a.159.159 0 00.036-.17.192.192 0 00-.146-.114zM43.041 25V12.174h-4.48V9.499h12.214v2.675h-4.49V25h-3.244zm15.262.269c-4.608 0-7.476-3.083-7.476-8.014v-.022c0-4.93 2.89-8.003 7.476-8.003 4.598 0 7.477 3.083 7.477 8.003v.022c0 4.93-2.869 8.014-7.477 8.014zm0-2.75c2.578 0 4.168-2.052 4.168-5.264v-.022c0-3.233-1.622-5.253-4.168-5.253-2.535 0-4.168 2.01-4.168 5.253v.022c0 3.244 1.622 5.264 4.168 5.264zM67.474 25V9.499h6.23c3.267 0 5.447 2.105 5.447 5.296v.021c0 3.19-2.18 5.296-5.446 5.296h-2.986V25h-3.245zm5.436-12.934h-2.191v5.511h2.191c1.858 0 2.954-.988 2.954-2.75v-.021c0-1.762-1.096-2.74-2.954-2.74zM88.32 25V12.475h-.064l-3.954 2.685v-2.879L88.31 9.5h3.223V25H88.32zm12.415.269c-3.931 0-6.316-3.083-6.316-8.014v-.022c0-4.93 2.385-8.003 6.316-8.003 3.932 0 6.317 3.073 6.317 8.003v.022c0 4.93-2.385 8.014-6.317 8.014zm0-2.6c1.934 0 3.04-2.009 3.04-5.414v-.022c0-3.405-1.106-5.403-3.04-5.403-1.933 0-3.04 1.998-3.04 5.403v.022c0 3.405 1.107 5.414 3.04 5.414zM45.625 41l3.076-8.455h1.418L53.19 41h-1.377l-.773-2.285h-3.258L47.002 41h-1.377zm3.773-7.055l-1.265 3.715h2.549l-1.26-3.715h-.024zM53.975 41v-6.164h1.265v.932h.03c.322-.627.955-1.05 1.886-1.05 1.354 0 2.133.874 2.133 2.292V41h-1.271v-3.75c0-.926-.434-1.447-1.313-1.447-.89 0-1.465.644-1.465 1.605V41h-1.265zm8.7.123c-1.218 0-1.804-.516-1.804-1.746v-3.533h-.885v-1.008h.885V33.23h1.295v1.605h1.154v1.008h-1.154V39.3c0 .627.281.814.815.814.134 0 .246-.012.34-.023v.978a4.228 4.228 0 01-.645.053zm2.38-7.236a.733.733 0 01-.739-.727c0-.404.328-.732.739-.732a.73.73 0 110 1.459zM64.422 41v-6.164h1.266V41h-1.266zm2.66-2.86v-1.142h3.768v1.143h-3.768zm6.926 2.971c-1.23 0-2.057-.755-2.057-1.863v-.012c0-1.072.832-1.728 2.291-1.816l1.676-.1v-.463c0-.68-.44-1.09-1.225-1.09-.732 0-1.183.346-1.289.838l-.011.053h-1.196l.006-.064c.088-1.06 1.008-1.875 2.525-1.875 1.506 0 2.462.797 2.462 2.033V41h-1.272v-.973h-.024c-.357.663-1.072 1.084-1.886 1.084zm-.78-1.892c0 .539.446.879 1.126.879.89 0 1.564-.604 1.564-1.407v-.48l-1.506.094c-.762.047-1.184.38-1.184.902v.012zm7.893 3.955c-1.582 0-2.584-.733-2.771-1.676l-.006-.053h1.254l.023.047c.17.393.703.662 1.494.662 1.008 0 1.565-.539 1.565-1.4v-.844h-.03c-.351.668-1.054 1.096-1.94 1.096-1.546 0-2.566-1.213-2.566-3.135v-.006c0-1.933 1.032-3.146 2.596-3.146.867 0 1.547.468 1.91 1.166h.03v-1.05h1.271v5.995c0 1.406-1.09 2.344-2.83 2.344zm-.053-3.2c.967 0 1.612-.814 1.612-2.085v-.006c0-1.266-.65-2.08-1.612-2.08-1.002 0-1.629.808-1.629 2.08v.006c0 1.289.627 2.086 1.63 2.086zm4.823-6.087a.733.733 0 01-.739-.727c0-.404.329-.732.739-.732a.73.73 0 110 1.459zM85.258 41v-6.164h1.265V41h-1.265zm2.572 0v-6.164h1.266v.932h.029c.322-.627.955-1.05 1.887-1.05 1.353 0 2.132.874 2.132 2.292V41h-1.271v-3.75c0-.926-.434-1.447-1.313-1.447-.89 0-1.464.644-1.464 1.605V41H87.83zm9.24 2.174c-1.582 0-2.584-.733-2.771-1.676l-.006-.053h1.254l.023.047c.17.393.703.662 1.495.662 1.007 0 1.564-.539 1.564-1.4v-.844h-.03c-.351.668-1.054 1.096-1.939 1.096-1.547 0-2.566-1.213-2.566-3.135v-.006c0-1.933 1.031-3.146 2.596-3.146.867 0 1.546.468 1.91 1.166h.029v-1.05H99.9v5.995c0 1.406-1.09 2.344-2.83 2.344zm-.052-3.2c.966 0 1.61-.814 1.61-2.085v-.006c0-1.266-.65-2.08-1.61-2.08-1.002 0-1.63.808-1.63 2.08v.006c0 1.289.628 2.086 1.63 2.086zM62.64 53.112c-1.23 0-2.057-.755-2.057-1.863v-.012c0-1.072.832-1.728 2.291-1.816l1.676-.1v-.463c0-.68-.44-1.09-1.225-1.09-.732 0-1.183.346-1.289.838l-.012.053H60.83l.006-.064c.088-1.06 1.008-1.875 2.525-1.875 1.506 0 2.461.797 2.461 2.033V53h-1.271v-.973h-.024c-.357.663-1.072 1.084-1.886 1.084zm-.78-1.892c0 .539.446.879 1.125.879.891 0 1.565-.604 1.565-1.407v-.48l-1.506.094c-.762.047-1.184.38-1.184.902v.012zm5.192 3.832v-8.215h1.265v1.06h.03c.369-.732 1.049-1.177 1.927-1.177 1.57 0 2.578 1.23 2.578 3.199v.006c0 1.963-1.013 3.199-2.56 3.199-.873 0-1.582-.445-1.945-1.16h-.03v3.088h-1.265zm2.894-3.018c.996 0 1.617-.808 1.617-2.11v-.005c0-1.313-.626-2.115-1.617-2.115-.96 0-1.635.832-1.635 2.115v.006c0 1.277.68 2.11 1.635 2.11zm3.89 3.018v-8.215h1.266v1.06h.03c.369-.732 1.049-1.177 1.928-1.177 1.57 0 2.578 1.23 2.578 3.199v.006c0 1.963-1.014 3.199-2.56 3.199-.874 0-1.583-.445-1.946-1.16h-.03v3.088h-1.265zm2.895-3.018c.996 0 1.618-.808 1.618-2.11v-.005c0-1.313-.627-2.115-1.618-2.115-.96 0-1.634.832-1.634 2.115v.006c0 1.277.68 2.11 1.634 2.11zm6.2 1.09c-1.541 0-2.444-.762-2.573-1.887l-.005-.052h1.253l.012.058c.117.569.54.903 1.319.903.761 0 1.218-.317 1.218-.815v-.006c0-.398-.222-.627-.885-.785l-1.007-.229c-1.172-.269-1.752-.832-1.752-1.728v-.006c0-1.101.96-1.857 2.379-1.857 1.459 0 2.337.814 2.402 1.863l.006.07h-1.19l-.005-.04c-.077-.54-.498-.915-1.213-.915-.68 0-1.108.322-1.108.815v.006c0 .38.252.638.914.797l1.002.228c1.26.293 1.74.791 1.74 1.676v.006c0 1.125-1.054 1.898-2.507 1.898zM118.157 57.72a25.798 25.798 0 004.07-1.155.184.184 0 00.071-.085c.14-.417.187-.837.144-1.285-.274-2.856 1.666-5.865 4.614-7.156.063-.028.128-.052.203-.079l.07-.025a.226.226 0 01.201.023c.058.04.087.103.075.167l-.081.438c-.071.387-.141.767-.209 1.146l-.017.1c-.189 1.078-.384 2.194-.766 3.266-.344.966-.874 1.73-1.613 2.314a23.286 23.286 0 004.333-2.888.232.232 0 00.065-.137l.036-.764c0-.028 0-.1-.017-.135-.65-1.328-.817-2.822-.51-4.567.297-1.684 1.117-3.233 2.439-4.603.155-.16.291-.241.406-.241.028 0 .053.005.073.014a.18.18 0 01.11.137l.035.266c.027.198.054.393.077.587.041.343.086.686.131 1.028l.006.05c.112.855.227 1.74.289 2.625.071 1.033.05 2.24-.647 3.356l-.011.018a26.646 26.646 0 002.642-3.415c.07-.107.076-.202.063-.339-.056-.58-.364-1.05-.688-1.473-.625-.818-1.003-1.784-1.227-3.134-.312-1.888.003-3.782.938-5.63.025-.051.055-.1.087-.153l.073-.12a.212.212 0 01.189-.095.2.2 0 01.176.11l.664 1.463.139.306c.465 1.023.986 2.217 1.289 3.448.213.87.226 1.709.039 2.507a28.672 28.672 0 001.781-4.776c.005-.019.007-.067-.039-.177a2.996 2.996 0 00-1.096-1.31c-1.081-.726-1.694-1.735-2.151-2.627-.935-1.823-1.189-3.76-.775-5.921a.413.413 0 01.021-.07l.008-.02a.19.19 0 01.113-.108.238.238 0 01.161.002c.041.014.104.034.144.086l.71.827.04.047c.6.698 1.22 1.42 1.816 2.138.691.83 1.179 1.638 1.492 2.468.151.4.249.787.296 1.162.198-1.347.311-2.723.336-4.11.006-.33-.042-.593-.3-.881-.273-.308-.528-.479-.88-.592-1.445-.463-2.372-1.44-3.018-2.24-1.043-1.294-1.655-2.8-1.871-4.604a9.917 9.917 0 01-.049-.572l-.003-.045-.022-.304c-.006-.07.038-.137.11-.169a.228.228 0 01.22.024l.171.128c.065.049.12.09.178.13.275.194.551.386.828.578l.029.02c.608.422 1.237.858 1.837 1.309 1.165.87 1.916 1.737 2.361 2.728.074.163.138.325.194.485a31.524 31.524 0 00-.89-4.629c-.049-.183-.077-.238-.179-.267a.396.396 0 01-.168-.1c-.296-.296-.686-.343-1.064-.35-1.262-.026-2.263-.577-3.075-1.113-1.992-1.315-3.363-4.65-3.363-4.763 0-.06.033-.114.09-.147a.23.23 0 01.189-.015c.415.154.83.305 1.26.46.945.344 1.922.699 2.861 1.087.944.391 1.691.915 2.225 1.56a33.395 33.395 0 00-1.759-3.702c-.076-.128-.432-.265-.944-.265-.166 0-.327.016-.466.045-1.202.252-2.393.1-3.711-.478-1.349-.59-2.468-1.557-3.421-2.954a1.53 1.53 0 01-.074-.156.158.158 0 01.026-.166.216.216 0 01.173-.072h.001l.477.026c.291.016.575.032.858.045l.303.013c.903.04 1.838.08 2.752.272 1.043.22 1.808.557 2.395 1.057a31.873 31.873 0 00-2.222-2.88.484.484 0 00-.205-.074 2.052 2.052 0 00-.393-.036c-.265 0-.498.047-.695.142-1.252.537-2.659.577-4.186.117-1.252-.375-2.313-1.071-3.243-2.129a.904.904 0 01-.083-.11.134.134 0 01-.005-.14c.072-.132.383-.195.515-.215.321-.05.686-.106 1.048-.149l.498-.063.021-.003a20.596 20.596 0 011.733-.174c1.072-.048 2.024.144 2.803.568a28.157 28.157 0 00-1.603-1.388 8.165 8.165 0 00-.631-.45.311.311 0 00-.137-.033c-1.877-.064-3.44-.79-4.776-2.22-.728-.779-1.286-1.76-1.707-3.002l-.014-.042c-.045-.13-.07-.203.033-.287.08-.065.22-.045.585.081.331.112.664.22 1.005.331.687.223 1.398.454 2.084.715 1.145.436 2.061 1.098 2.719 1.966.501.66.699 1.324.606 2.025a.163.163 0 00.01.029 30.394 30.394 0 013.514 3.136c-.783-1.049-1.294-2.256-1.55-3.657-.258-1.411-.274-2.667-.05-3.84.014-.074.034-.147.058-.239l.037-.142a.189.189 0 01.137-.128.225.225 0 01.196.04c.082.068.162.132.241.194l.055.043c.201.159.39.308.562.478 1.666 1.647 2.637 3.387 2.97 5.318.152.874.089 1.617-.192 2.272-.093.218-.238.412-.383.604a6.404 6.404 0 00-.193.267c-.045.065-.048.082-.048.079.027.258.067.546.12.891a.31.31 0 00.034.042l.019.024a33.35 33.35 0 012.508 3.49 10.398 10.398 0 01-.517-3.379c.02-1.596.439-3.019 1.282-4.351.033-.052.093-.086.178-.09.061 0 .121.026.159.071l.076.088c.054.061.105.12.15.182.671.922 1.031 1.939 1.27 2.722.437 1.436.637 2.634.632 3.773-.004.968-.205 1.712-.634 2.341a4.02 4.02 0 01-.47.54c-.09.092-.182.186-.265.282a.337.337 0 00-.088.174c-.011.23-.005.463 0 .688l.004.156a.244.244 0 00.018.081 31.511 31.511 0 011.416 3.553 10.067 10.067 0 01-.101-1.21c-.049-2.23.731-4.22 2.319-5.916l.331-.354a.21.21 0 01.155-.065l.033.003c.071.01.131.053.155.112.03.07.06.137.089.2.055.125.107.243.152.363.34.935.507 1.957.541 3.312l.001.026c.025.986.06 2.337-.402 3.63-.455 1.272-1.257 1.915-1.412 2.03l-.017.013c-.423.331-.699.634-.756.83-.023.08-.046.16-.074.239-.12.35-.045.683.037 1.043.04.182.082.37.097.563.058.77.13 1.555.199 2.313l.006.07.054.58c.176-1.735.832-3.312 1.96-4.707a9.97 9.97 0 012.449-2.17c.04-.026.082-.048.139-.078.028-.014.059-.03.098-.052a.23.23 0 01.193-.007c.062.026.105.08.112.14.012.11.027.216.042.326.032.226.061.439.062.658.014 2.27-.534 4.397-1.629 6.32a4.63 4.63 0 01-1.198 1.382 3.283 3.283 0 01-1.604.674.188.188 0 00-.048.022c-.032.057-.066.113-.099.17-.118.2-.241.407-.301.615-.051.176-.051.368-.051.571 0 .075 0 .15-.003.223-.057 1.758-.131 2.37-.452 3.942.196-.467.441-.936.759-1.386 1.286-1.824 2.919-3.062 4.994-3.784.132-.047.264-.08.417-.12l.031-.008.199-.051a.223.223 0 01.188.032.166.166 0 01.072.154c-.015.125-.026.246-.036.365-.021.26-.041.504-.113.747-.669 2.265-1.777 4.07-3.386 5.517-.689.618-1.414.973-2.217 1.084-.203.028-.451.031-.87.008l-.121-.006-.049-.002c-.033 0-.036 0-.059.03l-.562.676a.309.309 0 00-.025.063l-.008.024a32.128 32.128 0 01-2.161 4.987c.384-.465.805-.89 1.274-1.288 2.158-1.835 5.846-1.888 6.26-1.888h.051l.033.006c.101.032.156.126.124.216-.028.084-.055.17-.086.27-.059.187-.12.381-.206.57-.409.894-1.071 1.755-2.085 2.71-.697.654-1.483 1.318-2.504 1.738-1.119.46-2.129.572-3.134.347a1.986 1.986 0 01-.536-.185c-.121-.068-.154-.066-.272.011a4.77 4.77 0 01-.434.243c-.08.04-.161.082-.236.124a.363.363 0 00-.047.06 28.177 28.177 0 01-2.967 3.578 6.711 6.711 0 011.808-.816c1.933-.546 3.959-.476 5.966.204.299.101.627.255.649.266.046.027.078.07.088.119a.164.164 0 01-.039.135c-.063.071-.124.143-.184.214l-.013.016a5.773 5.773 0 01-.461.507c-.775.728-1.731 1.216-2.648 1.635-1.262.574-2.552.883-3.836.919-.06.002-.12.003-.181.003-1.18 0-2.101-.341-2.812-1.038a.15.15 0 00-.056-.016c-.272.017-.53.051-.722.08a.22.22 0 00-.092.038 25.172 25.172 0 01-3.756 2.417 7.53 7.53 0 01.614-.133c1.403-.236 2.835-.088 4.407.46 1.061.37 2.047.915 3.016 1.664.079.061.091.167.025.24-.343.382-.789.596-1.18.755-.954.389-2.031.637-3.293.761-.004 0-.409.031-.978.031-.411 0-.793-.016-1.135-.048a8.463 8.463 0 01-.97-.146c-1.455-.31-2.441-.948-3.005-1.939a.321.321 0 00-.109-.042 7.446 7.446 0 00-.723-.124.445.445 0 00-.202.035c-1.005.339-2.068.621-3.157.84a.237.237 0 01-.048.004.206.206 0 01-.176-.093 2.837 2.837 0 00-.377-.484.159.159 0 01-.036-.17.191.191 0 01.146-.114z" fill="#28194B"/></svg>