<svg width="66" height="13" viewBox="0 0 66 13" fill="none" xmlns="http://www.w3.org/2000/svg">
<path d="M64.7314 12.1904H60.8555C60.8906 10.749 60.9082 9.28125 60.9082 7.78711C60.9082 6.29297 60.835 4.59668 60.6885 2.69824C60.8877 2.28223 61.166 1.64941 61.5234 0.799805C61.5645 0.706055 61.6699 0.588867 61.8398 0.448242C62.0098 0.301758 62.1592 0.228516 62.2881 0.228516H64.9775C64.9365 1.00195 64.916 1.86035 64.916 2.80371C64.916 5.75684 65.1123 8.69238 65.5049 11.6104C65.5049 11.6865 65.4111 11.8037 65.2236 11.9619C65.0361 12.1143 64.8721 12.1904 64.7314 12.1904ZM58.7021 11.7334C58.6611 11.8213 58.5703 11.9209 58.4297 12.0322C58.2891 12.1377 58.1777 12.1904 58.0957 12.1904H56.6982C56.4521 10.7314 56.1328 9.19629 55.7402 7.58496C55.3477 5.97363 54.958 4.64648 54.5713 3.60352C54.5947 3.46875 54.6709 3.05859 54.7998 2.37305C54.9346 1.68164 55.0283 1.15723 55.0811 0.799805C55.0986 0.717773 55.1982 0.603516 55.3799 0.457031C55.5615 0.304688 55.7168 0.228516 55.8457 0.228516H58.4033C58.8076 2.57227 59.1416 4.15723 59.4053 4.9834C59.6748 5.80371 59.9209 6.45996 60.1436 6.95215C59.5811 8.63379 59.1006 10.2275 58.7021 11.7334ZM54.3779 5.83594C54.4072 7.30078 54.46 8.41992 54.5361 9.19336C54.6182 9.9668 54.791 10.7725 55.0547 11.6104C55.0547 11.6865 54.958 11.8037 54.7646 11.9619C54.5771 12.1143 54.4131 12.1904 54.2725 12.1904H51.4688C52.0488 10.8076 52.5029 9.68848 52.8311 8.83301C53.1592 7.97168 53.4199 7.16309 53.6133 6.40723C53.6133 6.33105 53.707 6.2168 53.8945 6.06445C54.082 5.91211 54.2432 5.83594 54.3779 5.83594Z" fill="#7554CC"/>
<path d="M44.1562 12.3662C45.0117 11.6514 45.6475 10.6084 46.0635 9.2373C46.4854 7.86621 46.6963 6.4248 46.6963 4.91309C46.6963 3.39551 46.541 2.02441 46.2305 0.799805C46.2305 0.717773 46.3242 0.600586 46.5117 0.448242C46.7051 0.290039 46.8691 0.210938 47.0039 0.210938C47.8535 0.375 48.5771 0.729492 49.1748 1.27441C50.3115 2.31152 50.8799 3.75 50.8799 5.58984C50.8799 6.99023 50.5283 8.25293 49.8252 9.37793C49.0459 10.6377 47.9736 11.5049 46.6084 11.9795C45.8584 12.2373 45.041 12.3662 44.1562 12.3662ZM45.9053 0C45.0439 0.720703 44.4023 1.76367 43.9805 3.12891C43.5586 4.49414 43.3477 5.93848 43.3477 7.46191C43.3477 8.98535 43.5088 10.3506 43.8311 11.5576C43.8311 11.6396 43.7344 11.7598 43.541 11.918C43.3535 12.0762 43.1895 12.1553 43.0488 12.1553C41.7598 11.8975 40.7842 11.2529 40.1221 10.2217C39.4893 9.23145 39.1729 8.08594 39.1729 6.78516C39.1729 5.38477 39.5244 4.11621 40.2275 2.97949C41.001 1.73145 42.0732 0.870117 43.4443 0.395508C44.1943 0.131836 45.0146 0 45.9053 0Z" fill="#7554CC"/>
<path d="M30.6562 12.3662C31.5117 11.6514 32.1475 10.6084 32.5635 9.2373C32.9854 7.86621 33.1963 6.4248 33.1963 4.91309C33.1963 3.39551 33.041 2.02441 32.7305 0.799805C32.7305 0.717773 32.8242 0.600586 33.0117 0.448242C33.2051 0.290039 33.3691 0.210938 33.5039 0.210938C34.3535 0.375 35.0771 0.729492 35.6748 1.27441C36.8115 2.31152 37.3799 3.75 37.3799 5.58984C37.3799 6.99023 37.0283 8.25293 36.3252 9.37793C35.5459 10.6377 34.4736 11.5049 33.1084 11.9795C32.3584 12.2373 31.541 12.3662 30.6562 12.3662ZM32.4053 0C31.5439 0.720703 30.9023 1.76367 30.4805 3.12891C30.0586 4.49414 29.8477 5.93848 29.8477 7.46191C29.8477 8.98535 30.0088 10.3506 30.3311 11.5576C30.3311 11.6396 30.2344 11.7598 30.041 11.918C29.8535 12.0762 29.6895 12.1553 29.5488 12.1553C28.2598 11.8975 27.2842 11.2529 26.6221 10.2217C25.9893 9.23145 25.6729 8.08594 25.6729 6.78516C25.6729 5.38477 26.0244 4.11621 26.7275 2.97949C27.501 1.73145 28.5732 0.870117 29.9443 0.395508C30.6943 0.131836 31.5146 0 32.4053 0Z" fill="#7554CC"/>
<path d="M17.8594 12.1904H13.7637C14.5488 9.34863 15.1289 5.55176 15.5039 0.799805C15.5039 0.723633 15.6006 0.609375 15.7939 0.457031C15.9873 0.304688 16.1514 0.228516 16.2861 0.228516H20.3643C19.5322 3.77344 18.9521 7.56445 18.624 11.6016C18.624 11.6777 18.5303 11.7949 18.3428 11.9531C18.1553 12.1113 17.9941 12.1904 17.8594 12.1904ZM22.5615 7.78711C22.6494 7.61719 22.8164 7.46484 23.0625 7.33008C23.3086 7.19531 23.5342 7.12793 23.7393 7.12793C23.4521 9.63574 23.2441 11.1094 23.1152 11.5488C23.0625 11.6719 22.957 11.8096 22.7988 11.9619C22.6406 12.1143 22.5117 12.1904 22.4121 12.1904H19.0283C19.7256 11.6689 20.3818 11.0186 20.9971 10.2393C21.6123 9.4541 22.1338 8.63672 22.5615 7.78711Z" fill="#7554CC"/>
<path d="M0 12.1553C0.773438 9.04395 1.34473 5.29102 1.71387 0.896484C1.71387 0.826172 1.80762 0.717773 1.99512 0.571289C2.18262 0.418945 2.34375 0.339844 2.47852 0.333984C4.23633 0.1875 5.5752 0.114258 6.49512 0.114258C5.65723 3.72363 5.08008 7.57617 4.76367 11.6719C4.76367 11.7539 4.66992 11.874 4.48242 12.0322C4.29492 12.1846 4.13086 12.2607 3.99023 12.2607C2.9707 12.2607 1.64062 12.2256 0 12.1553ZM5.25586 12.208C5.90039 11.9795 6.46582 11.499 6.95215 10.7666C7.43848 10.0283 7.68164 9.28711 7.68164 8.54297C7.68164 7.53516 7.21875 6.84082 6.29297 6.45996C6.19922 6.40137 6.15234 6.30469 6.15234 6.16992C6.15234 5.85352 6.24609 5.66895 6.43359 5.61621C6.84961 5.50488 7.2041 5.13574 7.49707 4.50879C7.79004 3.87598 7.93652 3.17578 7.93652 2.4082C7.93652 1.63477 7.69043 1.06641 7.19824 0.703125C7.19824 0.615234 7.29785 0.492188 7.49707 0.333984C7.69629 0.175781 7.86621 0.0966797 8.00684 0.0966797C9.87012 0.219727 11.0713 0.805664 11.6104 1.85449C11.7744 2.1709 11.8564 2.53125 11.8564 2.93555C11.8564 3.33984 11.7539 3.71484 11.5488 4.06055C11.3496 4.40625 11.0918 4.69629 10.7754 4.93066C10.4648 5.15918 10.0986 5.36133 9.67676 5.53711C8.91504 5.85352 8.10645 6.05566 7.25098 6.14355C7.60254 6.12012 7.88965 6.1084 8.1123 6.1084C9.22559 6.1084 10.0986 6.34277 10.7314 6.81152C11.3643 7.27441 11.6807 7.93652 11.6807 8.79785C11.6807 9.2959 11.5723 9.75 11.3555 10.1602C11.1445 10.5703 10.8662 10.9102 10.5205 11.1797C10.1807 11.4434 9.78223 11.6689 9.3252 11.8564C8.4873 12.1963 7.55859 12.3662 6.53906 12.3662C6.09375 12.3662 5.66602 12.3135 5.25586 12.208Z" fill="#7554CC"/>
</svg>
