<svg width="110" height="20" viewBox="0 0 110 20" fill="none" xmlns="http://www.w3.org/2000/svg">
  <g transform="translate(22.155, 3.81)">
    <path d="M51.469 0.228L65.505 0.228C66.305 0.228 66.955 0.503 67.455 1.053C67.955 1.603 68.205 2.253 68.205 3.053L68.205 12.015C68.205 12.815 67.955 13.465 67.455 14.015C66.955 14.565 66.305 14.84 65.505 14.84L51.469 14.84L51.469 0.228Z" fill="#7554CC"/>
    <path d="M39.173 0.228L51.173 0.228C51.973 0.228 52.623 0.503 53.123 1.053C53.623 1.603 53.873 2.253 53.873 3.053L53.873 12.015C53.873 12.815 53.623 13.465 53.123 14.015C52.623 14.565 51.973 14.84 51.173 14.84L39.173 14.84L39.173 0.228Z" fill="#7554CC"/>
    <path d="M25.673 0.228L37.673 0.228C38.473 0.228 39.123 0.503 39.623 1.053C40.123 1.603 40.373 2.253 40.373 3.053L40.373 12.015C40.373 12.815 40.123 13.465 39.623 14.015C39.123 14.565 38.473 14.84 37.673 14.84L25.673 14.84L25.673 0.228Z" fill="#7554CC"/>
    <path d="M13.764 0.228L23.740 0.228C24.540 0.228 25.190 0.503 25.690 1.053C26.190 1.603 26.440 2.253 26.440 3.053L26.440 12.015C26.440 12.815 26.190 13.465 25.690 14.015C25.190 14.565 24.540 14.84 23.740 14.84L13.764 14.84L13.764 0.228Z" fill="#7554CC"/>
    <path d="M0 0.096L11.856 0.096C12.656 0.096 13.306 0.371 13.806 0.921C14.306 1.471 14.556 2.121 14.556 2.921L14.556 12.175C14.556 12.975 14.306 13.625 13.806 14.175C13.306 14.725 12.656 15 11.856 15L0 15L0 0.096Z" fill="#7554CC"/>
  </g>
</svg>
