<svg width="320" height="220" fill="none" xmlns="http://www.w3.org/2000/svg"><g clip-path="url(#a)"><path d="M319 193H19V9m300 184l-3 3m3-3l-3-3M19 9l-3 3m3-3l3 3" stroke="#4D368A" stroke-opacity=".4" stroke-miterlimit="16" stroke-linecap="round" stroke-linejoin="round"/><path d="M125.952 215.164c-2.215 0-3.678-1.053-3.801-2.789l-.006-.103h1.49l.013.089c.137.91 1.046 1.477 2.366 1.477 1.319 0 2.153-.595 2.153-1.518v-.007c0-.792-.54-1.223-1.846-1.51l-1.073-.226c-1.935-.41-2.871-1.299-2.871-2.762v-.006c.007-1.682 1.49-2.837 3.575-2.837 2.058 0 3.466 1.121 3.569 2.775l.006.116h-1.49l-.007-.095c-.136-.916-.929-1.47-2.098-1.47-1.224.007-2.003.588-2.003 1.449v.007c0 .738.56 1.189 1.791 1.456l1.08.226c2.037.43 2.912 1.257 2.912 2.782v.007c0 1.797-1.422 2.939-3.76 2.939zm8.032-.02c-2.112 0-3.39-1.443-3.39-3.712v-.007c0-2.249 1.299-3.753 3.315-3.753 2.017 0 3.254 1.449 3.254 3.609v.499h-5.093c.028 1.361.773 2.154 1.949 2.154.875 0 1.456-.452 1.64-.992l.021-.054h1.401l-.014.075c-.232 1.141-1.339 2.181-3.083 2.181zm-.068-6.262c-.957 0-1.695.649-1.825 1.852h3.609c-.123-1.244-.82-1.852-1.784-1.852zm4.45 6.118v-9.864h1.477V215h-1.477zm3.425 0v-6.016h-.991v-1.175h.991v-.766c0-1.395.656-2.051 2.119-2.051.301 0 .629.028.827.062v1.093a3.862 3.862 0 00-.512-.034c-.663 0-.978.322-.978.957v.739h1.463v1.175h-1.436V215h-1.483zm3.951-3.336v-1.333h4.396v1.333h-4.396zm9.058 3.48c-2.099 0-3.411-1.443-3.411-3.747v-.006c0-2.277 1.34-3.719 3.39-3.719 1.853 0 2.974 1.189 3.097 2.543l.007.048h-1.408l-.014-.055c-.157-.704-.704-1.299-1.668-1.299-1.148 0-1.894.957-1.894 2.495v.007c0 1.572.759 2.495 1.901 2.495.909 0 1.49-.526 1.668-1.305l.007-.055h1.421l-.006.048c-.158 1.442-1.361 2.55-3.09 2.55zm6.255-.014c-1.436 0-2.4-.882-2.4-2.174v-.014c0-1.251.971-2.016 2.673-2.119l1.955-.116v-.54c0-.793-.512-1.271-1.429-1.271-.854 0-1.38.403-1.503.977l-.014.062h-1.395l.007-.076c.103-1.237 1.176-2.187 2.947-2.187 1.756 0 2.871.93 2.871 2.372V215h-1.484v-1.135h-.027c-.417.773-1.251 1.265-2.201 1.265zm-.909-2.208c0 .629.519 1.025 1.312 1.025 1.039 0 1.825-.704 1.825-1.64v-.561l-1.757.109c-.888.055-1.38.445-1.38 1.053v.014zm6.056 2.078v-7.191h1.477v1.23h.034c.232-.841.834-1.367 1.654-1.367.212 0 .397.034.513.055v1.374c-.116-.048-.376-.082-.663-.082-.95 0-1.538.622-1.538 1.695V215h-1.477zm7.349.144c-2.113 0-3.391-1.443-3.391-3.712v-.007c0-2.249 1.299-3.753 3.316-3.753 2.016 0 3.253 1.449 3.253 3.609v.499h-5.092c.027 1.361.772 2.154 1.948 2.154.875 0 1.456-.452 1.641-.992l.02-.054h1.401l-.013.075c-.233 1.141-1.34 2.181-3.083 2.181zm-.069-6.262c-.957 0-1.695.649-1.825 1.852h3.61c-.123-1.244-.821-1.852-1.785-1.852zm7.294 6.118v-9.864h1.477V215h-1.477zm6.064.144c-2.112 0-3.391-1.443-3.391-3.712v-.007c0-2.249 1.299-3.753 3.316-3.753 2.016 0 3.254 1.449 3.254 3.609v.499h-5.093c.027 1.361.772 2.154 1.948 2.154.875 0 1.456-.452 1.641-.992l.02-.054h1.402l-.014.075c-.233 1.141-1.34 2.181-3.083 2.181zm-.069-6.262c-.957 0-1.695.649-1.825 1.852h3.61c-.123-1.244-.821-1.852-1.785-1.852zm6.098 6.118l-2.591-7.191h1.573l1.804 5.749h.034l1.805-5.749h1.538L194.455 215h-1.586zm7.807.144c-2.113 0-3.391-1.443-3.391-3.712v-.007c0-2.249 1.299-3.753 3.316-3.753 2.016 0 3.253 1.449 3.253 3.609v.499h-5.092c.027 1.361.772 2.154 1.948 2.154.875 0 1.456-.452 1.641-.992l.02-.054h1.401l-.013.075c-.233 1.141-1.34 2.181-3.083 2.181zm-.069-6.262c-.957 0-1.695.649-1.825 1.852h3.61c-.123-1.244-.821-1.852-1.785-1.852zm4.451 6.118v-9.864h1.476V215h-1.476zM13 135.678H3.136v-3.801c0-1.996 1.32-3.356 3.295-3.356h.013c1.97 0 3.295 1.36 3.295 3.356v2.037H13v1.764zm-8.422-3.364v1.6h3.74v-1.6c0-1.264-.684-2.002-1.867-2.002h-.013c-1.183 0-1.86.738-1.86 2.002zM13 127.399H5.754v-1.702h1.25v-.034c-.874-.225-1.4-.827-1.4-1.661 0-.212.034-.41.068-.54H7.21c-.055.143-.096.403-.096.69 0 .964.609 1.545 1.682 1.545H13v1.702zm.144-7.745c0 2.133-1.422 3.507-3.767 3.507h-.014c-2.324 0-3.76-1.394-3.76-3.5 0-2.112 1.422-3.514 3.76-3.514h.014c2.351 0 3.767 1.381 3.767 3.507zm-1.374-.007c0-1.073-.875-1.763-2.393-1.763h-.014c-1.51 0-2.379.697-2.379 1.777 0 1.06.875 1.764 2.38 1.764h.013c1.524 0 2.393-.691 2.393-1.778zm3.766-7.861c0 1.921-.875 3.131-2.01 3.336l-.061.014v-1.675l.055-.021c.417-.184.731-.765.731-1.654 0-1.107-.588-1.716-1.51-1.716h-1.047v.034c.773.404 1.265 1.224 1.265 2.263 0 1.819-1.394 2.987-3.65 2.987h-.007c-2.29 0-3.698-1.182-3.698-3.014 0-1.026.546-1.819 1.38-2.229v-.041h-1.23v-1.702h7.04c1.641 0 2.742 1.32 2.742 3.418zm-3.89.048c0-1.06-.895-1.771-2.303-1.771h-.007c-1.401 0-2.297.718-2.297 1.771 0 1.094.882 1.784 2.29 1.784h.007c1.429 0 2.31-.69 2.31-1.784zm1.354-4.86H5.754v-1.703h1.25v-.034c-.874-.225-1.4-.827-1.4-1.661 0-.212.034-.41.068-.54H7.21c-.055.144-.096.403-.096.691 0 .963.609 1.544 1.682 1.544H13v1.703zm.144-7.725c0 2.174-1.443 3.486-3.747 3.486h-.006c-2.284 0-3.787-1.333-3.787-3.404 0-2.071 1.456-3.356 3.643-3.356h.547v5.072c1.271-.027 2.023-.725 2.023-1.832 0-.848-.45-1.401-.936-1.566l-.048-.013v-1.593l.075.02c1.115.226 2.236 1.293 2.236 3.186zm-6.207.062c0 .902.608 1.579 1.722 1.715v-3.397c-1.148.123-1.722.78-1.722 1.681zm6.207-7.267c0 1.9-.903 2.987-2.25 3.138l-.061.007v-1.675l.062-.014c.622-.13.99-.602.99-1.463 0-.827-.334-1.326-.867-1.326h-.007c-.438 0-.684.253-.855 1.005l-.266 1.203c-.308 1.388-.985 2.085-2.058 2.085h-.007c-1.326 0-2.221-1.155-2.221-2.905 0-1.805.99-2.858 2.242-2.92l.075-.006v1.586l-.055.007c-.58.075-1.005.54-1.005 1.333 0 .752.349 1.223.882 1.223h.007c.417 0 .69-.28.861-1.032l.267-1.21c.335-1.497.923-2.078 1.976-2.078h.006c1.367 0 2.284 1.265 2.284 3.042zm0-6.959c0 1.9-.903 2.987-2.25 3.138l-.061.007v-1.675l.062-.014c.622-.13.99-.602.99-1.463 0-.827-.334-1.326-.867-1.326h-.007c-.438 0-.684.253-.855 1.005L9.89 85.96c-.308 1.388-.985 2.085-2.058 2.085h-.007c-1.326 0-2.221-1.155-2.221-2.905 0-1.805.99-2.858 2.242-2.92l.075-.006V83.8l-.055.007c-.58.075-1.005.54-1.005 1.333 0 .752.349 1.223.882 1.223h.007c.417 0 .69-.28.861-1.032l.267-1.21c.335-1.497.923-2.078 1.976-2.078h.006c1.367 0 2.284 1.265 2.284 3.042zM13 80.908H3.136v-1.702H13v1.702z" fill="#4D368A"/><path d="M142 123v-1h1v1h-1zM130 123v-1h1v1h-1zM133 123v-1h1v1h-1zM136 123v-1h1v1h-1zM139 123v-1h1v1h-1zM118 123v-1h1v1h-1zM121 123v-1h1v1h-1zM124 123v-1h1v1h-1zM127 123v-1h1v1h-1zM112 123v-1h1v1h-1zM115 123v-1h1v1h-1zM100 123v-1h1v1h-1zM103 123v-1h1v1h-1zM106 123v-1h1v1h-1zM109 123v-1h1v1h-1zM88 123v-1h1v1h-1zM91 123v-1h1v1h-1zM94 123v-1h1v1h-1zM97 123v-1h1v1h-1zM82 123v-1h1v1h-1zM85 123v-1h1v1h-1zM70 123v-1h1v1h-1zM73 123v-1h1v1h-1zM76 123v-1h1v1h-1zM79 123v-1h1v1h-1zM58 123v-1h1v1h-1zM61 123v-1h1v1h-1zM64 123v-1h1v1h-1zM67 123v-1h1v1h-1zM52 123v-1h1v1h-1zM55 123v-1h1v1h-1zM43 123v-1h1v1h-1zM46 123v-1h1v1h-1zM49 123v-1h1v1h-1zM37 123v-1h1v1h-1zM40 123v-1h1v1h-1zM31 123v-1h1v1h-1zM34 123v-1h1v1h-1zM28 123v-1h1v1h-1zM22 123v-1h1v1h-1zM25 123v-1h1v1h-1zM220 64v-1h1v1h-1zM223 64v-1h1v1h-1zM226 64v-1h1v1h-1zM229 64v-1h1v1h-1zM208 64v-1h1v1h-1zM211 64v-1h1v1h-1zM214 64v-1h1v1h-1zM217 64v-1h1v1h-1zM196 64v-1h1v1h-1zM199 64v-1h1v1h-1zM202 64v-1h1v1h-1zM205 64v-1h1v1h-1zM184 64v-1h1v1h-1zM187 64v-1h1v1h-1zM190 64v-1h1v1h-1zM193 64v-1h1v1h-1zM244 64v-1h1v1h-1zM247 64v-1h1v1h-1zM250 64v-1h1v1h-1zM253 64v-1h1v1h-1zM232 64v-1h1v1h-1zM235 64v-1h1v1h-1zM238 64v-1h1v1h-1zM241 64v-1h1v1h-1zM172 64v-1h1v1h-1zM175 64v-1h1v1h-1zM178 64v-1h1v1h-1zM181 64v-1h1v1h-1zM160 64v-1h1v1h-1zM163 64v-1h1v1h-1zM166 64v-1h1v1h-1zM169 64v-1h1v1h-1zM148 64v-1h1v1h-1zM151 64v-1h1v1h-1zM154 64v-1h1v1h-1zM157 64v-1h1v1h-1zM142 64v-1h1v1h-1zM145 64v-1h1v1h-1zM130 64v-1h1v1h-1zM133 64v-1h1v1h-1zM136 64v-1h1v1h-1zM139 64v-1h1v1h-1zM118 64v-1h1v1h-1zM121 64v-1h1v1h-1zM124 64v-1h1v1h-1zM127 64v-1h1v1h-1zM112 64v-1h1v1h-1zM115 64v-1h1v1h-1zM100 64v-1h1v1h-1zM103 64v-1h1v1h-1zM106 64v-1h1v1h-1zM109 64v-1h1v1h-1zM88 64v-1h1v1h-1zM91 64v-1h1v1h-1zM94 64v-1h1v1h-1zM97 64v-1h1v1h-1zM82 64v-1h1v1h-1zM85 64v-1h1v1h-1zM70 64v-1h1v1h-1zM73 64v-1h1v1h-1zM76 64v-1h1v1h-1zM79 64v-1h1v1h-1zM58 64v-1h1v1h-1zM61 64v-1h1v1h-1zM64 64v-1h1v1h-1zM67 64v-1h1v1h-1zM52 64v-1h1v1h-1zM55 64v-1h1v1h-1zM43 64v-1h1v1h-1zM46 64v-1h1v1h-1zM49 64v-1h1v1h-1zM37 64v-1h1v1h-1zM40 64v-1h1v1h-1zM31 64v-1h1v1h-1zM34 64v-1h1v1h-1zM28 64v-1h1v1h-1zM22 64v-1h1v1h-1zM25 64v-1h1v1h-1zM250 91h1v1h-1v-1zM250 94h1v1h-1v-1zM250 97h1v1h-1v-1zM250 100h1v1h-1v-1zM250 79h1v1h-1v-1zM250 82h1v1h-1v-1zM250 85h1v1h-1v-1zM250 88h1v1h-1v-1zM250 67h1v1h-1v-1zM250 70h1v1h-1v-1zM250 73h1v1h-1v-1zM250 76h1v1h-1v-1zM250 64h1v1h-1v-1zM250 139h1v1h-1v-1zM250 142h1v1h-1v-1zM250 145h1v1h-1v-1zM250 148h1v1h-1v-1zM250 127h1v1h-1v-1zM250 130h1v1h-1v-1zM250 133h1v1h-1v-1zM250 136h1v1h-1v-1zM250 115h1v1h-1v-1zM250 118h1v1h-1v-1zM250 121h1v1h-1v-1zM250 124h1v1h-1v-1zM250 103h1v1h-1v-1zM250 106h1v1h-1v-1zM250 109h1v1h-1v-1zM250 112h1v1h-1v-1zM250 169h1v1h-1v-1zM250 172h1v1h-1v-1zM250 175h1v1h-1v-1zM250 178h1v1h-1v-1zM250 157h1v1h-1v-1zM250 160h1v1h-1v-1zM250 163h1v1h-1v-1zM250 166h1v1h-1v-1zM250 151h1v1h-1v-1zM250 154h1v1h-1v-1zM250 181h1v1h-1v-1zM250 184h1v1h-1v-1zM250 187h1v1h-1v-1zM250 190h1v1h-1v-1zM139 139h1v1h-1v-1zM139 142h1v1h-1v-1zM139 145h1v1h-1v-1zM139 148h1v1h-1v-1zM139 127h1v1h-1v-1zM139 130h1v1h-1v-1zM139 133h1v1h-1v-1zM139 136h1v1h-1v-1zM139 118h1v1h-1v-1zM139 121h1v1h-1v-1zM139 124h1v1h-1v-1zM139 169h1v1h-1v-1zM139 172h1v1h-1v-1zM139 175h1v1h-1v-1zM139 178h1v1h-1v-1zM139 157h1v1h-1v-1zM139 160h1v1h-1v-1zM139 163h1v1h-1v-1zM139 166h1v1h-1v-1zM139 151h1v1h-1v-1zM139 154h1v1h-1v-1zM139 181h1v1h-1v-1zM139 184h1v1h-1v-1zM139 187h1v1h-1v-1zM139 190h1v1h-1v-1z" fill="#4D368A" fill-opacity=".4"/><circle opacity=".05" cx="62" cy="62" r="62" transform="matrix(1 0 0 -1 188 125)" fill="#FF5180"/><circle opacity=".1" cx="48" cy="48" r="48" transform="matrix(1 0 0 -1 202 111)" fill="#FF5180"/><circle opacity=".1" cx="32" cy="32" r="32" transform="matrix(1 0 0 -1 218 95)" fill="#FF5180"/><circle opacity=".2" cx="18" cy="18" r="18" transform="matrix(1 0 0 -1 232 81)" fill="#FF5180"/><circle cx="250" cy="63" r="9" transform="rotate(180 250 63)" fill="#FF5180" stroke="#fff" stroke-width="2"/><circle opacity=".2" cx="18" cy="18" r="18" transform="matrix(1 0 0 -1 121 141)" fill="#7554CC"/><circle cx="139" cy="123" r="9" transform="rotate(180 139 123)" fill="#7554CC" stroke="#fff" stroke-width="2"/><path d="M221.434 39l3.527-9.864h1.982L230.471 39h-1.853l-.834-2.55h-3.671l-.834 2.55h-1.845zm4.498-8.107l-1.374 4.197h2.782l-1.367-4.197h-.041zm8.456 10.643c-1.921 0-3.131-.875-3.336-2.01l-.014-.061h1.675l.02.054c.185.418.766.732 1.655.732 1.107 0 1.716-.588 1.716-1.51v-1.047h-.035c-.403.773-1.223 1.265-2.262 1.265-1.819 0-2.988-1.395-2.988-3.65v-.007c0-2.29 1.183-3.698 3.015-3.698 1.025 0 1.818.546 2.228 1.38h.042v-1.23h1.702v7.04c0 1.642-1.32 2.742-3.418 2.742zm-.048-3.89c1.059 0 1.77-.895 1.77-2.303v-.007c0-1.401-.717-2.297-1.77-2.297-1.094 0-1.784.882-1.784 2.29v.007c0 1.429.69 2.31 1.784 2.31zm8.046 1.498c-2.174 0-3.487-1.443-3.487-3.746v-.007c0-2.284 1.333-3.787 3.405-3.787 2.071 0 3.356 1.456 3.356 3.643v.547h-5.072c.027 1.271.724 2.023 1.832 2.023.848 0 1.401-.45 1.565-.936l.014-.048h1.593l-.021.075c-.225 1.114-1.292 2.236-3.185 2.236zm-.062-6.207c-.902 0-1.579.608-1.716 1.722h3.398c-.123-1.148-.779-1.722-1.682-1.722zm7.41 6.063v-9.864h4.095c1.798 0 2.953.97 2.953 2.468v.013c0 1.06-.8 2.01-1.859 2.153v.035c1.388.123 2.331 1.093 2.331 2.392v.014c0 1.723-1.278 2.789-3.384 2.789h-4.136zm3.651-8.49h-1.887v2.796h1.586c1.271 0 1.955-.52 1.955-1.45v-.013c0-.855-.608-1.333-1.654-1.333zm-.021 4.074h-1.866v3.042h1.969c1.292 0 1.989-.526 1.989-1.518v-.013c0-.992-.711-1.511-2.092-1.511zm7.116 4.539c-1.449 0-2.426-.895-2.426-2.188v-.013c0-1.285.998-2.058 2.755-2.167l1.893-.116v-.5c0-.73-.478-1.175-1.34-1.175-.806 0-1.299.376-1.408.909l-.014.062h-1.579l.007-.083c.103-1.285 1.217-2.248 3.056-2.248 1.811 0 2.98.956 2.98 2.413V39h-1.702v-1.114h-.041c-.417.758-1.223 1.237-2.181 1.237zm-.731-2.256c0 .595.492.957 1.237.957.978 0 1.716-.65 1.716-1.51v-.547l-1.654.102c-.841.055-1.299.417-1.299.991v.007zm9.229 2.277c-2.154 0-3.5-1.45-3.5-3.774v-.007c0-2.31 1.367-3.76 3.479-3.76 1.907 0 3.097 1.21 3.199 2.66l.007.054h-1.606l-.014-.061c-.144-.704-.663-1.272-1.565-1.272-1.074 0-1.764.91-1.764 2.393v.007c0 1.51.697 2.386 1.77 2.386.862 0 1.409-.513 1.566-1.272l.013-.061h1.607l-.007.047c-.13 1.511-1.353 2.66-3.185 2.66zm4.286-.144v-9.864h1.702v5.626H275l2.707-3.008h1.969l-2.871 3.117L279.792 39h-1.962l-2.29-3.117-.574.601V39h-1.702z" fill="#FF5180"/><path d="M104.429 97.17c-2.885 0-4.683-1.961-4.683-5.099v-.013c0-3.131 1.812-5.093 4.683-5.093 2.878 0 4.675 1.962 4.675 5.093v.013c0 3.138-1.791 5.1-4.675 5.1zm0-1.53c1.784 0 2.884-1.395 2.884-3.569v-.013c0-2.188-1.121-3.562-2.884-3.562-1.757 0-2.885 1.367-2.885 3.562v.013c0 2.195 1.121 3.569 2.885 3.569zm5.913 1.36v-7.246h1.702v1.135h.034c.376-.78 1.114-1.285 2.215-1.285 1.593 0 2.502 1.025 2.502 2.707V97h-1.702v-4.348c0-1.032-.479-1.613-1.449-1.613-.978 0-1.6.711-1.6 1.757V97h-1.702zm11.594 2.406c-.329 0-.67-.04-.875-.075v-1.299c.129.028.328.062.567.062.649 0 1.012-.185 1.23-.793l.103-.294-2.605-7.253h1.86l1.695 5.797h.048l1.702-5.797h1.791l-2.604 7.492c-.554 1.593-1.402 2.16-2.912 2.16zm9.249-2.262c-2.133 0-3.507-1.422-3.507-3.767v-.014c0-2.324 1.394-3.76 3.5-3.76 2.112 0 3.513 1.422 3.513 3.76v.014c0 2.352-1.38 3.767-3.506 3.767zm.006-1.375c1.074 0 1.764-.875 1.764-2.392v-.014c0-1.51-.697-2.379-1.777-2.379-1.06 0-1.764.875-1.764 2.38v.013c0 1.524.69 2.392 1.777 2.392zm7.062 1.375c-1.593 0-2.502-1.026-2.502-2.708v-4.682h1.702v4.348c0 1.025.479 1.606 1.449 1.606.978 0 1.6-.704 1.6-1.757v-4.197h1.702V97h-1.702v-1.135h-.034c-.376.773-1.121 1.279-2.215 1.279zm5.352-.144v-7.246h1.703v1.25h.034c.225-.874.827-1.4 1.661-1.4.212 0 .41.034.54.068v1.538c-.144-.055-.403-.096-.69-.096-.964 0-1.545.609-1.545 1.682V97h-1.703zm10.822.144c-2.133 0-3.507-1.422-3.507-3.767v-.014c0-2.324 1.394-3.76 3.5-3.76 2.112 0 3.514 1.422 3.514 3.76v.014c0 2.352-1.381 3.767-3.507 3.767zm.007-1.375c1.073 0 1.763-.875 1.763-2.392v-.014c0-1.51-.697-2.379-1.777-2.379-1.06 0-1.764.875-1.764 2.38v.013c0 1.524.691 2.392 1.778 2.392zM160.401 97l-1.962-7.246h1.709l1.224 5.564h.034l1.415-5.564h1.634l1.415 5.564h.041l1.224-5.564h1.681L166.854 97h-1.791l-1.428-5.298h-.034L162.179 97h-1.778zm9.263 0v-7.246h1.702v1.135h.034c.376-.78 1.115-1.285 2.215-1.285 1.593 0 2.502 1.025 2.502 2.707V97h-1.702v-4.348c0-1.032-.478-1.613-1.449-1.613-.978 0-1.6.711-1.6 1.757V97h-1.702z" fill="#4D368A"/></g><defs><clipPath id="a"><path fill="#fff" d="M0 0H320V220H0z"/></clipPath></defs></svg>