<svg width="320" height="220" fill="none" xmlns="http://www.w3.org/2000/svg"><g clip-path="url(#a)"><path d="M220 103v-1h1v1h-1zM223 103v-1h1v1h-1zM226 103v-1h1v1h-1zM229 103v-1h1v1h-1zM208 103v-1h1v1h-1zM211 103v-1h1v1h-1zM214 103v-1h1v1h-1zM217 103v-1h1v1h-1zM196 103v-1h1v1h-1zM199 103v-1h1v1h-1zM202 103v-1h1v1h-1zM205 103v-1h1v1h-1zM184 103v-1h1v1h-1zM187 103v-1h1v1h-1zM190 103v-1h1v1h-1zM193 103v-1h1v1h-1zM268 103v-1h1v1h-1zM271 103v-1h1v1h-1zM274 103v-1h1v1h-1zM277 103v-1h1v1h-1zM256 103v-1h1v1h-1zM259 103v-1h1v1h-1zM262 103v-1h1v1h-1zM265 103v-1h1v1h-1zM244 103v-1h1v1h-1zM247 103v-1h1v1h-1zM250 103v-1h1v1h-1zM253 103v-1h1v1h-1zM232 103v-1h1v1h-1zM235 103v-1h1v1h-1zM238 103v-1h1v1h-1zM241 103v-1h1v1h-1zM298 103v-1h1v1h-1zM301 103v-1h1v1h-1zM304 103v-1h1v1h-1zM307 103v-1h1v1h-1zM286 103v-1h1v1h-1zM289 103v-1h1v1h-1zM292 103v-1h1v1h-1zM295 103v-1h1v1h-1zM280 103v-1h1v1h-1zM283 103v-1h1v1h-1zM310 103v-1h1v1h-1zM313 103v-1h1v1h-1zM316 103v-1h1v1h-1zM319 103v-1h1v1h-1zM172 103v-1h1v1h-1zM175 103v-1h1v1h-1zM178 103v-1h1v1h-1zM181 103v-1h1v1h-1zM160 103v-1h1v1h-1zM163 103v-1h1v1h-1zM166 103v-1h1v1h-1zM169 103v-1h1v1h-1zM148 103v-1h1v1h-1zM151 103v-1h1v1h-1zM154 103v-1h1v1h-1zM157 103v-1h1v1h-1zM142 103v-1h1v1h-1zM145 103v-1h1v1h-1zM130 103v-1h1v1h-1zM133 103v-1h1v1h-1zM136 103v-1h1v1h-1zM139 103v-1h1v1h-1zM118 103v-1h1v1h-1zM121 103v-1h1v1h-1zM124 103v-1h1v1h-1zM127 103v-1h1v1h-1zM112 103v-1h1v1h-1zM115 103v-1h1v1h-1zM100 103v-1h1v1h-1zM103 103v-1h1v1h-1zM106 103v-1h1v1h-1zM109 103v-1h1v1h-1zM88 103v-1h1v1h-1zM91 103v-1h1v1h-1zM94 103v-1h1v1h-1zM97 103v-1h1v1h-1zM82 103v-1h1v1h-1zM85 103v-1h1v1h-1zM70 103v-1h1v1h-1zM73 103v-1h1v1h-1zM76 103v-1h1v1h-1zM79 103v-1h1v1h-1zM58 103v-1h1v1h-1zM61 103v-1h1v1h-1zM64 103v-1h1v1h-1zM67 103v-1h1v1h-1zM52 103v-1h1v1h-1zM55 103v-1h1v1h-1zM43 103v-1h1v1h-1zM46 103v-1h1v1h-1zM49 103v-1h1v1h-1zM37 103v-1h1v1h-1zM40 103v-1h1v1h-1zM31 103v-1h1v1h-1zM34 103v-1h1v1h-1zM28 103v-1h1v1h-1zM22 103v-1h1v1h-1zM25 103v-1h1v1h-1zM220 43v-1h1v1h-1zM223 43v-1h1v1h-1zM226 43v-1h1v1h-1zM229 43v-1h1v1h-1zM208 43v-1h1v1h-1zM211 43v-1h1v1h-1zM214 43v-1h1v1h-1zM217 43v-1h1v1h-1zM196 43v-1h1v1h-1zM199 43v-1h1v1h-1zM202 43v-1h1v1h-1zM205 43v-1h1v1h-1zM184 43v-1h1v1h-1zM187 43v-1h1v1h-1zM190 43v-1h1v1h-1zM193 43v-1h1v1h-1zM268 43v-1h1v1h-1zM271 43v-1h1v1h-1zM274 43v-1h1v1h-1zM277 43v-1h1v1h-1zM256 43v-1h1v1h-1zM259 43v-1h1v1h-1zM262 43v-1h1v1h-1zM265 43v-1h1v1h-1zM244 43v-1h1v1h-1zM247 43v-1h1v1h-1zM250 43v-1h1v1h-1zM253 43v-1h1v1h-1zM232 43v-1h1v1h-1zM235 43v-1h1v1h-1zM238 43v-1h1v1h-1zM241 43v-1h1v1h-1zM298 43v-1h1v1h-1zM301 43v-1h1v1h-1zM304 43v-1h1v1h-1zM307 43v-1h1v1h-1zM286 43v-1h1v1h-1zM289 43v-1h1v1h-1zM292 43v-1h1v1h-1zM295 43v-1h1v1h-1zM280 43v-1h1v1h-1zM283 43v-1h1v1h-1zM310 43v-1h1v1h-1zM313 43v-1h1v1h-1zM316 43v-1h1v1h-1zM319 43v-1h1v1h-1zM172 43v-1h1v1h-1zM175 43v-1h1v1h-1zM178 43v-1h1v1h-1zM181 43v-1h1v1h-1zM160 43v-1h1v1h-1zM163 43v-1h1v1h-1zM166 43v-1h1v1h-1zM169 43v-1h1v1h-1zM148 43v-1h1v1h-1zM151 43v-1h1v1h-1zM154 43v-1h1v1h-1zM157 43v-1h1v1h-1zM142 43v-1h1v1h-1zM145 43v-1h1v1h-1zM130 43v-1h1v1h-1zM133 43v-1h1v1h-1zM136 43v-1h1v1h-1zM139 43v-1h1v1h-1zM118 43v-1h1v1h-1zM121 43v-1h1v1h-1zM124 43v-1h1v1h-1zM127 43v-1h1v1h-1zM112 43v-1h1v1h-1zM115 43v-1h1v1h-1zM100 43v-1h1v1h-1zM103 43v-1h1v1h-1zM106 43v-1h1v1h-1zM109 43v-1h1v1h-1zM88 43v-1h1v1h-1zM91 43v-1h1v1h-1zM94 43v-1h1v1h-1zM97 43v-1h1v1h-1zM82 43v-1h1v1h-1zM85 43v-1h1v1h-1zM70 43v-1h1v1h-1zM73 43v-1h1v1h-1zM76 43v-1h1v1h-1zM79 43v-1h1v1h-1zM58 43v-1h1v1h-1zM61 43v-1h1v1h-1zM64 43v-1h1v1h-1zM67 43v-1h1v1h-1zM52 43v-1h1v1h-1zM55 43v-1h1v1h-1zM43 43v-1h1v1h-1zM46 43v-1h1v1h-1zM49 43v-1h1v1h-1zM37 43v-1h1v1h-1zM40 43v-1h1v1h-1zM31 43v-1h1v1h-1zM34 43v-1h1v1h-1zM28 43v-1h1v1h-1zM22 43v-1h1v1h-1zM25 43v-1h1v1h-1zM280 90h1v1h-1v-1zM280 93h1v1h-1v-1zM280 96h1v1h-1v-1zM280 99h1v1h-1v-1zM280 78h1v1h-1v-1zM280 81h1v1h-1v-1zM280 84h1v1h-1v-1zM280 87h1v1h-1v-1zM280 66h1v1h-1v-1zM280 69h1v1h-1v-1zM280 72h1v1h-1v-1zM280 75h1v1h-1v-1zM280 54h1v1h-1v-1zM280 57h1v1h-1v-1zM280 60h1v1h-1v-1zM280 63h1v1h-1v-1zM280 138h1v1h-1v-1zM280 141h1v1h-1v-1zM280 144h1v1h-1v-1zM280 147h1v1h-1v-1zM280 126h1v1h-1v-1zM280 129h1v1h-1v-1zM280 132h1v1h-1v-1zM280 135h1v1h-1v-1zM280 114h1v1h-1v-1zM280 117h1v1h-1v-1zM280 120h1v1h-1v-1zM280 123h1v1h-1v-1z" fill="#4D368A" fill-opacity=".4"/><path d="M280 102h1v1h-1v-1zM280 105h1v1h-1v-1zM280 108h1v1h-1v-1zM280 111h1v1h-1v-1zM280 168h1v1h-1v-1zM280 171h1v1h-1v-1zM280 174h1v1h-1v-1zM280 177h1v1h-1v-1zM280 156h1v1h-1v-1zM280 159h1v1h-1v-1zM280 162h1v1h-1v-1zM280 165h1v1h-1v-1zM280 150h1v1h-1v-1zM280 153h1v1h-1v-1zM280 180h1v1h-1v-1zM280 183h1v1h-1v-1zM280 186h1v1h-1v-1zM280 189h1v1h-1v-1zM280 42h1v1h-1v-1zM280 45h1v1h-1v-1zM280 48h1v1h-1v-1zM280 51h1v1h-1v-1zM280 30h1v1h-1v-1zM280 33h1v1h-1v-1zM280 36h1v1h-1v-1zM280 39h1v1h-1v-1zM280 18h1v1h-1v-1zM280 21h1v1h-1v-1zM280 24h1v1h-1v-1zM280 27h1v1h-1v-1zM280 12h1v1h-1v-1zM280 15h1v1h-1v-1zM220 90h1v1h-1v-1zM220 93h1v1h-1v-1zM220 96h1v1h-1v-1zM220 99h1v1h-1v-1zM220 78h1v1h-1v-1zM220 81h1v1h-1v-1zM220 84h1v1h-1v-1zM220 87h1v1h-1v-1zM220 66h1v1h-1v-1zM220 69h1v1h-1v-1zM220 72h1v1h-1v-1zM220 75h1v1h-1v-1zM220 54h1v1h-1v-1zM220 57h1v1h-1v-1zM220 60h1v1h-1v-1zM220 63h1v1h-1v-1zM220 138h1v1h-1v-1zM220 141h1v1h-1v-1zM220 144h1v1h-1v-1zM220 147h1v1h-1v-1zM220 126h1v1h-1v-1zM220 129h1v1h-1v-1zM220 132h1v1h-1v-1zM220 135h1v1h-1v-1zM220 114h1v1h-1v-1zM220 117h1v1h-1v-1zM220 120h1v1h-1v-1zM220 123h1v1h-1v-1zM220 102h1v1h-1v-1zM220 105h1v1h-1v-1zM220 108h1v1h-1v-1zM220 111h1v1h-1v-1zM220 168h1v1h-1v-1zM220 171h1v1h-1v-1zM220 174h1v1h-1v-1zM220 177h1v1h-1v-1zM220 156h1v1h-1v-1zM220 159h1v1h-1v-1zM220 162h1v1h-1v-1zM220 165h1v1h-1v-1zM220 150h1v1h-1v-1zM220 153h1v1h-1v-1zM220 180h1v1h-1v-1zM220 183h1v1h-1v-1zM220 186h1v1h-1v-1zM220 189h1v1h-1v-1zM220 42h1v1h-1v-1zM220 45h1v1h-1v-1zM220 48h1v1h-1v-1zM220 51h1v1h-1v-1zM220 30h1v1h-1v-1zM220 33h1v1h-1v-1zM220 36h1v1h-1v-1zM220 39h1v1h-1v-1zM220 18h1v1h-1v-1zM220 21h1v1h-1v-1zM220 24h1v1h-1v-1zM220 27h1v1h-1v-1zM220 12h1v1h-1v-1zM220 15h1v1h-1v-1z" fill="#4D368A" fill-opacity=".4"/><path d="M319 193H19V9m300 184l-3 3m3-3l-3-3M19 9l-3 3m3-3l3 3" stroke="#4D368A" stroke-opacity=".4" stroke-miterlimit="16" stroke-linecap="round" stroke-linejoin="round"/><path opacity=".3" d="M20 192.5C63.657 158.185 134.94 103 281 103v89.5H20z" fill="url(#b)"/><path d="M20.5 192.5C36.489 159.553 98.891 72.5 221 43" stroke="#7554CC" stroke-width="6" stroke-linecap="round"/><path d="M20.5 192.5C64.157 158.185 134.939 103 281 103" stroke="#FF5180" stroke-width="6" stroke-linecap="round"/><circle opacity=".2" cx="18" cy="18" r="18" transform="matrix(1 0 0 -1 262 121)" fill="#FF5180"/><circle cx="280" cy="103" r="9" transform="rotate(180 280 103)" fill="#FF5180" stroke="#fff" stroke-width="2"/><circle opacity=".2" cx="18" cy="18" r="18" transform="matrix(1 0 0 -1 202 61)" fill="#7554CC"/><circle cx="220" cy="43" r="9" transform="rotate(180 220 43)" fill="#7554CC" stroke="#fff" stroke-width="2"/><path d="M152.893 215v-8.545h-3.022v-1.319h7.567v1.319h-3.014V215h-1.531zm6.09-8.299a.855.855 0 01-.861-.847c0-.472.383-.855.861-.855a.85.85 0 110 1.702zm-.738 8.299v-7.191h1.477V215h-1.477zm3.001 0v-7.191h1.477v1.114h.034c.307-.752 1.039-1.251 1.982-1.251.991 0 1.716.513 2.003 1.415h.034c.37-.875 1.217-1.415 2.243-1.415 1.421 0 2.351.943 2.351 2.386V215h-1.483v-4.587c0-.936-.499-1.476-1.374-1.476-.875 0-1.484.656-1.484 1.565V215h-1.449v-4.696c0-.834-.526-1.367-1.36-1.367-.875 0-1.497.69-1.497 1.62V215h-1.477zm14.622.144c-2.112 0-3.39-1.443-3.39-3.712v-.007c0-2.249 1.298-3.753 3.315-3.753s3.254 1.449 3.254 3.609v.499h-5.093c.027 1.361.773 2.154 1.948 2.154.875 0 1.456-.452 1.641-.992l.02-.054h1.402l-.014.075c-.232 1.141-1.34 2.181-3.083 2.181zm-.068-6.262c-.957 0-1.696.649-1.825 1.852h3.609c-.123-1.244-.82-1.852-1.784-1.852z" fill="#4D368A"/><path d="M251.434 76l3.527-9.864h1.982L260.471 76h-1.853l-.834-2.55h-3.671l-.834 2.55h-1.845zm4.498-8.107l-1.374 4.197h2.782l-1.367-4.197h-.041zm8.456 10.643c-1.921 0-3.131-.875-3.336-2.01l-.014-.061h1.675l.02.054c.185.417.766.732 1.655.732 1.107 0 1.716-.588 1.716-1.51v-1.047h-.035c-.403.773-1.223 1.265-2.262 1.265-1.819 0-2.988-1.395-2.988-3.65v-.007c0-2.29 1.183-3.699 3.015-3.699 1.025 0 1.818.547 2.228 1.381h.042v-1.23h1.702v7.04c0 1.642-1.32 2.742-3.418 2.742zm-.048-3.89c1.059 0 1.77-.895 1.77-2.303v-.007c0-1.401-.717-2.297-1.77-2.297-1.094 0-1.784.882-1.784 2.29v.007c0 1.429.69 2.31 1.784 2.31zm8.046 1.498c-2.174 0-3.487-1.443-3.487-3.747v-.006c0-2.284 1.333-3.788 3.405-3.788 2.071 0 3.356 1.457 3.356 3.644v.547h-5.072c.027 1.271.724 2.023 1.832 2.023.848 0 1.401-.45 1.565-.936l.014-.048h1.593l-.021.075c-.225 1.114-1.292 2.236-3.185 2.236zm-.062-6.208c-.902 0-1.579.609-1.716 1.723h3.398c-.123-1.148-.779-1.723-1.682-1.723zm7.41 6.064v-9.864h4.095c1.798 0 2.953.97 2.953 2.468v.013c0 1.06-.8 2.01-1.859 2.153v.035c1.388.123 2.331 1.093 2.331 2.392v.014c0 1.723-1.278 2.789-3.384 2.789h-4.136zm3.651-8.49h-1.887v2.796h1.586c1.271 0 1.955-.52 1.955-1.45v-.013c0-.855-.608-1.333-1.654-1.333zm-.021 4.074h-1.866v3.042h1.969c1.292 0 1.989-.526 1.989-1.518v-.013c0-.992-.711-1.511-2.092-1.511zm7.116 4.539c-1.449 0-2.426-.895-2.426-2.188v-.013c0-1.285.998-2.058 2.755-2.167l1.893-.116v-.5c0-.73-.478-1.175-1.34-1.175-.806 0-1.299.376-1.408.909l-.014.062h-1.579l.007-.082c.103-1.286 1.217-2.25 3.056-2.25 1.811 0 2.98.958 2.98 2.414V76h-1.702v-1.114h-.041c-.417.758-1.223 1.237-2.181 1.237zm-.731-2.256c0 .595.492.957 1.237.957.978 0 1.716-.65 1.716-1.51v-.547l-1.654.102c-.841.055-1.299.417-1.299.991v.007zm9.229 2.277c-2.154 0-3.5-1.45-3.5-3.774v-.007c0-2.31 1.367-3.76 3.479-3.76 1.907 0 3.097 1.21 3.199 2.66l.007.054h-1.606l-.014-.061c-.144-.704-.663-1.272-1.565-1.272-1.074 0-1.764.91-1.764 2.393v.007c0 1.51.697 2.385 1.77 2.385.862 0 1.409-.512 1.566-1.271l.013-.062h1.607l-.007.048c-.13 1.511-1.353 2.66-3.185 2.66zm4.286-.144v-9.864h1.702v5.626H305l2.707-3.008h1.969l-2.871 3.117L309.792 76h-1.962l-2.29-3.117-.574.601V76h-1.702z" fill="#FF5180"/><path d="M182.184 15V5.136h3.937c2.106 0 3.391 1.169 3.391 3.076v.014c0 1.326-.711 2.399-1.86 2.816L189.806 15h-2.01l-1.942-3.691h-1.907V15h-1.763zm1.763-5.086h1.99c1.114 0 1.77-.615 1.77-1.675v-.013c0-1.033-.697-1.662-1.805-1.662h-1.955v3.35zm9.96 5.23c-2.174 0-3.486-1.443-3.486-3.746v-.007c0-2.284 1.333-3.787 3.404-3.787 2.071 0 3.357 1.456 3.357 3.643v.547h-5.073c.028 1.271.725 2.023 1.832 2.023.848 0 1.402-.45 1.566-.936l.014-.048h1.592l-.02.075c-.226 1.115-1.292 2.236-3.186 2.236zm-.061-6.207c-.903 0-1.579.608-1.716 1.722h3.397c-.123-1.148-.779-1.722-1.681-1.722zm7.704 8.6c-1.921 0-3.131-.876-3.336-2.01l-.014-.062h1.675l.021.055c.184.417.765.731 1.654.731 1.107 0 1.716-.588 1.716-1.51v-1.047h-.035c-.403.773-1.223 1.265-2.262 1.265-1.819 0-2.988-1.394-2.988-3.65v-.007c0-2.29 1.183-3.698 3.015-3.698 1.025 0 1.818.546 2.229 1.38h.041v-1.23h1.702v7.04c0 1.642-1.32 2.742-3.418 2.742zm-.048-3.89c1.06 0 1.77-.896 1.77-2.304v-.007c0-1.401-.717-2.297-1.77-2.297-1.094 0-1.784.882-1.784 2.29v.007c0 1.429.69 2.31 1.784 2.31zm7.328 1.497c-1.593 0-2.502-1.026-2.502-2.707V7.754h1.702v4.348c0 1.025.479 1.606 1.449 1.606.978 0 1.6-.704 1.6-1.757V7.754h1.702V15h-1.702v-1.135h-.034c-.376.773-1.121 1.279-2.215 1.279zm5.4-.144V5.136h1.703V15h-1.703zm5.291.123c-1.449 0-2.426-.896-2.426-2.188v-.013c0-1.285.998-2.058 2.755-2.167l1.893-.116v-.5c0-.73-.478-1.175-1.34-1.175-.806 0-1.299.376-1.408.909l-.014.062h-1.579l.007-.082c.103-1.286 1.217-2.25 3.056-2.25 1.811 0 2.98.958 2.98 2.414V15h-1.702v-1.114h-.041c-.417.759-1.223 1.237-2.181 1.237zm-.731-2.256c0 .595.492.957 1.237.957.978 0 1.716-.65 1.716-1.51v-.547l-1.654.102c-.841.055-1.299.417-1.299.991v.007zM224.819 15V7.754h1.702v1.25h.035c.225-.874.827-1.4 1.661-1.4.212 0 .41.034.54.068V9.21c-.144-.055-.403-.096-.691-.096-.963 0-1.545.609-1.545 1.682V15h-1.702zm10.815.144c-2.154 0-3.5-1.45-3.5-3.774v-.007c0-2.31 1.367-3.76 3.479-3.76 1.908 0 3.097 1.21 3.199 2.66l.007.054h-1.606l-.014-.061c-.143-.704-.663-1.272-1.565-1.272-1.073 0-1.764.91-1.764 2.393v.007c0 1.51.697 2.386 1.771 2.386.861 0 1.408-.513 1.565-1.272l.014-.061h1.606l-.007.047c-.13 1.511-1.353 2.66-3.185 2.66zm6.35-.021c-1.449 0-2.426-.896-2.426-2.188v-.013c0-1.285.998-2.058 2.754-2.167l1.894-.116v-.5c0-.73-.478-1.175-1.34-1.175-.806 0-1.299.376-1.408.909l-.014.062h-1.579l.007-.082c.103-1.286 1.217-2.25 3.056-2.25 1.811 0 2.98.958 2.98 2.414V15h-1.702v-1.114h-.041c-.417.759-1.224 1.237-2.181 1.237zm-.731-2.256c0 .595.492.957 1.237.957.978 0 1.716-.65 1.716-1.51v-.547l-1.654.102c-.841.055-1.299.417-1.299.991v.007zM247.282 15V7.754h1.702v1.25h.035c.225-.874.827-1.4 1.661-1.4.212 0 .41.034.54.068V9.21c-.144-.055-.404-.096-.691-.096-.964 0-1.545.609-1.545 1.682V15h-1.702zm7.725.144c-2.174 0-3.486-1.443-3.486-3.746v-.007c0-2.284 1.333-3.787 3.404-3.787 2.071 0 3.356 1.456 3.356 3.643v.547h-5.072c.027 1.271.725 2.023 1.832 2.023.848 0 1.401-.45 1.565-.936l.014-.048h1.593l-.021.075c-.225 1.115-1.292 2.236-3.185 2.236zm-.062-6.207c-.902 0-1.579.608-1.716 1.722h3.398c-.123-1.148-.779-1.722-1.682-1.722zM13 141.469l-9.864-3.528v-1.982L13 132.432v1.852l-2.55.834v3.671l2.55.834v1.846zm-8.107-4.498l4.197 1.374v-2.783l-4.197 1.368v.041zm10.643-8.456c0 1.921-.875 3.131-2.01 3.336l-.061.013v-1.675l.055-.02c.417-.185.731-.766.731-1.654 0-1.108-.588-1.716-1.51-1.716h-1.047v.034c.773.403 1.265 1.224 1.265 2.263 0 1.818-1.394 2.987-3.65 2.987h-.007c-2.29 0-3.698-1.183-3.698-3.015 0-1.025.546-1.818 1.38-2.228v-.041h-1.23v-1.702h7.04c1.641 0 2.742 1.319 2.742 3.418zm-3.89.047c0-1.059-.895-1.77-2.303-1.77h-.007c-1.401 0-2.297.718-2.297 1.77 0 1.094.882 1.785 2.29 1.785h.007c1.429 0 2.31-.691 2.31-1.785zM4.715 122.8a.94.94 0 01-.93.95.937.937 0 01-.936-.95c0-.533.417-.944.936-.944.506 0 .93.411.93.944zm8.285.854H5.754v-1.702H13v1.702zm0-3.151H5.754v-1.702h1.135v-.034c-.78-.376-1.285-1.115-1.285-2.215 0-1.593 1.025-2.502 2.707-2.502H13v1.702H8.652c-1.032 0-1.613.478-1.613 1.449 0 .978.711 1.6 1.757 1.6H13v1.702zm2.536-11.088c0 1.921-.875 3.131-2.01 3.336l-.061.014v-1.675l.055-.021c.417-.184.731-.765.731-1.654 0-1.107-.588-1.716-1.51-1.716h-1.047v.034c.773.404 1.265 1.224 1.265 2.263 0 1.818-1.394 2.987-3.65 2.987h-.007c-2.29 0-3.698-1.182-3.698-3.014 0-1.026.546-1.819 1.38-2.229v-.041h-1.23v-1.702h7.04c1.641 0 2.742 1.319 2.742 3.418zm-3.89.048c0-1.06-.895-1.771-2.303-1.771h-.007c-1.401 0-2.297.718-2.297 1.771 0 1.094.882 1.784 2.29 1.784h.007c1.429 0 2.31-.69 2.31-1.784zM13 101.752H3.136v-1.702H13v1.702zm.144-6.337c0 2.174-1.443 3.486-3.747 3.486h-.006c-2.284 0-3.787-1.333-3.787-3.404 0-2.071 1.456-3.356 3.643-3.356h.547v5.072c1.271-.027 2.023-.725 2.023-1.832 0-.848-.45-1.401-.936-1.566l-.048-.013v-1.593l.075.02c1.115.226 2.236 1.293 2.236 3.186zm-6.207.062c0 .902.608 1.579 1.722 1.715v-3.397c-1.148.123-1.722.78-1.722 1.682zM13 89.358l-7.246 2.564V90.11l5.667-1.681v-.041l-5.667-1.675v-1.777L13 87.486v1.872zm.144-8.134c0 2.173-1.443 3.486-3.747 3.486h-.006c-2.284 0-3.787-1.333-3.787-3.404 0-2.072 1.456-3.357 3.643-3.357h.547v5.073c1.271-.028 2.023-.725 2.023-1.833 0-.847-.45-1.4-.936-1.565l-.048-.014v-1.592l.075.02c1.115.226 2.236 1.292 2.236 3.186zm-6.207.061c0 .903.608 1.58 1.722 1.716v-3.398c-1.148.124-1.722.78-1.722 1.682zM13 76.801H3.136v-1.702H13V76.8z" fill="#4D368A"/></g><defs><linearGradient id="b" x1="281" y1="103" x2="281" y2="193" gradientUnits="userSpaceOnUse"><stop stop-color="#FF6DA1"/><stop offset="1" stop-color="#fff"/></linearGradient><clipPath id="a"><path fill="#fff" d="M0 0H320V220H0z"/></clipPath></defs></svg>