<svg width="48" height="48" viewBox="0 0 48 48" fill="none" xmlns="http://www.w3.org/2000/svg">
<circle opacity="0.1" cx="24" cy="24" r="24" fill="#7554CC"/>
<circle opacity="0.3" cx="23.9997" cy="23.9997" r="20.0002" fill="#7554CC"/>
<circle cx="24.0001" cy="24.0021" r="15.9981" fill="#7554CC"/>
<path d="M28.3095 15.6665H19.6902C18.2054 15.6665 17.4617 17.4617 18.5117 18.5117L23.882 23.882C23.9471 23.9471 24.0526 23.9471 24.1177 23.882L29.488 18.5117C30.5379 17.4617 29.7943 15.6665 28.3095 15.6665Z" fill="white"/>
<path d="M28.3095 32.3335H19.6902C18.2054 32.3335 17.4617 30.5383 18.5117 29.4883L23.882 24.118C23.9471 24.0529 24.0526 24.0529 24.1177 24.118L29.488 29.4883C30.5379 30.5383 29.7943 32.3335 28.3095 32.3335Z" fill="white"/>
</svg>
