<svg width="48" height="32" viewBox="0 0 48 32" fill="none" xmlns="http://www.w3.org/2000/svg">
<path d="M14.7597 15.9936C14.7597 18.2363 16.5216 19.9754 18.7878 19.9754C19.429 19.9754 19.977 19.8496 20.6539 19.5315V17.7789C20.059 18.3744 19.5319 18.6142 18.8569 18.6142C17.3576 18.6142 16.2935 17.5274 16.2935 15.9818C16.2935 14.5171 17.3921 13.3612 18.7878 13.3612C19.498 13.3612 20.0356 13.6146 20.6539 14.2199V12.4685C20.0011 12.1369 19.4635 12 18.823 12C16.5679 12 14.7597 13.7742 14.7597 15.9936Z" fill="#28194B"/>
<path d="M10.9394 14.1398C10.9394 14.5522 11.202 14.7698 12.0953 15.1003C13.7888 15.7198 14.2906 16.2685 14.2906 17.4817C14.2906 18.9588 13.205 19.9871 11.6582 19.9871C10.5258 19.9871 9.70213 19.5408 9.01599 18.5341L9.9777 17.6087C10.3205 18.2714 10.8926 18.6259 11.6021 18.6259C12.2667 18.6259 12.758 18.1679 12.758 17.5495C12.758 17.229 12.6088 16.954 12.3117 16.7598C12.1619 16.668 11.8654 16.5311 11.2828 16.3252C9.88461 15.8222 9.40499 15.284 9.40499 14.2329C9.40499 12.9839 10.4351 12.0456 11.7852 12.0456C12.6218 12.0456 13.3875 12.3323 14.028 12.892L13.2487 13.9123C12.861 13.4771 12.4948 13.294 12.0485 13.294C11.4067 13.294 10.9394 13.6589 10.9394 14.1398Z" fill="#28194B"/>
<path fill-rule="evenodd" clip-rule="evenodd" d="M2.18542 12.1719H0V19.8033H2.17371C3.32899 19.8033 4.16433 19.5315 4.89671 18.9224C5.76718 18.2017 6.28194 17.1161 6.28194 15.9935C6.28194 13.7409 4.59895 12.1719 2.18542 12.1719ZM3.9239 17.9052C3.45599 18.3275 2.84876 18.5118 1.88705 18.5118H1.48757V13.4653H1.88705C2.84876 13.4653 3.43195 13.6367 3.9239 14.0824C4.43928 14.5405 4.74813 15.2513 4.74813 15.9818C4.74813 16.7148 4.43928 17.4472 3.9239 17.9052Z" fill="#28194B"/>
<path d="M8.45561 12.1719H6.96681V19.8033H8.45561V12.1719Z" fill="#28194B"/>
<path d="M30.4215 12.1719L32.4571 17.298L34.5186 12.1719H36.1319L32.835 20H32.0342L28.7958 12.1719H30.4215Z" fill="#28194B"/>
<path d="M36.8052 19.8033H41.0268V18.5118H38.2927V16.4515H40.9257V15.1588H38.2927V13.4653H41.0268V12.1719H36.8052V19.8033Z" fill="#28194B"/>
<path fill-rule="evenodd" clip-rule="evenodd" d="M44.2195 12.1719C45.9364 12.1719 46.9215 12.9962 46.9215 14.4252C46.9215 15.594 46.3032 16.3609 45.1818 16.5884L47.5843 19.8033H45.7539L43.6937 16.7382H43.4988V19.8033H42.0125V12.1719H44.2195ZM43.4988 15.6853H43.9347C44.8853 15.6853 45.389 15.2728 45.389 14.5053C45.389 13.7625 44.8853 13.3741 43.9575 13.3741H43.4988V15.6853Z" fill="#28194B"/>
<g filter="url(#filter0_i_383_385)">
<path d="M24.5876 19.9994C22.4085 19.9994 20.6414 18.2322 20.6414 16.0531V16.0478C20.6414 14.9636 21.0804 13.9771 21.7905 13.267C21.7905 13.2615 21.796 13.2615 21.796 13.2562C21.8013 13.2562 21.8013 13.2507 21.8068 13.2507C22.5169 12.5406 23.5035 12.1016 24.5876 12.1016H24.5931C26.7722 12.1016 28.5393 13.8687 28.5393 16.0478V16.0531C28.5393 17.1373 28.1002 18.1185 27.3901 18.834C27.3901 18.8394 27.3847 18.8394 27.3847 18.8449C27.3792 18.8449 27.3792 18.8502 27.3739 18.8502C26.6583 19.5603 25.6772 19.9994 24.5931 19.9994H24.5876Z" fill="url(#paint0_linear_383_385)"/>
</g>
<defs>
<filter id="filter0_i_383_385" x="20.6414" y="12.1016" width="9.27126" height="9.95841" filterUnits="userSpaceOnUse" color-interpolation-filters="sRGB">
<feFlood flood-opacity="0" result="BackgroundImageFix"/>
<feBlend mode="normal" in="SourceGraphic" in2="BackgroundImageFix" result="shape"/>
<feColorMatrix in="SourceAlpha" type="matrix" values="0 0 0 0 0 0 0 0 0 0 0 0 0 0 0 0 0 0 127 0" result="hardAlpha"/>
<feOffset dx="1.37331" dy="2.05997"/>
<feGaussianBlur stdDeviation="1.37331"/>
<feComposite in2="hardAlpha" operator="arithmetic" k2="-1" k3="1"/>
<feColorMatrix type="matrix" values="0 0 0 0 0 0 0 0 0 0 0 0 0 0 0 0 0 0 0.35 0"/>
<feBlend mode="normal" in2="shape" result="effect1_innerShadow_383_385"/>
</filter>
<linearGradient id="paint0_linear_383_385" x1="22.5205" y1="12.1016" x2="29.0101" y2="17.5929" gradientUnits="userSpaceOnUse">
<stop stop-color="#EF3823"/>
<stop offset="0.489583" stop-color="#F04D22"/>
<stop offset="1" stop-color="#F7911D"/>
</linearGradient>
</defs>
</svg>
