<svg width="41" height="49" viewBox="0 0 41 49" fill="none" xmlns="http://www.w3.org/2000/svg">
<path fill-rule="evenodd" clip-rule="evenodd" d="M20.05 0.307617H0.120379L0.0734863 16.2296C0.0734863 35.7105 19.6749 48.1203 19.8624 48.2608L19.9093 48.3076C19.9562 48.3076 20.0969 48.214 20.0969 48.214C23.4263 46.0598 40.0265 34.3057 40.0265 16.3232V0.354442C40.0265 0.307613 20.05 0.307617 20.05 0.307617Z" fill="#C5112E"/>
<path d="M0.354736 16.1828V0.354492H40.0733C40.0733 0.354492 40.0733 2.69596 40.0733 16.3233C40.0733 36.413 20.0499 48.1672 20.0499 48.1672C20.0499 48.1672 0.354736 35.8043 0.354736 16.1828Z" stroke="black" stroke-width="0.709323"/>
<path fill-rule="evenodd" clip-rule="evenodd" d="M28.0686 39.3169C27.9748 39.1764 27.7872 38.9891 27.6934 38.8954C27.5527 38.193 28.6313 37.7247 28.0686 36.9754C27.9279 36.554 28.0217 35.9452 27.5996 35.6174C27.2714 35.3832 26.8493 35.3364 26.5211 35.0554C26.5211 34.8681 26.7555 34.9149 26.8962 34.8681C27.4589 34.7276 27.9748 35.4301 28.3968 34.9149C28.4437 34.5403 28.0686 34.1657 27.8341 33.9315C26.99 33.3227 25.677 33.5569 25.0205 32.6671L25.1143 32.5735C25.9584 32.7608 26.8493 32.6203 27.4589 32.0584C27.8341 31.5901 28.2092 31.1218 28.772 30.9813C29.3347 30.5598 29.4285 29.8105 29.4285 29.0613C29.4754 28.7803 29.5691 28.4993 29.8036 28.312C30.1319 28.031 30.929 28.1247 30.7415 27.5159C30.3194 27.2818 29.8505 27.0945 29.3347 27.1413C29.1002 27.0008 29.3816 26.8135 29.4754 26.7198C30.3194 26.1579 31.6324 25.8301 31.5387 24.6125C31.4449 24.472 31.4918 24.2847 31.2573 24.2379C30.8821 24.2847 30.6946 24.6125 30.3663 24.7998C29.5691 25.2213 28.5844 25.1744 27.8341 25.6427C27.6934 25.6427 27.7403 25.4554 27.7872 25.3618C28.0686 24.9871 28.6313 24.9403 28.8657 24.472C29.0064 24.0974 29.1002 23.5823 29.5222 23.3949C29.8036 23.2076 30.2256 23.2076 30.3663 22.8798C30.3194 22.6925 30.1319 22.5988 29.9912 22.552C29.2409 22.3179 28.4906 22.7393 27.9748 23.2545C27.412 23.4886 26.8024 23.6759 26.3804 24.1442C26.2866 24.1442 26.1928 24.0974 26.1928 24.0037C26.099 22.9735 27.0369 22.2242 27.6934 21.6154C28.2092 21.4749 28.5844 20.8662 29.194 21.1471C29.5691 21.3345 29.9912 21.5686 30.4601 21.4281C31.0228 21.2408 31.1635 20.5852 31.6793 20.2574C32.0545 20.1169 32.6172 20.6788 32.8517 20.1637C32.9923 19.6018 32.5234 19.274 32.2421 18.8525C32.5703 18.0564 32.3358 17.1198 31.6793 16.5579C31.3511 16.3705 30.9759 16.2301 30.6008 16.3706C30.3194 16.7452 30.8822 16.9793 30.8822 17.3071C31.0228 18.8057 29.3816 19.1335 28.4437 19.7423C26.6149 20.632 24.4109 22.0369 24.2702 24.3784C24.3171 25.6896 24.8329 26.8135 25.7239 27.7501C26.1928 28.5462 26.9431 29.2954 26.6618 30.3257C26.4742 30.7471 26.0053 30.794 25.5832 30.794C24.0357 30.7003 23.1448 28.9676 22.5352 27.7501C22.3476 27.2818 22.0662 26.8603 22.0193 26.2984C22.1131 26.2047 22.16 26.2515 22.2538 26.2984C22.5352 26.5793 22.4883 27.1881 23.0041 27.0944C23.3792 26.5325 23.0979 25.8769 22.9103 25.3618C22.6289 24.8466 22.0193 24.6125 21.7849 24.0974C21.738 23.7227 22.3476 23.9569 22.3476 23.5354C22.16 22.8798 22.1131 22.1774 22.2069 21.5218C22.3007 21.2408 22.7227 21.2408 22.7227 20.913C22.5352 20.2574 22.5352 19.6018 22.582 18.8993C22.6758 18.4779 23.0041 18.0564 22.7696 17.5881C22.3007 17.4476 22.6758 16.8857 22.2538 16.7452C21.3628 16.7452 20.7063 16.2769 19.956 15.9959C19.5809 15.9023 19.2995 16.1364 18.9713 16.1832C18.4554 16.2769 17.9396 16.2769 17.6114 16.6515C17.3769 16.9325 17.4238 17.2603 17.4238 17.6349C17.33 17.8691 17.1424 17.6818 17.0486 17.6349C16.6735 17.4476 16.5328 17.0262 16.6735 16.6515C16.7204 16.4642 16.6266 16.2769 16.4859 16.1364C16.2515 15.9959 15.9232 15.9023 15.6418 15.9959C15.2667 16.1364 15.1729 16.5579 15.0322 16.8388C14.9853 17.073 15.0791 17.4008 15.1729 17.6349C15.6887 18.1969 16.439 18.3842 17.0018 18.8525C17.0955 19.1803 16.908 19.4613 16.6735 19.7423C16.6266 20.0232 17.0486 20.0232 17.0018 20.3042C16.5797 20.3979 16.1577 20.351 15.8763 20.0701C15.6887 19.8827 15.595 19.5081 15.2667 19.4613C14.9385 19.4613 14.8916 19.8827 14.7509 20.0701C14.6571 20.3042 14.704 20.6788 14.5164 20.8662L14.2819 20.8193C13.2034 20.4447 12.2655 19.8827 11.3277 19.1803C10.765 18.7588 10.3898 18.1501 9.96777 17.5881C9.7802 16.9325 9.63952 16.0427 8.84233 15.8086C8.65476 15.8086 8.42029 15.8554 8.42029 16.0427L8.3734 16.3237C7.95136 16.3237 7.52932 16.0427 7.10728 16.1832C6.91971 16.3237 6.68524 16.4642 6.54456 16.6984C6.49767 17.1666 7.10728 16.9793 7.15418 17.354C7.15418 17.6818 7.43554 17.9627 7.57622 18.1969L7.15418 18.6652L6.91971 19.3208C7.0135 19.5081 7.15418 19.7891 7.43553 19.8359C7.81068 19.6954 8.09204 19.9296 8.51408 19.8827C8.74855 19.8827 9.12369 19.6954 9.17059 20.0701C9.31127 20.3979 9.17058 20.6788 9.12369 20.9598C8.79544 21.4281 8.3734 21.8027 7.85757 22.0369C7.71689 22.1305 7.7169 22.3647 7.76379 22.552C7.95136 22.833 8.3734 22.6925 8.65476 22.6925C9.21748 22.6457 9.59262 22.3647 10.1553 22.3179C10.296 22.5988 10.4836 22.8798 10.765 23.0203C11.187 23.114 11.2808 22.552 11.7028 22.6925C12.0311 22.9735 11.9373 23.4418 12.2655 23.7696C12.2655 23.9569 12.1249 23.9569 11.9842 24.0037C11.5621 24.1442 10.9056 24.0037 10.5774 24.3784C10.5305 24.5657 10.7181 24.753 10.8587 24.8466C11.2339 25.034 11.7497 25.1276 12.2186 25.1744C12.6407 25.2213 13.0627 25.0808 13.4848 25.1744L13.3441 25.3618L12.078 26.2047C11.5152 26.4388 10.9056 26.5793 10.3429 26.8603C9.54573 27.0476 9.21748 26.0642 8.46719 26.111C8.13894 26.111 7.95136 26.2047 7.71689 26.392C7.52932 26.5793 7.52932 26.8603 7.57622 27.0944C7.67 27.3286 8.04515 27.2349 8.04515 27.4691C7.99826 28.2184 7.38864 28.7335 7.34175 29.4827C7.29486 29.6701 7.38864 29.9042 7.57622 29.9979C7.7169 30.0915 7.90447 30.0447 7.99826 29.9042C8.13894 29.7637 8.13893 29.5296 8.42029 29.4827C8.84233 29.5296 9.31127 29.5296 9.63952 29.2018C9.7802 29.2018 9.96777 29.3423 9.96777 29.4827C9.96777 29.6701 9.96777 29.8574 10.1553 29.951C10.8118 29.9979 11.0932 29.2954 11.4215 28.8271C11.7028 28.7803 12.0311 28.5462 12.3124 28.7335C12.4062 29.2018 12.078 29.4827 11.9842 29.9042C11.9842 29.9979 12.1249 30.0915 12.2655 30.1384C13.0627 30.0447 13.4848 29.2954 13.9537 28.7335C14.0475 28.593 14.0944 28.3588 14.3288 28.3588C14.9385 28.5462 15.0791 27.7969 15.4543 27.5627H15.595C15.6419 27.7501 15.5012 27.8905 15.595 28.0779C15.8763 28.3588 16.1577 28.031 16.3921 27.9842L16.9549 27.6564C17.6114 27.8437 18.2679 28.031 18.9713 28.1715C19.534 28.3588 18.9713 28.9676 19.2995 29.2954C19.2057 29.4827 18.9713 29.5296 18.7368 29.5296C17.6114 29.6701 16.2515 29.3891 15.3605 30.232L14.6571 30.8408C13.813 30.8876 13.3441 31.5901 12.5938 31.7305C12.078 32.1052 11.2808 31.5901 10.9525 32.152C11.187 32.714 11.8435 32.9013 12.4531 33.0418C12.6876 33.1354 13.0627 32.9949 13.2034 33.2759C13.2503 33.5569 13.2972 33.8379 13.5785 33.9315C13.813 34.0252 13.9537 33.6505 14.1413 33.8379C14.4226 34.2125 14.8447 34.3998 15.0791 34.7744C14.8916 35.1023 14.4695 34.9149 14.1413 34.9149L14.0944 34.8681C13.6254 34.9149 13.0158 35.1491 12.6876 34.7276C12.1718 34.353 11.7966 33.791 11.0932 33.791C10.7181 33.8847 10.296 34.0252 10.2022 34.4935C10.1553 34.7745 10.3898 34.8681 10.5305 35.0086C10.0616 35.3364 9.59262 35.8047 9.7333 36.4603C9.7802 36.6008 9.82709 36.7413 10.0147 36.7413C10.2491 36.7413 10.4367 36.554 10.6712 36.6476C10.7181 37.0223 10.6243 37.631 11.0932 37.8183C11.4684 37.7715 11.7028 37.3501 12.1249 37.6779C12.5 37.8652 12.8283 37.4905 13.1565 37.3969C13.7192 37.3969 13.9068 37.912 14.0944 38.2866C14.4226 38.5208 14.8916 38.9423 15.3605 38.7081C15.6887 38.2398 15.0791 37.6779 15.6887 37.3969C16.0639 37.3032 16.3452 37.4437 16.7204 37.3501C17.2831 37.3969 17.9865 37.4437 18.3148 36.8349L18.8306 35.9452L18.9244 35.3832C19.2526 35.2896 19.7685 35.8047 19.9091 35.2896C19.7216 34.7744 19.6747 34.2125 19.7685 33.6974C19.8622 33.3227 20.0498 32.9481 20.3312 32.6671L20.4719 32.714C20.6125 33.3696 20.6594 34.0252 20.9408 34.5871C20.8939 35.1959 20.5656 35.711 20.5187 36.273C20.3781 36.8818 19.9091 37.3969 19.3464 37.6779C19.2057 37.7715 19.1119 37.9588 19.2057 38.1462C19.3464 38.4271 19.7685 38.2866 20.0498 38.3335C20.847 38.2398 21.5973 37.8652 22.16 37.2564C22.7227 37.3969 23.0041 36.6944 23.5199 37.0223C24.0826 37.4437 25.0674 36.6944 25.255 37.5842C25.1612 38.0057 25.5832 38.7549 24.8798 38.9423C24.2233 38.8486 23.4261 37.9588 22.7696 38.7549C22.6289 38.8954 22.4883 39.1296 22.6289 39.3169C22.7227 39.5042 22.8634 39.7384 22.6758 39.8788C22.4883 40.2066 22.2538 40.5813 22.3945 40.9559C22.5352 41.1901 22.7696 41.1901 23.0041 41.1432C23.3792 41.0027 23.7544 41.3305 24.1295 41.3305C24.4578 41.6115 24.786 41.8925 25.255 41.8925C25.4425 41.7988 25.3956 41.5647 25.5363 41.3774C25.8177 41.1432 26.4273 41.1901 26.4273 40.6749C26.5211 40.3003 26.8493 39.9257 27.1776 39.7384C27.1307 39.8788 27.881 39.6915 28.0686 39.3169Z" fill="black" stroke="black" stroke-width="0.144"/>
<path fill-rule="evenodd" clip-rule="evenodd" d="M15.9235 16.4182C15.689 16.465 15.5952 16.746 15.5483 16.9801C15.5015 17.3079 15.689 17.5889 15.9235 17.7762C16.58 18.104 17.1896 18.6192 17.8461 19.0406H18.0806C17.7523 18.3382 16.9082 18.1509 16.3455 17.5889C16.158 17.3079 16.158 16.9801 16.2049 16.6523C16.2049 16.465 16.0642 16.3714 15.9235 16.4182ZM19.6749 16.4182C19.206 16.746 18.5026 16.5587 18.0806 16.8865C17.7992 17.1206 18.2682 17.4016 17.893 17.6357C17.8461 17.8231 17.9399 17.9167 18.0337 18.0572C18.4557 18.4318 19.0184 18.9001 18.8778 19.5089C18.5495 20.305 18.1275 19.3684 17.6585 19.3216C17.5179 19.3684 17.3772 19.4621 17.3772 19.6494C17.4241 19.7431 17.5179 19.7431 17.6585 19.7431C17.7523 19.7899 17.893 19.8835 17.893 20.024C17.8461 20.3518 17.6116 20.6796 17.2365 20.7733C16.8145 20.9606 16.2986 20.867 15.8766 20.6328C15.6421 20.5392 15.5483 20.2114 15.267 20.2582C14.8918 20.6328 15.2201 21.1011 15.3139 21.4757C14.4229 22.3655 13.7195 23.5362 12.641 24.1918C12.3596 24.3323 12.0314 24.3792 11.7969 24.6133C11.8907 24.707 12.0314 24.7538 12.2189 24.7538C13.1568 24.707 14.0947 24.5665 14.8918 24.0982C15.2201 23.9577 15.4077 23.6299 15.7359 23.5362C16.158 23.7235 15.7828 24.145 15.9704 24.426C16.2049 24.5196 16.2986 24.2855 16.4393 24.145C16.58 24.0514 16.7676 24.0045 16.8145 24.1918C17.1427 25.1284 16.9082 26.2055 16.5331 27.0484C16.7207 27.0953 16.7676 26.8611 16.9082 26.8143C17.5648 25.8777 18.315 24.9879 18.5026 23.864C19.0653 23.6299 19.0184 24.426 19.3467 24.6601C19.6281 24.4728 19.6281 23.9577 19.6749 23.6767C19.7687 23.5831 19.8625 23.5831 19.9563 23.6767C20.2377 24.145 20.5659 24.6601 21.0817 24.9411C21.41 25.0348 21.6914 25.2689 22.0196 25.2221C21.9727 24.8006 21.5038 24.707 21.2693 24.3792C21.1286 24.0514 20.988 23.7704 20.988 23.3957C21.0817 23.1616 21.3631 23.1616 21.5038 23.1148C21.5507 22.787 21.41 22.4592 21.5038 22.1314C21.5507 21.7099 21.2224 20.867 21.8789 20.6796L21.9258 19.6494C21.8789 19.5089 21.6445 19.4153 21.6445 19.2748C21.6445 18.9938 21.9258 18.9001 21.9727 18.7128C22.0665 18.4318 22.1134 18.1977 22.1603 17.9167C22.1603 17.8231 22.0665 17.7294 21.9727 17.7294C21.6445 17.6826 21.7383 17.3548 21.6445 17.2143C20.988 17.027 20.4721 16.4182 19.6749 16.4182ZM8.9833 16.5587C8.9364 16.6055 8.88951 16.6992 8.88951 16.8397C8.84261 16.9801 8.88951 17.1675 9.07708 17.3079C9.17087 17.3548 9.26465 17.4484 9.35844 17.3548C9.40533 17.2611 9.40533 17.1675 9.35844 17.027C9.35844 16.8396 9.12398 16.5118 8.9833 16.5587ZM7.62339 16.7928C7.48271 16.9333 7.67028 17.3079 7.62339 17.5421C7.67028 17.9167 8.13922 17.7762 8.37368 18.0572C8.70193 18.5723 7.95165 18.6192 7.76407 18.9001C7.52961 19.2748 8.04543 19.1343 8.18611 19.4153C8.51436 19.5557 8.70194 19.2279 9.03019 19.2279C9.35844 19.3684 9.54601 19.6962 9.6398 20.0709C9.96805 20.8201 9.31155 21.4289 8.9833 22.0377C9.49912 22.1314 9.87427 21.6162 10.3432 21.4289C10.7183 21.5226 10.3901 21.9909 10.6246 22.225C10.9059 22.4123 11.0935 22.0845 11.3748 22.0845C12.172 22.1314 12.1251 23.0211 12.5941 23.4894C12.6879 23.5362 12.7816 23.5362 12.8754 23.5362C13.3444 23.1148 13.6726 22.5996 14.1415 22.1314C14.2822 21.9909 14.4698 21.7567 14.4229 21.5694C13.063 21.1948 11.8907 20.3987 10.8121 19.4621C10.2963 18.8533 9.78048 18.1509 9.07708 17.8231C8.65504 17.3548 8.2799 16.746 7.62339 16.7928ZM19.4874 16.9333C19.5812 16.9333 19.6281 16.9801 19.7218 17.027C20.0032 17.1675 20.2377 17.4484 20.4721 17.6826C20.519 17.8699 20.3783 18.0104 20.1908 18.0104C19.8625 18.0572 19.5343 18.0104 19.3467 17.7294C19.1122 17.5421 19.2529 17.2611 19.2998 17.027C19.3467 16.9801 19.3936 16.9333 19.4874 16.9333ZM31.4452 17.1675C31.3983 17.3079 31.3514 17.4016 31.3983 17.4953C31.3045 18.7596 30.0383 19.4153 29.0536 19.9772C27.2717 20.8201 25.0208 22.0377 24.8332 24.2387C24.5987 26.5801 27.5999 27.7509 27.2716 30.0923C27.1779 30.6074 26.7558 30.8884 26.4276 31.1694C25.1615 31.544 23.9891 30.7479 23.1919 29.7645C22.1603 28.547 21.6445 27.1421 21.2693 25.6435C20.988 25.3157 20.5659 25.2221 20.3315 24.8475C19.7687 24.5665 19.7687 25.4562 19.2529 25.4562C18.9716 25.5031 19.0653 25.0816 18.784 25.1753L18.0806 26.1587C17.893 26.5333 17.4241 26.7675 17.3772 27.1889C17.5648 27.5635 18.1744 27.4231 18.5964 27.5167C19.206 27.6104 19.5812 28.1255 20.0501 28.4065C20.9411 29.2026 21.2224 30.3265 21.0349 31.4972C20.7535 32.5274 21.1755 33.464 21.4569 34.3538C21.5976 34.7284 21.3631 35.1031 21.1755 35.384C21.0817 35.946 20.8942 36.4611 20.6597 36.9762C20.5659 37.1636 20.3783 37.3977 20.4721 37.585C21.2224 37.4445 21.6914 36.7421 21.9727 36.1333C22.1134 35.946 22.301 36.1333 22.4416 36.2738C22.5823 36.3675 22.6761 36.1801 22.7699 36.1333C22.9106 36.0396 23.0513 36.1801 23.1919 36.2738C23.5202 36.6016 24.0829 36.4611 24.5518 36.5548C25.0677 36.6016 25.5366 36.9294 25.6773 37.3977C25.5835 37.7723 25.818 38.147 25.7711 38.6153C25.4428 39.5518 24.3174 39.6923 23.4733 39.786C23.3326 39.8797 23.0513 39.9733 23.0982 40.2075C23.1919 40.3948 23.3326 40.4416 23.5202 40.5353C23.8953 40.7694 24.0829 40.2075 24.4112 40.2543C24.6925 40.3479 24.4581 40.6289 24.6456 40.8162C24.8801 40.8631 25.0208 40.7694 25.3021 40.7694C25.6304 40.7226 25.818 40.4416 25.818 40.1138C25.9586 39.7392 26.4745 39.6455 26.662 39.2709C26.8027 39.1772 27.0841 39.3177 27.2248 39.1772C26.9434 38.6153 27.1779 38.1001 27.5061 37.6787C27.5999 37.3509 27.5061 36.9762 27.3185 36.6953V36.0865C27.131 35.6182 26.5683 35.665 26.1931 35.4777C25.818 35.1499 25.2084 34.9626 25.1146 34.4006C25.1615 34.307 25.2083 34.2133 25.3021 34.2133C25.818 34.4006 26.4276 34.307 26.9434 34.2601C27.0841 34.307 27.3185 34.3538 27.3185 34.1665C27.2717 34.0728 27.1779 33.9792 27.0372 33.9323C26.1931 33.6514 25.3021 33.6514 24.6456 33.0426C24.4112 32.6211 23.9422 32.2933 23.8953 31.7782C24.3643 31.2631 24.7394 32.0123 25.2552 31.9655C26.0055 32.0592 26.7089 31.8718 27.1779 31.3099C27.4123 31.0757 27.4123 30.6543 27.7875 30.5138C29.1474 30.2796 28.3033 28.7343 29.1474 28.0318C29.2412 27.7977 29.7101 27.7977 29.6163 27.5167C29.1474 27.4699 28.8191 27.704 28.3971 27.7509C28.3033 27.704 28.2095 27.6104 28.1626 27.4699C28.444 26.627 29.2412 25.8777 30.1321 25.5967C30.2259 25.5499 30.4135 25.4094 30.3666 25.3157C29.335 25.3626 28.3033 25.5031 27.6468 26.2992C27.5061 26.3928 27.2717 26.627 27.0841 26.4865C26.8965 26.2992 26.9434 25.9714 26.9434 25.7372C26.9903 25.2689 27.3654 24.8943 27.7406 24.5665C28.2564 24.426 28.444 23.864 28.5847 23.4426C28.5378 23.3489 28.444 23.3957 28.3971 23.3957C28.0688 23.5831 27.6937 23.7236 27.3185 23.864C26.7089 24.0045 26.4745 24.6133 26.24 25.0816C26.1462 25.1284 26.0055 25.1284 25.9117 25.0816C25.4897 24.6133 25.4428 23.9577 25.6304 23.3957C25.9586 21.8972 27.3185 21.0075 28.6316 20.3987C29.1474 20.2114 29.4756 20.6328 29.8977 20.6796C30.8824 20.7265 31.0231 19.4153 32.0079 19.3684C32.0548 19.1343 31.7265 19.0406 31.6327 18.8533C31.5389 18.4787 31.9141 18.2445 31.8672 17.8231C31.8203 17.7294 31.8203 17.3079 31.4452 17.1675ZM21.5507 17.9636C21.6445 17.8699 21.8789 17.9167 21.8789 18.104C21.8789 18.2914 21.7851 18.5255 21.6445 18.666C21.5038 18.7596 21.41 18.7128 21.3631 18.5723C21.3162 18.3382 21.41 18.104 21.5507 17.9636ZM20.0032 19.8367C20.097 19.7899 20.1908 19.8836 20.2846 19.9772L20.2377 20.3987C19.8156 20.9138 19.7687 21.6631 19.1122 21.944C18.9247 21.9909 18.784 21.8504 18.784 21.6631C18.7371 21.3821 18.6902 21.0075 18.784 20.7265C19.0653 20.586 19.1591 21.1479 19.3936 20.9138C19.4405 20.4923 19.8156 20.1645 20.0032 19.8367ZM15.3139 24.5665C15.1732 24.5665 15.0325 24.6133 14.8918 24.6601C13.8602 25.6436 12.8285 26.627 11.5155 27.1421C10.6715 27.2826 10.0618 27.8445 9.21776 27.985C8.79572 28.2192 8.13922 28.3128 8.09232 28.8748C8.2799 28.9684 8.51436 29.0621 8.79572 29.0621C9.12397 29.0621 9.17087 28.6875 9.40534 28.5001C9.54601 28.3596 9.68669 28.4533 9.78048 28.547C9.87427 28.8748 10.2025 28.9216 10.437 29.0153C10.6715 28.9684 10.7183 28.7811 10.7652 28.5938C10.9528 28.2192 11.4686 28.1723 11.8438 28.2192C12.0314 28.1255 12.2189 28.0318 12.4534 28.0318C12.9692 28.1255 12.641 28.7343 12.7348 29.0621C12.8285 29.1557 12.9692 29.0621 13.0161 29.0153C13.3913 28.6406 13.5788 28.1723 13.8133 27.6572C13.9071 27.5635 14.0478 27.3294 14.2353 27.3762C14.7512 27.985 14.7981 27.0484 15.1732 26.9548C15.4546 26.8143 15.8766 27.0484 16.1111 26.7675C16.3924 26.2992 16.3924 25.6436 16.4393 25.1284C16.2986 24.7538 15.9235 25.0816 15.6421 25.0348C15.4077 25.0348 15.4077 24.7538 15.3139 24.5665ZM8.46747 26.8143C8.42058 26.8143 8.42058 26.9079 8.37368 26.9548C8.42058 27.1889 8.32679 27.4699 8.46747 27.6104C8.74883 27.7509 9.12397 27.6572 9.35844 27.4699C9.35844 27.1421 8.98329 27.0953 8.79572 26.9079C8.70194 26.8143 8.56126 26.7675 8.46747 26.8143ZM19.8625 29.8114L18.5495 30.186C17.2365 30.2328 15.689 30.186 14.9387 31.4035L14.1884 31.4972C13.6726 31.7314 13.2037 32.0592 12.6879 32.1996C12.5472 32.2933 12.2658 32.2465 12.2189 32.4806C12.5472 32.7616 13.0161 32.5743 13.4382 32.5743C13.6257 32.6679 13.6726 32.9021 13.7195 33.0894C13.9071 33.1831 14.0947 32.9489 14.2822 32.9957C14.4229 33.0426 14.4698 33.1831 14.5636 33.2767C14.6574 33.9323 15.5015 34.0728 15.7828 34.6816C15.9235 34.8689 15.8297 35.1967 15.689 35.384C15.5015 35.665 15.0794 35.5714 14.7512 35.5714C14.1415 35.5714 13.5788 35.384 13.0161 35.6182C12.1251 35.7587 11.2811 35.1967 10.5308 35.7118C10.4839 35.7587 10.437 35.8992 10.4839 35.9928L11.3748 36.3675C11.5155 36.5079 11.328 36.7421 11.328 36.8826L11.7969 37.0231C12.1251 37.304 12.4534 36.9762 12.7348 36.7889C13.063 36.5548 13.3444 36.8826 13.6257 36.9762C13.8133 37.0699 14.0478 36.9294 14.1884 37.1635C14.376 37.3509 14.2822 37.866 14.6105 37.8192C14.7043 37.585 14.8918 37.304 15.0794 37.1167C15.689 36.5548 16.4862 36.9294 17.2834 36.8357C17.7992 36.7889 17.6585 36.1801 18.0806 35.9928C18.315 35.5714 17.893 35.2904 17.6585 34.9626C17.471 34.5411 17.7523 34.0728 18.0337 33.745C18.5964 33.6514 18.5026 34.3538 18.7371 34.6348C18.8309 34.7284 18.9716 34.8689 19.0653 34.7753C19.1122 34.3538 19.1122 33.9792 19.1122 33.5109C19.2529 32.9021 19.7218 32.3401 20.1439 31.9187C20.3315 31.5909 20.3783 31.3099 20.4252 30.9353C20.4252 30.467 20.3315 29.9518 19.8625 29.8114ZM11.4686 34.4475C11.3748 34.4475 11.2811 34.4475 11.1873 34.4943C11.1404 34.6348 11.2342 34.9157 11.4217 35.0562C11.7031 35.1031 11.9845 35.1499 12.2189 35.0094C12.0314 34.7753 11.7969 34.4943 11.4686 34.4475ZM23.5202 39.1304C23.4733 39.1772 23.4264 39.224 23.4264 39.2709C23.4733 39.3177 23.4733 39.3645 23.614 39.3645C23.6609 39.3645 23.8484 39.4114 23.8484 39.2709C23.7547 39.1772 23.614 39.0835 23.5202 39.1304Z" fill="white"/>
<path fill-rule="evenodd" clip-rule="evenodd" d="M0.401611 11.874H40.0733V14.5901H0.401611V11.874Z" fill="black" stroke="black" stroke-width="0.144"/>
<path fill-rule="evenodd" clip-rule="evenodd" d="M29.8978 12.3428H34.3995V14.0755H29.8978V12.3428ZM20.0971 12.3428H24.5988V14.0755H20.0971V12.3428ZM10.2026 12.3428H14.7044V14.0755H10.2026V12.3428ZM0.87085 12.3428H4.95056V14.0755H0.87085V12.3428Z" fill="white"/>
<path fill-rule="evenodd" clip-rule="evenodd" d="M6.8731 2.2751C8.18611 1.71315 9.68669 2.13461 11.1404 2.04095C11.5155 2.13461 12.0782 1.85364 12.3127 2.2751C12.3127 2.69656 12.3127 3.11802 12.3596 3.53949C12.5003 3.82046 12.9223 3.58632 13.1568 3.77363C13.2975 3.86729 13.4381 3.91412 13.485 4.10144C13.5788 4.28875 13.5319 4.5229 13.3913 4.71022C13.1099 4.9912 12.7816 4.89754 12.4065 4.9912L12.3127 5.08486C12.3596 5.88095 12.172 6.58339 12.3127 7.33266C12.2658 7.47315 12.2189 7.7073 12.4065 7.80095C12.7816 7.80095 13.1568 7.80095 13.4381 8.0351C13.5319 8.22242 13.5319 8.45656 13.485 8.69071C13.3444 9.4868 12.0782 8.59705 12.2189 9.53364C12.2189 9.86144 12.3127 10.3766 12.172 10.7044C10.7183 10.7044 9.21776 10.6107 7.85785 10.6575C7.62339 10.8917 7.29513 11.0322 6.96688 11.0322C6.68552 10.9853 6.45106 10.798 6.21659 10.6575C4.90358 10.6107 3.59057 10.6107 2.32445 10.5639C1.90241 10.2361 2.23066 9.67412 2.08999 9.159C1.85552 8.92485 1.52727 9.11217 1.2928 8.97169C1.10523 8.92486 1.05834 8.73754 0.964551 8.59705C0.964551 8.31607 0.964551 8.08193 1.19902 7.89461C1.43348 7.75412 1.71484 7.75412 1.9962 7.75412L2.13688 7.61363C2.04309 6.72388 2.27756 5.88095 2.08999 4.94437C1.94931 4.75705 1.71484 4.89754 1.52727 4.80388C1.2928 4.75705 1.05834 4.66339 0.964551 4.38242C0.917657 4.14827 0.870763 3.96095 1.05834 3.77363L2.13688 3.49266L2.23067 2.18144C2.46513 1.80681 2.93407 1.99412 3.30921 1.99412C3.96572 1.85363 4.7629 1.94729 5.4663 1.99412C5.98213 1.99412 6.45106 2.08778 6.8731 2.2751Z" fill="black" stroke="black" stroke-width="0.149339"/>
<path fill-rule="evenodd" clip-rule="evenodd" d="M7.48249 9.90661C7.52938 10.1408 7.52938 10.3749 7.34181 10.5154C7.24802 10.6559 7.01356 10.6559 6.87288 10.609C6.7322 10.5622 6.6853 10.3749 6.63841 10.2812C6.59152 10.0003 6.87288 9.90661 7.06045 9.67246C7.24802 9.67246 7.3887 9.81295 7.48249 9.90661ZM3.12142 2.46075C2.88695 2.64807 2.5587 2.97588 2.65249 3.30368L2.74627 9.67246L2.93385 9.90661C3.9655 9.90661 5.13783 9.81295 6.16948 10.0003C6.21637 10.0471 6.21637 10.0939 6.21637 10.1408C5.93501 10.2344 5.60676 10.1876 5.3254 10.1876L2.5587 10.1408C2.37113 10.0003 2.46491 9.5788 2.46491 9.39149C2.46491 9.11051 2.5587 8.78271 2.23045 8.64222C1.8553 8.54856 1.48016 8.68905 1.24569 8.36124C1.43326 7.84612 2.27734 8.26758 2.46491 7.6588C2.5587 6.67539 2.37113 5.64514 2.41802 4.70856C2.32423 4.14661 1.71462 4.33392 1.33948 4.24027C1.29258 4.19344 1.1988 4.09978 1.24569 4.00612C1.57394 3.67831 2.23045 4.05295 2.46491 3.63148C2.5587 3.21002 2.51181 2.78856 2.5587 2.41393C2.69938 2.27344 2.93385 2.27344 3.12142 2.32027V2.46075ZM11.9373 2.46075C12.0311 2.88222 11.8436 3.44417 12.078 3.86563C12.3594 4.00612 12.7345 3.95929 13.0159 4.00612C13.1097 4.09978 13.1097 4.2871 13.0628 4.38075C12.7814 4.66173 12.1249 4.28709 11.9842 4.80222C11.9842 5.83246 11.9373 6.86271 12.0311 7.93978L12.1718 8.08026C12.5001 8.12709 12.969 7.98661 13.2035 8.26759C13.2504 8.40807 13.2035 8.59539 13.0628 8.64222C12.7345 8.73588 12.2187 8.54856 12.0311 8.92319C11.9373 9.34466 12.078 9.76612 11.9373 10.2344L11.7498 10.3281L7.95142 10.2812C7.85763 10.2344 7.95142 10.1876 7.99832 10.1408L8.37346 10.0003L11.4215 10.0471C11.7498 9.95344 11.7498 9.57881 11.7498 9.34466L11.7029 5.08319C11.656 4.33393 11.7967 3.67832 11.656 2.97588C11.6091 2.83539 11.3746 2.6949 11.3746 2.50758C11.5622 2.32027 11.8436 2.32026 11.9373 2.46075ZM11.0933 9.53197C10.9995 9.67246 10.765 9.62563 10.6243 9.67246H9.78026C9.07686 9.62563 8.37346 9.5788 7.76385 9.71929C7.67006 9.71929 7.52938 9.62563 7.52938 9.48514C7.62317 9.251 7.90453 9.34465 8.13899 9.251C8.98307 9.29783 9.96783 9.20417 10.765 9.251C10.9057 9.29783 11.0464 9.39149 11.0933 9.53197ZM11.4215 2.92904C11.3746 5.13002 11.4684 7.23734 11.3746 9.20417C11.3277 9.29783 11.2339 9.15734 11.1402 9.11051C10.9995 8.78271 11.0933 8.36124 11.0933 8.08026C10.9995 6.34758 11.0933 4.56807 11.0933 2.78856C11.1871 2.64807 11.3746 2.83539 11.4215 2.92904ZM6.6853 2.60124L6.77909 2.83539C6.82598 4.6149 6.82599 6.48807 6.82599 8.36124L6.77909 9.06368C6.31016 9.11051 5.84122 8.82953 5.37229 8.92319C4.85647 8.87636 4.29375 8.97002 3.82482 8.82954C3.54346 8.22076 3.73103 7.61197 3.68414 6.90953C3.73103 5.55148 3.73103 3.91246 3.73103 2.46075C3.73103 2.36709 3.87171 2.32027 3.9655 2.27344C4.90336 2.3671 5.93501 2.13295 6.6853 2.60124ZM10.7181 2.46075C10.7181 4.66173 10.7181 6.72222 10.6712 8.82954C9.59268 8.92319 8.37346 8.73588 7.29492 9.06368C7.06045 8.82954 7.24802 8.50173 7.20113 8.22075C7.15424 7.51831 7.20113 6.72222 7.15424 6.01978C7.20113 4.98954 7.10734 3.77198 7.20113 2.78856C7.34181 2.46076 7.71696 2.36709 8.0921 2.36709L10.6243 2.41393L10.7181 2.46075ZM6.59152 9.43832C6.63841 9.57881 6.49773 9.71929 6.35705 9.76612C5.51297 9.53197 4.57511 9.67247 3.63724 9.57881L3.59035 9.53197C3.63725 9.39149 3.77792 9.251 3.9655 9.251C4.90336 9.20417 5.79433 9.20417 6.59152 9.43832ZM3.40278 2.6949C3.49656 4.89587 3.35588 6.95636 3.44967 9.01685C3.40278 9.11051 3.30899 9.251 3.16831 9.251C3.02763 8.59539 3.02763 7.93978 3.07453 7.23734C3.02763 5.87929 3.02763 4.33393 3.02763 2.97588C3.07452 2.88222 3.2621 2.74173 3.40278 2.6949Z" fill="white"/>
<path fill-rule="evenodd" clip-rule="evenodd" d="M25.0675 1.9945C25.2081 1.94767 25.3957 2.08816 25.5364 2.18182L25.6302 3.5867C26.0053 3.72719 26.4743 3.63353 26.6618 4.05499C26.7556 4.24231 26.7556 4.57011 26.6149 4.7106C26.3336 5.03841 25.724 4.75743 25.5364 5.13207C25.4895 6.11548 25.4426 6.77109 25.5364 7.66085C25.8178 7.94182 26.2867 7.70767 26.5212 8.08231C26.6618 8.2228 26.7087 8.41012 26.6618 8.64426C26.4274 8.97207 26.0053 8.97207 25.6302 9.06572C25.4895 9.20621 25.6302 9.44036 25.5364 9.62768C25.3957 9.95548 25.724 10.4238 25.3019 10.6111C24.1765 10.7516 23.1448 10.5643 22.0194 10.6579L20.9409 10.7048C20.6595 10.8921 20.2844 11.173 19.9092 10.9857L19.2527 10.7048C18.4555 10.7516 17.7052 10.6579 16.908 10.7048C16.3453 10.6579 15.595 10.9389 15.2668 10.4238C15.2668 10.0023 15.3606 9.58085 15.2199 9.11256C14.7978 8.97207 14.1413 9.15939 13.9069 8.64426C13.86 8.50378 13.9069 8.26963 13.9538 8.12914C14.2351 7.70768 14.9385 8.08231 15.2199 7.70768L15.173 6.53695C15.2668 5.975 15.1261 5.5067 15.1261 4.99158C14.7041 4.85109 14.0007 5.03841 13.9538 4.42963C13.9069 4.10182 14.0944 3.82085 14.3758 3.77402C14.6572 3.68036 15.0323 3.82085 15.173 3.5867L15.2668 2.32231C15.595 1.76036 16.3453 2.08816 16.8611 2.04133L19.2996 2.08817C19.6747 2.135 20.0499 2.50963 20.425 2.27548C21.9256 1.61987 23.5669 2.13499 25.0675 1.9945Z" fill="black" stroke="black" stroke-width="0.149339"/>
<path fill-rule="evenodd" clip-rule="evenodd" d="M25.208 2.46078C25.208 2.92908 25.1611 3.39737 25.3017 3.86566C25.63 4.14664 26.521 3.72518 26.3334 4.47444C26.052 4.66176 25.63 4.52127 25.3017 4.5681L25.208 4.66177C25.0673 5.73884 25.3017 6.86274 25.208 7.79933C25.2548 7.89298 25.3017 8.0803 25.4424 8.12713C25.7238 8.17396 26.1927 7.93981 26.2865 8.31444C26.2396 8.97005 25.3955 8.36128 25.208 8.8764C25.1142 9.34469 25.3486 9.76615 25.1611 10.2344L25.0204 10.3281C23.6605 10.2813 22.3006 10.2813 21.0345 10.2813C20.9876 10.2344 20.9876 10.1876 21.0813 10.1408L21.3158 10.0003L24.6921 9.90664C24.8328 9.85981 24.9735 9.76616 24.9735 9.57884C24.9735 7.51835 25.0204 5.41103 25.0204 3.1164C24.9735 2.78859 24.6452 2.60128 24.5983 2.3203C24.7859 2.36713 25.1142 2.22664 25.208 2.46078ZM16.2982 2.36713C16.2513 2.60127 16.0169 2.69494 15.9231 2.88225C15.7824 3.30372 15.97 3.72518 15.8762 4.19347L15.9231 9.62566C15.9231 9.76615 16.0169 9.90664 16.1576 9.95347L19.0649 10.0003C19.2056 10.0471 19.3932 10.094 19.5339 10.1876C19.487 10.3281 19.2525 10.2813 19.1118 10.3281C18.0333 10.2813 16.861 10.3749 15.8293 10.2344L15.7355 10.1408C15.6886 9.6725 15.7824 9.15737 15.5479 8.73591C15.2197 8.59542 14.8445 8.73591 14.4694 8.64225C14.3287 8.54859 14.3756 8.36127 14.4694 8.22079C14.7977 8.03347 15.5011 8.31444 15.6886 7.84615C15.6417 6.81591 15.7355 5.78566 15.6886 4.70859C15.4073 4.28713 14.7977 4.66176 14.5163 4.28713C14.6101 3.67835 15.5011 4.19347 15.7355 3.67835L15.8293 2.41396C15.8762 2.3203 16.1107 2.36713 16.2982 2.36713ZM20.5655 10.1876C20.5655 10.4218 20.5186 10.6559 20.2842 10.6559C20.0966 10.7027 19.8152 10.6559 19.8152 10.3749C19.8621 10.1876 20.0497 10.0471 20.2373 9.90664C20.4248 9.85981 20.5186 10.0471 20.5655 10.1876ZM16.6734 2.74176C16.7672 4.61493 16.5796 6.25396 16.6734 8.12713C16.5327 8.54859 16.861 9.15737 16.2513 9.29786C16.1576 7.42469 16.2045 5.45786 16.1576 3.4442C16.1107 3.1164 16.2982 2.83542 16.5796 2.64811L16.6734 2.74176ZM24.6921 3.06957C24.6452 5.13005 24.739 7.33103 24.5983 9.29786C24.5046 9.34469 24.3639 9.2042 24.317 9.06371C24.2701 8.22079 24.2232 7.37786 24.2701 6.53494C24.317 5.3642 24.1763 4.00615 24.317 2.83542C24.4577 2.74176 24.6921 2.92908 24.6921 3.06957ZM19.7683 9.43835C19.8621 9.48518 20.0028 9.57883 19.909 9.71932L19.6745 9.90664C18.7367 9.57884 17.5644 9.81298 16.5327 9.62566C16.6265 9.48518 16.6734 9.34469 16.8141 9.25103C17.7988 9.29786 18.8305 9.15737 19.7683 9.43835ZM24.0356 9.29786C24.1763 9.39152 24.317 9.53201 24.317 9.62566L24.1763 9.6725C23.0509 9.71933 21.8785 9.53201 20.8469 9.81298C20.7062 9.85981 20.5186 9.81298 20.4717 9.62566C20.5655 9.39152 20.8938 9.29786 21.1751 9.29786C22.1599 9.2042 23.0978 9.29786 24.0356 9.29786ZM23.9418 2.55445C23.8949 4.66177 23.9887 6.81591 23.8949 8.8764L23.8012 8.92322C22.6288 9.01688 21.5034 8.73591 20.4717 9.11055C20.2842 9.01689 20.4248 8.68908 20.3779 8.50176V2.92908C20.3779 2.74176 20.5186 2.60128 20.6593 2.50762C20.9407 2.3203 21.3627 2.36713 21.7379 2.3203L23.848 2.36713L23.9418 2.55445ZM20.0497 6.76908C20.1435 5.69201 20.0966 4.47445 20.0966 3.4442C20.0966 3.1164 20.1435 2.74176 19.8621 2.50762C19.0649 2.17981 18.0333 2.36713 17.1423 2.3203C17.0954 2.36713 17.0016 2.27347 17.0016 2.41396L16.9547 8.59542L17.0016 8.82957C17.6581 8.92323 18.3146 8.8764 18.9712 8.8764C19.2994 8.92323 19.6746 9.01689 20.0028 9.11055C20.0497 8.36128 20.0966 7.79933 20.0497 7.09689V6.76908Z" fill="white"/>
<path fill-rule="evenodd" clip-rule="evenodd" d="M38.2445 2.08775C38.5728 2.50922 38.3383 3.07117 38.4321 3.53946C38.7604 3.82043 39.5106 3.49263 39.6044 4.19507C39.6513 4.47605 39.5106 4.66336 39.37 4.80385C39.1355 5.03799 38.7135 4.80385 38.479 5.08483C38.3852 5.88092 38.479 6.77068 38.479 7.70727C38.7135 7.84776 39.0417 7.84775 39.3231 7.98824C39.4638 8.12873 39.6044 8.31604 39.6044 8.55019C39.5575 8.78434 39.4638 8.92482 39.2293 9.01848C38.9948 9.11214 38.6197 9.01848 38.5259 9.29946C38.4321 9.72092 38.5728 10.1892 38.479 10.6575C38.1976 10.798 37.8225 10.798 37.4942 10.798L34.3524 10.7043C34.071 10.8448 33.7428 11.1726 33.3207 10.9853C32.6642 10.5639 31.7264 10.7043 30.9761 10.6575L28.6314 10.6107C28.2094 10.236 28.5376 9.58043 28.397 9.15897C28.2563 8.878 27.7873 8.97166 27.5529 8.878C27.3184 8.78434 27.2715 8.50336 27.2715 8.26922C27.3184 7.98824 27.5529 7.84775 27.7873 7.80092C27.9749 7.70727 28.3501 7.89458 28.397 7.6136C28.397 6.77068 28.3501 5.97458 28.3501 5.17848C28.3032 4.71019 27.6467 4.99116 27.3653 4.80385C27.1308 4.66336 27.0839 4.33555 27.1308 4.10141C27.3653 3.63312 27.8811 3.7736 28.3032 3.63312L28.3501 3.49263L28.397 2.08775L28.5376 1.99409L32.2422 2.08775C32.6642 2.08775 33.0394 2.27507 33.4614 2.41556C34.2586 1.80678 35.384 2.13458 36.3219 1.94727L38.2445 2.08775Z" fill="black" stroke="black" stroke-width="0.149339"/>
<path fill-rule="evenodd" clip-rule="evenodd" d="M32.9927 9.48518C33.0864 9.53201 33.0864 9.67251 32.9927 9.67251C32.6644 10.0471 32.2893 9.57885 31.8203 9.67251L29.6163 9.57885C29.8039 8.97007 30.648 9.3447 31.1169 9.25104C31.7734 9.3447 32.4768 9.15738 32.9927 9.48518ZM36.9786 9.3447C37.1193 9.43836 37.2599 9.57885 37.2599 9.67251C36.1814 9.81299 35.1029 9.53202 34.0243 9.813C33.8836 9.76617 33.7898 9.62567 33.8836 9.48518C34.1181 9.25104 34.4463 9.29787 34.7746 9.25104L36.9786 9.3447ZM33.7898 10.094C33.8367 10.3281 33.8367 10.7027 33.5085 10.7027C33.274 10.7496 33.0864 10.6091 33.0395 10.4218C32.9927 10.1408 33.1333 9.90665 33.3209 9.813C33.6023 9.76617 33.6961 9.95348 33.7898 10.094ZM29.2881 2.41397C29.2412 2.60129 28.9598 2.78861 28.8661 3.02275C28.9129 5.22373 28.8661 7.61202 28.9598 9.90665L29.1474 10.0003C30.3197 10.0471 31.5859 9.76616 32.6175 10.2345C32.6644 10.2813 32.6644 10.2813 32.6175 10.2813C31.3045 10.2345 30.0384 10.3749 28.7723 10.2345L28.6785 10.094C28.6316 9.62567 28.7254 9.15738 28.5378 8.73592C28.2564 8.45495 27.3655 8.82958 27.5999 8.2208C27.9282 7.98665 28.444 8.31446 28.6316 7.89299C28.6316 6.76909 28.6785 5.78567 28.5847 4.7086C28.3502 4.3808 27.8813 4.61495 27.553 4.52129C27.4593 4.42763 27.3655 4.24031 27.4593 4.09982C27.7875 3.81884 28.8192 4.19348 28.6316 3.35055C28.7254 3.02275 28.4909 2.32031 28.9598 2.32031C29.0536 2.36714 29.1943 2.32031 29.2881 2.41397ZM38.0571 2.46079C38.1509 2.97592 37.9633 3.49104 38.2447 3.95934C38.573 4.053 39.0888 3.86568 39.2295 4.19348C39.1826 4.84909 38.3385 4.33397 38.104 4.84909C38.1978 5.87933 38.0102 6.72226 38.1509 7.79934C38.0571 7.89299 38.0102 7.98665 38.104 8.08031C38.3854 8.31445 38.7605 7.93982 39.0888 8.17397C39.2764 8.2208 39.1826 8.40812 39.1826 8.50177C38.9481 8.82958 38.3385 8.45494 38.1978 8.92323L38.104 10.2345L37.9164 10.3281L34.3526 10.2813C34.3057 10.2345 34.3057 10.1876 34.3995 10.1876L34.8215 10.0471H37.5413C37.682 10.0003 37.8696 9.90665 37.8696 9.71933C37.8227 7.51836 37.8227 5.31738 37.8227 3.06958L37.4944 2.41397C37.5882 2.32031 37.9633 2.27348 38.0571 2.46079ZM29.6632 3.30372V9.06372C29.6163 9.20421 29.4288 9.29787 29.335 9.43836L29.2412 9.3447C29.2412 8.73592 29.2881 8.03348 29.2412 7.4247V6.95641C29.1943 5.69202 29.1943 4.28714 29.2412 3.02275C29.335 2.92909 29.4757 2.69495 29.5695 2.64812C29.6632 2.92909 29.6163 3.06958 29.6632 3.30372ZM37.5413 3.02275C37.4944 4.52129 37.4944 5.97299 37.5882 7.37787C37.5413 8.03348 37.5413 8.64226 37.5413 9.25104C37.4944 9.29787 37.4944 9.3447 37.4475 9.3447C36.9786 9.15739 37.1662 8.64226 37.1193 8.26763C37.1662 7.70568 37.0724 7.05007 37.1662 6.48811L37.0724 6.3008L37.1193 2.78861C37.213 2.55446 37.4475 2.88226 37.5413 3.02275ZM36.8379 3.11641C36.8379 2.88226 36.8848 2.55445 36.7441 2.36714L35.7594 2.32031C35.056 2.41397 34.2588 2.22665 33.6961 2.55446C33.4147 2.88226 33.5554 3.25689 33.5085 3.63153C33.5554 3.86567 33.6492 4.09982 33.6961 4.33397L33.5554 4.61494L33.1333 4.52129L33.0395 4.28714C33.0864 4.09982 33.1333 3.95933 33.1802 3.77202C33.1333 3.30372 33.3209 2.60129 32.7113 2.41397C31.8203 2.32031 30.9762 2.32031 30.0853 2.32031C30.0384 2.32031 29.9446 2.36714 29.9446 2.41397L29.9915 8.31445C29.9915 8.5486 29.8977 8.87641 30.1791 8.97007C30.9763 8.87641 31.6796 9.01689 32.4299 8.92323C32.7113 8.92323 32.8989 9.20422 33.2271 9.11056C33.3209 8.26763 33.3209 7.28421 33.274 6.34763C33.2271 6.25397 33.274 6.06665 33.1802 6.06665V5.87933L33.6492 5.92616L33.6961 6.06665L33.6492 6.11348L33.6023 8.87641C33.6492 8.97007 33.6492 9.15738 33.7898 9.15738C34.6339 8.68909 35.6656 9.0169 36.6034 8.87641L36.8379 8.78275C36.9317 8.31445 36.8848 6.67543 36.8848 6.67543C36.8379 5.59836 36.8379 4.3808 36.8379 3.11641ZM33.6023 5.69202C33.5554 5.83251 33.3209 5.8325 33.1802 5.78568L33.0395 5.73884C33.1333 5.45787 33.0395 5.08324 33.274 4.89592C33.5085 4.98958 33.4616 5.36421 33.6023 5.69202Z" fill="white"/>
<path fill-rule="evenodd" clip-rule="evenodd" d="M19.7685 6.72336C19.4403 6.44239 19.3465 6.06775 19.112 5.73994C19.2058 5.59946 19.3934 5.55263 19.5341 5.41214C19.7685 5.22482 19.9561 4.89702 19.8623 4.56921C19.8154 4.28824 19.7216 4.00726 19.4403 3.91361C18.8776 3.72629 18.1273 3.77312 17.5645 3.81995C17.4708 3.86678 17.4239 3.96044 17.5177 4.05409C17.7521 4.14775 17.799 4.28824 17.8459 4.47555C17.799 5.22482 17.799 5.92726 17.7521 6.67653L17.4708 7.00434C17.7521 7.28532 18.1742 7.05116 18.5962 7.14482C18.69 6.9575 18.4086 6.81702 18.3617 6.6297C18.4086 6.39556 18.3617 6.11458 18.5024 5.92727C18.9244 6.25507 19.0651 6.81702 19.5341 7.14482L20.1906 7.19165V6.86385C20.003 6.86385 19.8623 6.72336 19.7685 6.72336ZM18.9244 5.36532C18.7369 5.36532 18.4555 5.5058 18.4086 5.27165C18.4555 4.94385 18.2679 4.47556 18.4086 4.14775C18.6431 3.96043 19.0182 4.05409 19.2058 4.28824C19.2996 4.47556 19.2996 4.7097 19.2996 4.94385C19.2058 5.13116 19.1589 5.31849 18.9244 5.36532ZM33.6958 6.11458C33.7896 6.25507 33.8834 6.44239 33.8365 6.6297L33.602 6.91068L33.7427 7.00434C34.071 6.95751 34.493 7.098 34.7744 6.95751C34.6806 6.81702 34.493 6.72336 34.3992 6.6297C34.0241 5.64629 33.7427 4.61605 33.4614 3.5858L33.1331 3.72629C32.9455 4.61605 32.5704 5.45897 32.3359 6.39556C32.289 6.58288 32.1014 6.58287 31.9608 6.72336C31.7732 6.77019 31.6794 6.58287 31.6325 6.44238C31.5856 5.64629 31.7263 4.94385 31.6794 4.10092C31.6325 3.96043 31.8201 3.81995 31.9608 3.96044C32.1952 4.0541 32.1483 4.33507 32.2421 4.52239C32.289 4.61605 32.4297 4.61604 32.4297 4.47555L32.5704 3.63263C32.4766 3.35165 32.2421 3.67946 32.0077 3.63263C31.5856 3.5858 31.0229 3.72629 30.6478 3.49214C30.3195 3.5858 30.4133 4.05409 30.3664 4.33507C30.3195 4.3819 30.3664 4.42873 30.4133 4.47555C30.6947 4.33507 30.7884 3.86677 31.2105 4.00726L31.2574 4.80336L31.1636 6.53605C31.0698 6.67653 30.7884 6.72336 30.8353 6.91068C31.3043 7.05116 31.867 6.91068 32.3359 6.95751C32.6173 7.00434 32.8986 7.05117 33.1331 6.95751C33.18 6.91068 33.18 6.81702 33.0862 6.77019C32.9455 6.67653 32.7111 6.53604 32.8048 6.34873C32.8986 6.20824 32.8986 5.92726 33.18 6.02092C33.2269 6.02092 33.2738 6.06775 33.2738 6.11458L33.6489 6.16141C33.6489 6.16141 33.6489 6.11458 33.6958 6.11458ZM33.1331 5.73994L32.9924 5.69312C33.0862 5.41214 32.9924 5.03751 33.2269 4.85019C33.4614 4.99068 33.4614 5.36531 33.5551 5.69312C33.5082 5.83361 33.2738 5.8336 33.1331 5.73994ZM36.1812 3.91361C36.1812 4.10092 36.3218 4.47556 36.1343 4.61604C35.9467 4.42873 35.8998 4.28824 35.6184 4.19458C35.4778 4.19458 35.2902 4.24141 35.2433 4.42873C35.1964 4.99068 35.7591 4.99068 36.0874 5.36532C36.4156 5.64629 36.5094 6.16141 36.4156 6.53605C36.2749 6.86385 36.1343 7.05116 35.8529 7.05116C35.5715 7.09799 35.384 6.91068 35.1495 7.00434C35.1026 7.00434 35.0088 7.05117 34.915 6.95751L34.9619 5.88043C35.0088 5.8336 35.0557 5.78678 35.1026 5.78678C35.2433 6.11458 35.1495 6.53604 35.6653 6.58287C35.806 6.53604 35.9467 6.53605 35.9936 6.3019C36.0405 5.36532 34.7744 5.59946 34.8213 4.61604C34.8681 4.3819 34.8681 4.19458 35.0088 4.00726C35.2433 3.63263 35.7122 3.86677 36.0405 3.63263C36.1343 3.67946 36.1343 3.86678 36.1812 3.91361ZM22.6759 3.86677C22.3945 4.00726 22.1132 4.19458 22.207 4.61604C22.1132 5.27165 22.1601 5.92727 22.1601 6.6297L22.5821 7.00434L22.5352 7.05116C22.0663 7.05116 21.6443 7.14482 21.1753 7.05116C20.9878 6.86385 21.4098 6.72336 21.5036 6.58287C21.5974 5.8336 21.6443 5.03751 21.5974 4.19458C21.5036 3.96044 21.1284 4.05409 21.2222 3.81995C21.6443 3.77312 22.1601 3.77312 22.5821 3.81995L22.6759 3.86677ZM9.59269 4.3819C9.31134 4.7097 9.26444 4.10092 8.98308 4.05409C8.8424 4.05409 8.56105 3.96043 8.46726 4.10092C8.42037 4.47555 8.37347 4.75653 8.46726 5.08434C8.56105 5.178 8.79551 5.13117 8.93619 5.13117C9.07687 5.03751 9.17066 4.7097 9.40512 4.75653C9.5458 4.89702 9.35823 5.08434 9.45202 5.22483C9.40512 5.41214 9.59269 5.69311 9.35823 5.73994C9.21755 5.64629 9.12376 5.36532 8.8893 5.36532L8.51415 5.41214C8.37347 5.88043 8.42037 6.34873 8.51415 6.77019C8.70173 6.95751 8.98308 6.77019 9.21755 6.77019C9.5458 6.67653 9.49891 6.20824 9.78027 6.25507C9.87405 6.44239 9.87405 6.72336 9.82716 6.95751L9.68648 7.05116L7.76386 7.00434C7.67007 6.95751 7.4825 6.95751 7.57629 6.86385C8.1859 6.48922 7.85765 5.73995 7.90454 5.17799C7.81075 4.75653 8.13901 4.10092 7.57629 3.81995C7.52939 3.67946 7.71697 3.72629 7.81075 3.67946C8.27969 3.67946 8.93619 3.86678 9.31134 3.44531C9.5927 3.72629 9.59269 4.10092 9.59269 4.3819ZM6.68532 3.96044C6.1226 4.3819 6.1226 5.13116 5.88813 5.73994C5.65367 6.06775 5.79435 6.58287 5.4192 6.91068C5.27852 6.9575 5.18473 6.81702 5.13784 6.72336C4.95026 5.88043 4.7158 5.08434 4.38755 4.28824C4.34065 4.05409 3.77794 4.00727 4.10619 3.81995C4.52823 3.77312 4.80959 3.86678 5.18473 3.81995C5.27852 4.05409 4.90337 4.19458 4.99716 4.47555C5.23163 4.80336 5.13784 5.36531 5.46609 5.69312L5.60677 5.55263C5.60677 4.94385 6.31017 4.3819 5.74745 3.81995C5.88813 3.5858 6.31017 3.72629 6.54463 3.67946C6.63842 3.77312 6.82599 3.81995 6.68532 3.96044Z" fill="black"/>
</svg>
