<svg width="28" height="60" viewBox="0 0 28 60" fill="none" xmlns="http://www.w3.org/2000/svg">
<path d="M0.156691 57.7191C1.49516 57.4601 2.82639 57.0825 4.22712 56.565C4.24387 56.5581 4.28545 56.5169 4.29848 56.48C4.4381 56.0629 4.48484 55.6427 4.44182 55.1953C4.16755 52.3391 6.10834 49.3295 9.05603 48.0392C9.1187 48.0113 9.18407 47.9872 9.25936 47.9602L9.32927 47.9348C9.39566 47.91 9.47654 47.9203 9.53011 47.958C9.58803 47.9972 9.61678 48.061 9.60499 48.125L9.52432 48.5629C9.45275 48.9505 9.38263 49.3297 9.31541 49.7093L9.29845 49.8086C9.10919 50.8873 8.91352 52.0028 8.53231 53.0745C8.18833 54.0414 7.65758 54.8043 6.91936 55.3889C8.47894 54.583 9.93221 53.6145 11.2521 52.5006C11.2798 52.4772 11.3127 52.4152 11.3174 52.3641L11.3528 51.5997C11.353 51.5725 11.3534 51.5004 11.3358 51.4646C10.6857 50.1374 10.5192 48.6434 10.8264 46.8976C11.1226 45.2138 11.9429 43.6654 13.2648 42.2952C13.4196 42.1348 13.5561 42.0536 13.6707 42.0536C13.6986 42.0536 13.7238 42.0585 13.7437 42.0676C13.8045 42.094 13.8456 42.1453 13.8537 42.2046L13.8891 42.4712C13.9164 42.6692 13.9427 42.8635 13.9662 43.0582C14.007 43.4011 14.0517 43.7436 14.0965 44.0862L14.103 44.1356C14.2147 44.991 14.3305 45.8756 14.3917 46.7613C14.4629 47.7945 14.4418 49.0012 13.7449 50.1175C13.7412 50.1231 13.7379 50.1291 13.7342 50.1347C14.7028 49.0732 15.587 47.9308 16.3759 46.7203C16.4456 46.6127 16.4516 46.5182 16.4386 46.3812C16.3826 45.8017 16.0752 45.3307 15.7515 44.9084C15.1262 44.0905 14.7477 43.1238 14.5241 41.7737C14.2115 39.8856 14.5272 37.9916 15.4617 36.1437C15.4873 36.0928 15.5173 36.0437 15.5494 35.9909L15.6224 35.8702C15.6574 35.8113 15.732 35.7725 15.8108 35.7756C15.8894 35.7792 15.9587 35.8229 15.9873 35.8863C16.214 36.3874 16.4332 36.8701 16.651 37.3492L16.7902 37.6553C17.2548 38.6779 17.7758 39.8717 18.0787 41.1034C18.2921 41.9726 18.3051 42.8115 18.118 43.6101C18.8444 42.0949 19.4415 40.4938 19.8989 38.8336C19.904 38.8151 19.9057 38.7672 19.8604 38.6568C19.6465 38.1438 19.257 37.6787 18.7635 37.3472C17.6832 36.621 17.0703 35.6117 16.6134 34.7202C15.6778 32.897 15.4241 30.9602 15.8377 28.7986C15.8421 28.7759 15.8499 28.7535 15.8592 28.729L15.8667 28.7094C15.8847 28.661 15.9256 28.6219 15.9798 28.6014C16.0328 28.582 16.0994 28.5856 16.1405 28.6034C16.1819 28.6166 16.2446 28.6367 16.2853 28.6891C16.5195 28.9632 16.7571 29.2398 16.995 29.5162L17.0349 29.5628C17.6348 30.2609 18.2551 30.9823 18.8512 31.701C19.5418 32.5314 20.0296 33.3386 20.3425 34.1688C20.4935 34.5698 20.5922 34.9557 20.6387 35.3306C20.8375 33.9836 20.9502 32.6083 20.9748 31.2216C20.9806 30.8906 20.9326 30.6276 20.6747 30.3395C20.4017 30.0325 20.1466 29.861 19.795 29.7479C18.3502 29.2853 17.4234 28.3077 16.7774 27.5078C15.7339 26.2137 15.1219 24.7079 14.9063 22.9043C14.8834 22.7187 14.8703 22.5309 14.8569 22.3322L14.8536 22.2871C14.8472 22.1905 14.8403 22.0899 14.8317 21.9833C14.8263 21.9126 14.8695 21.8463 14.9417 21.8142C15.0116 21.7834 15.1012 21.7924 15.162 21.8375L15.3335 21.9663C15.398 22.0145 15.4532 22.0558 15.5105 22.096C15.7858 22.2898 16.0622 22.4816 16.3391 22.6739L16.3681 22.6939C16.976 23.1158 17.6048 23.5522 18.2052 24.0028C19.3704 24.8736 20.1206 25.7404 20.5663 26.7311C20.64 26.8944 20.7045 27.0559 20.7599 27.2158C20.5767 25.6416 20.279 24.0914 19.8703 22.5875C19.8207 22.4035 19.793 22.3495 19.691 22.3201C19.6269 22.3011 19.5671 22.2644 19.5234 22.2191C19.227 21.9238 18.8367 21.8771 18.4586 21.8704C17.1969 21.8444 16.1962 21.2928 15.3839 20.7567C13.3923 19.4421 12.0209 16.1068 12.0209 15.9937C12.0209 15.9348 12.0544 15.8798 12.1113 15.8467C12.1673 15.8142 12.243 15.8097 12.3001 15.832C12.7151 15.9862 13.13 16.1365 13.5596 16.2922C14.5048 16.6357 15.4822 16.9906 16.4208 17.3787C17.3655 17.7705 18.112 18.2943 18.6456 18.9389C18.137 17.6724 17.5473 16.4307 16.887 15.2374C16.8111 15.1087 16.4545 14.972 15.9432 14.972C15.7769 14.972 15.6158 14.9876 15.4766 15.017C14.2753 15.2693 13.0841 15.1163 11.7657 14.539C10.4168 13.9481 9.29783 12.9819 8.3447 11.5845C8.3265 11.5575 8.29072 11.475 8.27148 11.4288C8.24728 11.3722 8.257 11.3099 8.29713 11.2626C8.33436 11.2176 8.39393 11.1908 8.46984 11.1908C8.47046 11.1908 8.47088 11.1908 8.4715 11.1908L8.94765 11.2171C9.2395 11.2332 9.52287 11.249 9.80624 11.2617L10.1089 11.2751C11.0123 11.315 11.9468 11.3559 12.8611 11.5468C13.9038 11.7665 14.6693 12.1038 15.2563 12.6041C14.5615 11.5907 13.8175 10.6263 13.0338 9.72307C13.0127 9.69915 12.9116 9.66253 12.8286 9.65039C12.7872 9.64187 12.6367 9.61413 12.4364 9.61413C12.1709 9.61413 11.9384 9.66144 11.7412 9.75643C10.4888 10.2932 9.0823 10.333 7.55519 9.87335C6.30256 9.4983 5.24167 8.80169 4.31172 7.74436C4.28152 7.71028 4.25421 7.67312 4.22939 7.63397C4.20106 7.58883 4.19919 7.53916 4.22401 7.49385C4.296 7.36152 4.6075 7.29935 4.73864 7.27868C5.06048 7.22938 5.42514 7.17318 5.7867 7.13022C5.95238 7.10992 6.11827 7.08871 6.28457 7.06714L6.30587 7.06424C6.86931 6.99137 7.45177 6.91597 8.03858 6.89004C9.11085 6.84201 10.0629 7.03379 10.8421 7.45832C10.3182 6.96962 9.78287 6.50594 9.23929 6.07035C9.06741 5.93295 8.87298 5.79446 8.60801 5.62063C8.58754 5.60685 8.53541 5.59072 8.4715 5.58745C6.59359 5.52311 5.0309 4.79658 3.69471 3.36675C2.96684 2.58838 2.40878 1.60664 1.98827 0.365317L1.97379 0.322719C1.92891 0.192206 1.90408 0.120424 2.0073 0.0363157C2.08693 -0.0285781 2.22717 -0.00936322 2.59163 0.117162C2.92257 0.228641 3.25558 0.336858 3.59749 0.447975C4.28441 0.671115 4.99491 0.901869 5.68059 1.16253C6.82649 1.59902 7.74156 2.26065 8.39993 3.12874C8.90132 3.78928 9.09947 4.4529 9.00618 5.15404C9.0068 5.16184 9.01466 5.18051 9.01591 5.18268C10.2121 6.08775 11.3555 7.10666 12.5295 8.31934C11.7466 7.27034 11.2363 6.06256 10.9803 4.66245C10.7221 3.25092 10.7058 1.99455 10.93 0.821748C10.9443 0.748335 10.9635 0.674922 10.9881 0.583019L11.0247 0.441449C11.0413 0.380724 11.0934 0.331601 11.1619 0.312749C11.2303 0.294985 11.3071 0.310755 11.3582 0.353353C11.4401 0.420966 11.5203 0.484772 11.5987 0.546766L11.654 0.590451C11.8546 0.748879 12.0441 0.898425 12.2155 1.06755C13.8816 2.71473 14.8534 4.45453 15.1862 6.38648C15.3378 7.25965 15.2749 8.00303 14.9938 8.65849C14.9007 8.87565 14.7555 9.0696 14.611 9.26211C14.5448 9.35003 14.4786 9.4383 14.418 9.52894C14.3733 9.59401 14.3696 9.61087 14.3698 9.60779C14.3973 9.8661 14.4368 10.1539 14.4902 10.4994C14.4924 10.5038 14.4999 10.5139 14.5237 10.5415L14.5429 10.5649C15.454 11.6748 16.2946 12.8449 17.0511 14.0559C16.7536 13.1514 16.5168 12.0065 16.5335 10.6762C16.5538 9.08048 16.9731 7.65735 17.8158 6.32485C17.8491 6.27301 17.9095 6.23929 17.9941 6.23422C18.0555 6.23422 18.1146 6.26086 18.1533 6.30636C18.1786 6.33718 18.2042 6.36618 18.2286 6.39373C18.283 6.45536 18.3339 6.51373 18.3794 6.57609C19.0504 7.4982 19.4103 8.51493 19.6492 9.29782C20.0858 10.7336 20.2865 11.9325 20.2807 13.0711C20.2774 14.0389 20.0761 14.7828 19.6471 15.4123C19.5137 15.6083 19.3458 15.7798 19.177 15.9523C19.0874 16.0439 18.9954 16.138 18.912 16.2344C18.8537 16.3015 18.8256 16.3698 18.8239 16.4079C18.8129 16.6373 18.8187 16.8706 18.8243 17.0961L18.8282 17.252C18.8289 17.2789 18.8359 17.3097 18.8464 17.3332C19.3851 18.4768 19.8585 19.6654 20.2623 20.8861C20.2029 20.4704 20.1694 20.068 20.1609 19.6754C20.1121 17.4469 20.8921 15.4568 22.4798 13.7595L22.8108 13.4063C22.849 13.3647 22.9057 13.3412 22.9661 13.3412L22.9992 13.3437C23.0699 13.354 23.1295 13.397 23.1541 13.4556C23.1843 13.5261 23.2139 13.5926 23.2426 13.6569C23.2981 13.7813 23.3504 13.8991 23.3947 14.0189C23.7353 14.9541 23.9025 15.9757 23.9364 17.3309L23.937 17.3573C23.9625 18.3433 23.9974 19.6939 23.5353 20.9863C23.0805 22.2586 22.2784 22.9016 22.1228 23.0171L22.1063 23.0301C21.6829 23.3613 21.4071 23.6642 21.3501 23.8609C21.3271 23.9403 21.3037 24.0198 21.2764 24.0985C21.1556 24.4485 21.2311 24.7821 21.3126 25.1422C21.3532 25.3241 21.3953 25.5118 21.41 25.7045C21.4684 26.4756 21.5399 27.2598 21.6092 28.0181L21.6154 28.0882C21.6332 28.2816 21.651 28.475 21.6686 28.6684C21.8452 26.9333 22.5009 25.3561 23.629 23.9613C24.3199 23.1079 25.1435 22.3777 26.0776 21.7906C26.1179 21.7652 26.1603 21.7426 26.217 21.713C26.2445 21.6991 26.2764 21.6824 26.3151 21.6612C26.3734 21.6305 26.4483 21.6278 26.5085 21.6536C26.5701 21.6798 26.6125 21.7333 26.6195 21.7939C26.6322 21.9035 26.6468 22.0098 26.6624 22.12C26.6936 22.3456 26.7232 22.5588 26.7244 22.7778C26.7383 25.0476 26.1903 27.1746 25.0953 29.0989C24.7902 29.6359 24.3871 30.1003 23.8967 30.4798C23.4104 30.8542 22.8856 31.0749 22.2935 31.1543C22.2804 31.1563 22.2494 31.1728 22.2446 31.1761C22.2126 31.2325 22.1793 31.289 22.146 31.3458C22.0277 31.5461 21.9054 31.7533 21.8446 31.961C21.7939 32.1366 21.7939 32.3286 21.7939 32.532C21.7939 32.6065 21.7939 32.6815 21.7912 32.7551C21.7344 34.5134 21.6597 35.1257 21.3387 36.6968C21.5346 36.2297 21.7805 35.7613 22.098 35.3106C23.3837 33.4869 25.0171 32.249 27.0915 31.5267C27.2235 31.4801 27.3559 31.4465 27.5094 31.4074L27.54 31.3994C27.6022 31.3835 27.6682 31.3664 27.7388 31.3476C27.8025 31.3293 27.8751 31.3418 27.927 31.3795C27.9787 31.417 28.0058 31.4745 27.999 31.5343C27.9837 31.659 27.9731 31.7803 27.9634 31.8986C27.9421 32.1582 27.922 32.4033 27.8502 32.6458C27.1809 34.9115 26.0731 36.716 24.4636 38.1627C23.7755 38.7812 23.0503 39.1357 22.2467 39.2469C22.044 39.2746 21.7962 39.278 21.3767 39.2552L21.2559 39.2488C21.2375 39.2479 21.2214 39.247 21.2067 39.247C21.1736 39.247 21.1709 39.247 21.148 39.2768L20.586 39.9531C20.5787 39.962 20.5682 39.994 20.561 40.0162L20.5527 40.0404C19.9694 41.7734 19.2456 43.4425 18.3922 45.0266C18.7763 44.562 19.1972 44.1378 19.6664 43.7388C21.8237 41.9044 25.5121 41.8513 25.9256 41.8513L25.9771 41.8517L26.0096 41.8569C26.1109 41.8885 26.1657 41.9834 26.1345 42.0728C26.1057 42.1571 26.0789 42.2423 26.048 42.3424C25.9891 42.5303 25.9279 42.7245 25.842 42.9123C25.4333 43.8074 24.7708 44.6684 23.7566 45.6229C23.0598 46.2773 22.2742 46.9409 21.2526 47.3606C20.1338 47.821 19.1236 47.9334 18.119 47.7079C17.9481 47.6685 17.7516 47.6187 17.5826 47.5226C17.4623 47.455 17.4294 47.4572 17.3111 47.5344C17.1708 47.6258 17.0217 47.7024 16.8769 47.7768C16.7969 47.8179 16.7162 47.8594 16.6409 47.9011C16.6289 47.91 16.6033 47.9468 16.5937 47.9604C15.6923 49.2488 14.6993 50.4463 13.627 51.5386C14.207 51.1688 14.8025 50.9013 15.435 50.7231C17.3679 50.1773 19.394 50.2467 21.4005 50.9267C21.7 51.0283 22.0283 51.1824 22.0502 51.1933C22.0961 51.2198 22.1278 51.2625 22.1377 51.3117C22.1464 51.3599 22.1321 51.4092 22.0986 51.4469C22.0359 51.5183 21.9753 51.5901 21.9153 51.6613L21.9021 51.6769C21.7666 51.8386 21.6132 52.0215 21.4411 52.1836C20.666 52.9117 19.7102 53.3999 18.7927 53.819C17.5309 54.3927 16.2407 54.7017 14.9574 54.738C14.897 54.7398 14.8366 54.7409 14.7764 54.7409C13.596 54.7409 12.6745 54.3999 11.9642 53.7026C11.9555 53.6971 11.9247 53.6868 11.9078 53.6866C11.6364 53.7037 11.3784 53.7383 11.1857 53.7664C11.1553 53.7711 11.1178 53.7871 11.0945 53.8055C9.9078 54.7262 8.65104 55.5343 7.33821 56.222C7.5372 56.1704 7.74218 56.1254 7.95191 56.0893C9.35492 55.853 10.7867 56.0012 12.3589 56.5487C13.4196 56.9192 14.406 57.4635 15.3746 58.2127C15.4545 58.2741 15.4656 58.3798 15.3999 58.4531C15.0571 58.8354 14.6112 59.0494 14.22 59.2082C13.2661 59.5967 12.1893 59.8454 10.9269 59.969C10.9232 59.9692 10.5176 60 9.94876 60C9.53818 60 9.15614 59.9839 8.81382 59.9521C8.4866 59.9221 8.1602 59.8729 7.84353 59.8062C6.38902 59.4959 5.40342 58.8578 4.83875 57.8672C4.82861 57.8587 4.78518 57.8366 4.73016 57.8248C4.46767 57.7677 4.23146 57.7274 4.00683 57.7012C3.95388 57.6937 3.8879 57.7062 3.80475 57.7356C2.80033 58.0748 1.73737 58.3573 0.647524 58.5752C0.632217 58.5785 0.616293 58.5801 0.600365 58.5801C0.527143 58.5801 0.459713 58.5448 0.424135 58.4871C0.320095 58.3175 0.1933 58.1547 0.0474777 58.0033C0.0017662 57.9557 -0.0118847 57.8922 0.0106621 57.8335C0.0321732 57.7766 0.0867786 57.7334 0.156691 57.7191Z" fill="#28194B"/>
</svg>
