<svg width="28" height="60" viewBox="0 0 28 60" fill="none" xmlns="http://www.w3.org/2000/svg">
<path d="M27.8433 57.7191C26.5048 57.4601 25.1736 57.0825 23.7729 56.565C23.7561 56.5581 23.7146 56.5169 23.7015 56.48C23.5619 56.0629 23.5152 55.6427 23.5582 55.1953C23.8325 52.3391 21.8917 49.3295 18.944 48.0392C18.8813 48.0113 18.8159 47.9872 18.7406 47.9602L18.6707 47.9348C18.6043 47.91 18.5235 47.9203 18.4699 47.958C18.412 47.9972 18.3832 48.061 18.395 48.125L18.4757 48.5629C18.5472 48.9505 18.6174 49.3297 18.6846 49.7093L18.7016 49.8086C18.8908 50.8873 19.0865 52.0028 19.4677 53.0745C19.8117 54.0414 20.3424 54.8043 21.0806 55.3889C19.5211 54.583 18.0678 53.6145 16.7479 52.5006C16.7202 52.4772 16.6873 52.4152 16.6826 52.3641L16.6472 51.5997C16.647 51.5725 16.6466 51.5004 16.6642 51.4646C17.3143 50.1374 17.4808 48.6434 17.1736 46.8976C16.8774 45.2138 16.0571 43.6654 14.7352 42.2952C14.5804 42.1348 14.4439 42.0536 14.3293 42.0536C14.3014 42.0536 14.2762 42.0585 14.2563 42.0676C14.1955 42.094 14.1544 42.1453 14.1463 42.2046L14.1109 42.4712C14.0836 42.6692 14.0573 42.8635 14.0338 43.0582C13.993 43.4011 13.9483 43.7436 13.9035 44.0862L13.897 44.1356C13.7853 44.991 13.6695 45.8756 13.6083 46.7613C13.5371 47.7945 13.5582 49.0012 14.2551 50.1175C14.2588 50.1231 14.2621 50.1291 14.2658 50.1347C13.2972 49.0732 12.413 47.9308 11.6241 46.7203C11.5544 46.6127 11.5484 46.5182 11.5614 46.3812C11.6174 45.8017 11.9248 45.3307 12.2485 44.9084C12.8738 44.0905 13.2523 43.1238 13.4759 41.7737C13.7885 39.8856 13.4728 37.9916 12.5383 36.1437C12.5127 36.0928 12.4827 36.0437 12.4506 35.9909L12.3776 35.8702C12.3426 35.8113 12.268 35.7725 12.1892 35.7756C12.1106 35.7792 12.0413 35.8229 12.0127 35.8863C11.786 36.3874 11.5668 36.8701 11.349 37.3492L11.2098 37.6553C10.7452 38.6779 10.2242 39.8717 9.92135 41.1034C9.70789 41.9726 9.69486 42.8115 9.88205 43.6101C9.15562 42.0949 8.55847 40.4938 8.10115 38.8336C8.09598 38.8151 8.09432 38.7672 8.13962 38.6568C8.35349 38.1438 8.74298 37.6787 9.2365 37.3472C10.3168 36.621 10.9297 35.6117 11.3866 34.7202C12.3222 32.897 12.5759 30.9602 12.1623 28.7986C12.1579 28.7759 12.1501 28.7535 12.1408 28.729L12.1333 28.7094C12.1153 28.661 12.0744 28.6219 12.0202 28.6014C11.9672 28.582 11.9006 28.5856 11.8595 28.6034C11.8181 28.6166 11.7554 28.6367 11.7147 28.6891C11.4805 28.9632 11.2429 29.2398 11.005 29.5162L10.9651 29.5628C10.3652 30.2609 9.74491 30.9823 9.1488 31.701C8.45816 32.5314 7.97042 33.3386 7.65747 34.1688C7.50648 34.5698 7.40782 34.9557 7.36128 35.3306C7.1625 33.9836 7.04977 32.6083 7.02516 31.2216C7.01937 30.8906 7.06735 30.6276 7.32529 30.3395C7.59832 30.0325 7.85335 29.861 8.20498 29.7479C9.64977 29.2853 10.5766 28.3077 11.2226 27.5078C12.2661 26.2137 12.8781 24.7079 13.0937 22.9043C13.1166 22.7187 13.1297 22.5309 13.1431 22.3322L13.1464 22.2871C13.1528 22.1905 13.1597 22.0899 13.1683 21.9833C13.1737 21.9126 13.1305 21.8463 13.0583 21.8142C12.9884 21.7834 12.8988 21.7924 12.838 21.8375L12.6665 21.9663C12.602 22.0145 12.5468 22.0558 12.4895 22.096C12.2142 22.2898 11.9378 22.4816 11.6609 22.6739L11.6319 22.6939C11.024 23.1158 10.3952 23.5522 9.79476 24.0028C8.62963 24.8736 7.87941 25.7404 7.43367 26.7311C7.36004 26.8944 7.2955 27.0559 7.24007 27.2158C7.42333 25.6416 7.72097 24.0914 8.12969 22.5875C8.17933 22.4035 8.20705 22.3495 8.30902 22.3201C8.37314 22.3011 8.43292 22.2644 8.47656 22.2191C8.77297 21.9238 9.16328 21.8771 9.54138 21.8704C10.8031 21.8444 11.8038 21.2928 12.6161 20.7567C14.6077 19.4421 15.9791 16.1068 15.9791 15.9937C15.9791 15.9348 15.9456 15.8798 15.8887 15.8467C15.8327 15.8142 15.757 15.8097 15.6999 15.832C15.2849 15.9862 14.87 16.1365 14.4404 16.2922C13.4952 16.6357 12.5178 16.9906 11.5792 17.3787C10.6345 17.7705 9.88805 18.2943 9.3544 18.9389C9.86302 17.6724 10.4527 16.4307 11.113 15.2374C11.1889 15.1087 11.5455 14.972 12.0568 14.972C12.2231 14.972 12.3842 14.9876 12.5234 15.017C13.7247 15.2693 14.9159 15.1163 16.2343 14.539C17.5832 13.9481 18.7022 12.9819 19.6553 11.5845C19.6735 11.5575 19.7093 11.475 19.7285 11.4288C19.7527 11.3722 19.743 11.3099 19.7029 11.2626C19.6656 11.2176 19.6061 11.1908 19.5302 11.1908C19.5295 11.1908 19.5291 11.1908 19.5285 11.1908L19.0524 11.2171C18.7605 11.2332 18.4771 11.249 18.1938 11.2617L17.8911 11.2751C16.9877 11.315 16.0532 11.3559 15.1389 11.5468C14.0962 11.7665 13.3307 12.1038 12.7437 12.6041C13.4385 11.5907 14.1825 10.6263 14.9662 9.72307C14.9873 9.69915 15.0884 9.66253 15.1714 9.65039C15.2128 9.64187 15.3633 9.61413 15.5636 9.61413C15.8291 9.61413 16.0616 9.66144 16.2588 9.75643C17.5112 10.2932 18.9177 10.333 20.4448 9.87335C21.6974 9.4983 22.7583 8.80169 23.6883 7.74436C23.7185 7.71028 23.7458 7.67312 23.7706 7.63397C23.7989 7.58883 23.8008 7.53916 23.776 7.49385C23.704 7.36152 23.3925 7.29935 23.2614 7.27868C22.9395 7.22938 22.5749 7.17318 22.2133 7.13022C22.0476 7.10992 21.8817 7.08871 21.7154 7.06714L21.6941 7.06424C21.1307 6.99137 20.5482 6.91597 19.9614 6.89004C18.8892 6.84201 17.9371 7.03379 17.1579 7.45832C17.6818 6.96962 18.2171 6.50594 18.7607 6.07035C18.9326 5.93295 19.127 5.79446 19.392 5.62063C19.4125 5.60685 19.4646 5.59072 19.5285 5.58745C21.4064 5.52311 22.9691 4.79658 24.3053 3.36675C25.0332 2.58838 25.5912 1.60664 26.0117 0.365317L26.0262 0.322719C26.0711 0.192206 26.0959 0.120424 25.9927 0.0363157C25.9131 -0.0285781 25.7728 -0.00936322 25.4084 0.117162C25.0774 0.228641 24.7444 0.336858 24.4025 0.447975C23.7156 0.671115 23.0051 0.901869 22.3194 1.16253C21.1735 1.59902 20.2584 2.26065 19.6001 3.12874C19.0987 3.78928 18.9005 4.4529 18.9938 5.15404C18.9932 5.16184 18.9853 5.18051 18.9841 5.18268C17.7879 6.08775 16.6445 7.10666 15.4705 8.31934C16.2534 7.27034 16.7637 6.06256 17.0197 4.66245C17.2779 3.25092 17.2942 1.99455 17.07 0.821748C17.0557 0.748335 17.0365 0.674922 17.0119 0.583019L16.9753 0.441449C16.9587 0.380724 16.9066 0.331601 16.8381 0.312749C16.7697 0.294985 16.6929 0.310755 16.6418 0.353353C16.5599 0.420966 16.4797 0.484772 16.4013 0.546766L16.346 0.590451C16.1454 0.748879 15.9559 0.898425 15.7845 1.06755C14.1184 2.71473 13.1466 4.45453 12.8138 6.38648C12.6622 7.25965 12.7251 8.00303 13.0062 8.65849C13.0993 8.87565 13.2445 9.0696 13.389 9.26211C13.4552 9.35003 13.5214 9.4383 13.582 9.52894C13.6267 9.59401 13.6304 9.61087 13.6302 9.60779C13.6027 9.8661 13.5632 10.1539 13.5098 10.4994C13.5076 10.5038 13.5001 10.5139 13.4763 10.5415L13.4571 10.5649C12.546 11.6748 11.7054 12.8449 10.9489 14.0559C11.2464 13.1514 11.4832 12.0065 11.4665 10.6762C11.4462 9.08048 11.0269 7.65735 10.1842 6.32485C10.1509 6.27301 10.0905 6.23929 10.0059 6.23422C9.94452 6.23422 9.88536 6.26086 9.84668 6.30636C9.82145 6.33718 9.7958 6.36618 9.77139 6.39373C9.71699 6.45536 9.66611 6.51373 9.6206 6.57609C8.94961 7.4982 8.58971 8.51493 8.3508 9.29782C7.91416 10.7336 7.71353 11.9325 7.71932 13.0711C7.72263 14.0389 7.92388 14.7828 8.35287 15.4123C8.48629 15.6083 8.65424 15.7798 8.82302 15.9523C8.91259 16.0439 9.00463 16.138 9.08799 16.2344C9.14632 16.3015 9.17445 16.3698 9.1761 16.4079C9.18706 16.6373 9.18127 16.8706 9.17569 17.0961L9.17176 17.252C9.17114 17.2789 9.1641 17.3097 9.15355 17.3332C8.61494 18.4768 8.14148 19.6654 7.73773 20.8861C7.79709 20.4704 7.8306 20.068 7.83908 19.6754C7.88789 17.4469 7.1079 15.4568 5.52018 13.7595L5.18924 13.4063C5.15097 13.3647 5.0943 13.3412 5.0339 13.3412L5.0008 13.3437C4.93006 13.354 4.87049 13.397 4.84588 13.4556C4.81568 13.5261 4.7861 13.5926 4.75735 13.6569C4.70192 13.7813 4.64959 13.8991 4.60532 14.0189C4.26466 14.9541 4.09753 15.9757 4.06361 17.3309L4.06299 17.3573C4.03755 18.3433 4.00259 19.6939 4.46467 20.9863C4.91952 22.2586 5.72165 22.9016 5.87719 23.0171L5.89374 23.0301C6.31714 23.3613 6.59286 23.6642 6.64995 23.8609C6.67291 23.9403 6.69628 24.0198 6.72358 24.0985C6.84438 24.4485 6.76888 24.7821 6.68739 25.1422C6.64685 25.3241 6.60465 25.5118 6.58997 25.7045C6.53164 26.4756 6.46007 27.2598 6.39078 28.0181L6.38457 28.0882C6.36678 28.2816 6.349 28.475 6.33141 28.6684C6.15477 26.9333 5.49908 25.3561 4.37097 23.9613C3.68012 23.1079 2.85648 22.3777 1.92239 21.7906C1.88205 21.7652 1.83965 21.7426 1.78298 21.713C1.75547 21.6991 1.72361 21.6824 1.68493 21.6612C1.6266 21.6305 1.55173 21.6278 1.49154 21.6536C1.4299 21.6798 1.3875 21.7333 1.38046 21.7939C1.36785 21.9035 1.35316 22.0098 1.33765 22.12C1.30641 22.3456 1.27684 22.5588 1.2756 22.7778C1.26174 25.0476 1.80966 27.1746 2.90468 29.0989C3.20977 29.6359 3.6129 30.1003 4.10332 30.4798C4.5896 30.8542 5.11436 31.0749 5.70655 31.1543C5.71958 31.1563 5.7506 31.1728 5.75536 31.1761C5.78742 31.2325 5.82072 31.289 5.85402 31.3458C5.97234 31.5461 6.09458 31.7533 6.15539 31.961C6.20607 32.1366 6.20607 32.3286 6.20607 32.532C6.20607 32.6065 6.20607 32.6815 6.20876 32.7551C6.26564 34.5134 6.34031 35.1257 6.66133 36.6968C6.46545 36.2297 6.21951 35.7613 5.90201 35.3106C4.61629 33.4869 2.98286 32.249 0.908452 31.5267C0.776487 31.4801 0.644109 31.4465 0.490633 31.4074L0.46002 31.3994C0.397761 31.3835 0.331779 31.3664 0.261246 31.3476C0.197539 31.3293 0.124938 31.3418 0.0730205 31.3795C0.0213102 31.417 -0.00578597 31.4745 0.00103979 31.5343C0.016346 31.659 0.0268949 31.7803 0.0366165 31.8986C0.0579211 32.1582 0.0779847 32.4033 0.149759 32.6458C0.819097 34.9115 1.92694 36.716 3.53637 38.1627C4.22453 38.7812 4.94971 39.1357 5.75329 39.2469C5.956 39.2746 6.20379 39.278 6.62327 39.2552L6.74406 39.2488C6.76247 39.2479 6.7786 39.247 6.79329 39.247C6.82639 39.247 6.82907 39.247 6.85203 39.2768L7.41402 39.9531C7.42126 39.962 7.43181 39.994 7.43905 40.0162L7.44732 40.0404C8.03061 41.7734 8.75435 43.4425 9.60778 45.0266C9.22367 44.562 8.80275 44.1378 8.33364 43.7388C6.17628 41.9044 2.48789 41.8513 2.07442 41.8513L2.02291 41.8517L1.99044 41.8569C1.88909 41.8885 1.83427 41.9834 1.86551 42.0728C1.89426 42.1571 1.92115 42.2423 1.95197 42.3424C2.01092 42.5303 2.07214 42.7245 2.15798 42.9123C2.5667 43.8074 3.22921 44.6684 4.24335 45.6229C4.9402 46.2773 5.72578 46.9409 6.74737 47.3606C7.86618 47.821 8.87639 47.9334 9.88101 47.7079C10.0519 47.6685 10.2484 47.6187 10.4174 47.5226C10.5377 47.455 10.5706 47.4572 10.6889 47.5344C10.8292 47.6258 10.9783 47.7024 11.1231 47.7768C11.2031 47.8179 11.2838 47.8594 11.3591 47.9011C11.3711 47.91 11.3967 47.9468 11.4063 47.9604C12.3077 49.2488 13.3007 50.4463 14.373 51.5386C13.793 51.1688 13.1975 50.9013 12.565 50.7231C10.6321 50.1773 8.60605 50.2467 6.59948 50.9267C6.29997 51.0283 5.97172 51.1824 5.94979 51.1933C5.90387 51.2198 5.87223 51.2625 5.8623 51.3117C5.85361 51.3599 5.86788 51.4092 5.90139 51.4469C5.96406 51.5183 6.02467 51.5901 6.08465 51.6613L6.09789 51.6769C6.23337 51.8386 6.38685 52.0215 6.55894 52.1836C7.33397 52.9117 8.28979 53.3999 9.20733 53.819C10.4691 54.3927 11.7593 54.7017 13.0426 54.738C13.103 54.7398 13.1634 54.7409 13.2236 54.7409C14.404 54.7409 15.3255 54.3999 16.0358 53.7026C16.0445 53.6971 16.0753 53.6868 16.0922 53.6866C16.3636 53.7037 16.6216 53.7383 16.8143 53.7664C16.8447 53.7711 16.8822 53.7871 16.9055 53.8055C18.0922 54.7262 19.349 55.5343 20.6618 56.222C20.4628 56.1704 20.2578 56.1254 20.0481 56.0893C18.6451 55.853 17.2133 56.0012 15.6411 56.5487C14.5804 56.9192 13.594 57.4635 12.6254 58.2127C12.5455 58.2741 12.5344 58.3798 12.6001 58.4531C12.9429 58.8354 13.3888 59.0494 13.78 59.2082C14.7339 59.5967 15.8107 59.8454 17.0731 59.969C17.0768 59.9692 17.4824 60 18.0512 60C18.4618 60 18.8439 59.9839 19.1862 59.9521C19.5134 59.9221 19.8398 59.8729 20.1565 59.8062C21.611 59.4959 22.5966 58.8578 23.1613 57.8672C23.1714 57.8587 23.2148 57.8366 23.2698 57.8248C23.5323 57.7677 23.7685 57.7274 23.9932 57.7012C24.0461 57.6937 24.1121 57.7062 24.1953 57.7356C25.1997 58.0748 26.2626 58.3573 27.3525 58.5752C27.3678 58.5785 27.3837 58.5801 27.3996 58.5801C27.4729 58.5801 27.5403 58.5448 27.5759 58.4871C27.6799 58.3175 27.8067 58.1547 27.9525 58.0033C27.9982 57.9557 28.0119 57.8922 27.9893 57.8335C27.9678 57.7766 27.9132 57.7334 27.8433 57.7191Z" fill="#28194B"/>
</svg>
