<svg width="96" height="36" viewBox="0 0 96 36" fill="none" xmlns="http://www.w3.org/2000/svg">
<path d="M64.2588 18.668C64.2588 18.7396 64.2458 18.8014 64.2197 18.8535C64.1937 18.8991 64.1318 18.9382 64.0342 18.9707C63.9365 19.0033 63.7933 19.026 63.6045 19.0391C63.4157 19.0521 63.1585 19.0586 62.833 19.0586C62.5596 19.0586 62.3415 19.0521 62.1787 19.0391C62.016 19.026 61.8857 19.0033 61.7881 18.9707C61.6969 18.9316 61.6318 18.8861 61.5928 18.834C61.5537 18.7754 61.5212 18.707 61.4951 18.6289L60.3623 15.8066C60.2256 15.4876 60.0921 15.2044 59.9619 14.957C59.8317 14.7096 59.6852 14.5046 59.5225 14.3418C59.3662 14.1725 59.1839 14.0456 58.9756 13.9609C58.7673 13.8763 58.5264 13.834 58.2529 13.834H57.4521V18.6484C57.4521 18.7135 57.4294 18.7721 57.3838 18.8242C57.3447 18.8763 57.2764 18.9186 57.1787 18.9512C57.0811 18.9837 56.9508 19.0098 56.7881 19.0293C56.6253 19.0488 56.417 19.0586 56.1631 19.0586C55.9157 19.0586 55.7074 19.0488 55.5381 19.0293C55.3753 19.0098 55.2451 18.9837 55.1475 18.9512C55.0498 18.9186 54.9814 18.8763 54.9424 18.8242C54.9033 18.7721 54.8838 18.7135 54.8838 18.6484V7.17383C54.8838 6.88737 54.9554 6.68229 55.0986 6.55859C55.2484 6.42839 55.4307 6.36328 55.6455 6.36328H58.917C59.249 6.36328 59.5225 6.36979 59.7373 6.38281C59.9521 6.39583 60.1475 6.41211 60.3232 6.43164C60.8311 6.50326 61.2868 6.62695 61.6904 6.80273C62.1006 6.97852 62.4456 7.20964 62.7256 7.49609C63.012 7.77604 63.2301 8.11133 63.3799 8.50195C63.5296 8.88607 63.6045 9.32878 63.6045 9.83008C63.6045 10.2533 63.5492 10.6406 63.4385 10.9922C63.3343 11.3372 63.1781 11.6465 62.9697 11.9199C62.7614 12.1934 62.5042 12.431 62.1982 12.6328C61.8923 12.8346 61.5439 12.9974 61.1533 13.1211C61.3421 13.2122 61.5179 13.3229 61.6807 13.4531C61.8499 13.5833 62.0062 13.7428 62.1494 13.9316C62.2992 14.1139 62.4391 14.3255 62.5693 14.5664C62.6995 14.8008 62.8265 15.0677 62.9502 15.3672L64.0146 17.8574C64.1123 18.1048 64.1774 18.2871 64.21 18.4043C64.2425 18.515 64.2588 18.6029 64.2588 18.668ZM60.9482 10.0938C60.9482 9.67708 60.8538 9.32552 60.665 9.03906C60.4762 8.7526 60.167 8.55078 59.7373 8.43359C59.6071 8.40104 59.4574 8.375 59.2881 8.35547C59.1253 8.33594 58.8975 8.32617 58.6045 8.32617H57.4521V11.9102H58.7607C59.1253 11.9102 59.4443 11.8678 59.7178 11.7832C59.9912 11.6921 60.2191 11.5684 60.4014 11.4121C60.5837 11.2493 60.7204 11.0573 60.8115 10.8359C60.9027 10.6146 60.9482 10.3672 60.9482 10.0938Z" fill="#7554CC"/>
<path d="M52.521 15.2109C52.521 15.875 52.3973 16.4577 52.1499 16.959C51.9025 17.4603 51.5672 17.8802 51.144 18.2188C50.7209 18.5508 50.2261 18.8014 49.6597 18.9707C49.0933 19.14 48.4878 19.2246 47.8433 19.2246C47.4071 19.2246 47.0002 19.1888 46.6226 19.1172C46.2515 19.0456 45.9227 18.9609 45.6362 18.8633C45.3498 18.7591 45.1089 18.6517 44.9136 18.541C44.7248 18.4303 44.5881 18.3327 44.5034 18.248C44.4188 18.1634 44.3569 18.043 44.3179 17.8867C44.2853 17.724 44.269 17.4928 44.269 17.1934C44.269 16.9915 44.2756 16.8223 44.2886 16.6855C44.3016 16.5488 44.3211 16.4382 44.3472 16.3535C44.3797 16.2689 44.4188 16.2103 44.4644 16.1777C44.5164 16.1387 44.575 16.1191 44.6401 16.1191C44.7313 16.1191 44.8582 16.1745 45.021 16.2852C45.1903 16.3893 45.4051 16.5065 45.6655 16.6367C45.9259 16.7669 46.2352 16.8874 46.5933 16.998C46.9578 17.1022 47.3778 17.1543 47.853 17.1543C48.1655 17.1543 48.4455 17.1185 48.6929 17.0469C48.9403 16.9688 49.1486 16.8613 49.3179 16.7246C49.4937 16.5879 49.6271 16.4186 49.7183 16.2168C49.8094 16.015 49.855 15.7904 49.855 15.543C49.855 15.2565 49.7769 15.0124 49.6206 14.8105C49.4644 14.6022 49.2593 14.4199 49.0054 14.2637C48.758 14.1009 48.4748 13.9512 48.1558 13.8145C47.8368 13.6712 47.508 13.5215 47.1694 13.3652C46.8309 13.209 46.5021 13.0332 46.1831 12.8379C45.8641 12.6361 45.5776 12.3984 45.3237 12.125C45.0763 11.8451 44.8745 11.5163 44.7183 11.1387C44.562 10.7611 44.4839 10.3086 44.4839 9.78125C44.4839 9.17578 44.5946 8.64518 44.8159 8.18945C45.0438 7.72721 45.3465 7.34635 45.7241 7.04688C46.1082 6.74089 46.5575 6.51302 47.0718 6.36328C47.5926 6.21354 48.1427 6.13867 48.7222 6.13867C49.0216 6.13867 49.3211 6.16146 49.6206 6.20703C49.9201 6.2526 50.2 6.31445 50.4604 6.39258C50.7209 6.4707 50.952 6.55859 51.1538 6.65625C51.3556 6.75391 51.4891 6.83529 51.5542 6.90039C51.6193 6.96549 51.6616 7.02083 51.6812 7.06641C51.7072 7.11198 51.7267 7.17383 51.7397 7.25195C51.7593 7.32357 51.7723 7.41797 51.7788 7.53516C51.7853 7.64583 51.7886 7.78581 51.7886 7.95508C51.7886 8.14388 51.7821 8.30339 51.769 8.43359C51.7625 8.5638 51.7463 8.67122 51.7202 8.75586C51.7007 8.84049 51.6681 8.90234 51.6226 8.94141C51.5835 8.98047 51.5282 9 51.4565 9C51.3849 9 51.271 8.95443 51.1147 8.86328C50.9585 8.77214 50.7664 8.67448 50.5386 8.57031C50.3107 8.45964 50.047 8.36198 49.7476 8.27734C49.4481 8.1862 49.1193 8.14062 48.7612 8.14062C48.4813 8.14062 48.2371 8.17643 48.0288 8.24805C47.8205 8.31315 47.6447 8.40755 47.5015 8.53125C47.3647 8.64844 47.2606 8.79167 47.189 8.96094C47.1239 9.13021 47.0913 9.30924 47.0913 9.49805C47.0913 9.77799 47.1662 10.0221 47.3159 10.2305C47.4722 10.4323 47.6772 10.6146 47.9312 10.7773C48.1916 10.9336 48.4845 11.0833 48.8101 11.2266C49.1356 11.3633 49.4676 11.5098 49.8062 11.666C50.1447 11.8223 50.4767 12.0013 50.8022 12.2031C51.1278 12.3984 51.4175 12.6361 51.6714 12.916C51.9253 13.1895 52.1304 13.515 52.2866 13.8926C52.4429 14.2637 52.521 14.7031 52.521 15.2109Z" fill="#7554CC"/>
<path d="M42.0137 8.32617C42.0137 8.51497 42.0039 8.67773 41.9844 8.81445C41.9714 8.95117 41.9486 9.06185 41.916 9.14648C41.89 9.22461 41.8542 9.27995 41.8086 9.3125C41.7695 9.34505 41.7207 9.36133 41.6621 9.36133C41.5775 9.36133 41.4408 9.30273 41.252 9.18555C41.0632 9.06836 40.8125 8.94141 40.5 8.80469C40.1875 8.66797 39.8132 8.54102 39.377 8.42383C38.9473 8.30664 38.446 8.24805 37.873 8.24805C37.2611 8.24805 36.7077 8.35547 36.2129 8.57031C35.7181 8.77865 35.2949 9.07812 34.9434 9.46875C34.5918 9.85286 34.3216 10.3184 34.1328 10.8652C33.944 11.4056 33.8496 12.0046 33.8496 12.6621C33.8496 13.3848 33.944 14.0228 34.1328 14.5762C34.3281 15.123 34.5983 15.582 34.9434 15.9531C35.2884 16.3242 35.7018 16.6042 36.1836 16.793C36.6719 16.9818 37.209 17.0762 37.7949 17.0762C38.0814 17.0762 38.3646 17.0436 38.6445 16.9785C38.9245 16.9134 39.1849 16.8158 39.4258 16.6855V13.7559H37.0332C36.916 13.7559 36.8249 13.6842 36.7598 13.541C36.6947 13.3913 36.6621 13.1406 36.6621 12.7891C36.6621 12.6068 36.6686 12.4538 36.6816 12.3301C36.7012 12.2064 36.7272 12.1087 36.7598 12.0371C36.7923 11.959 36.8314 11.9036 36.877 11.8711C36.9225 11.832 36.9746 11.8125 37.0332 11.8125H41.3008C41.4049 11.8125 41.4961 11.832 41.5742 11.8711C41.6589 11.9036 41.7305 11.9557 41.7891 12.0273C41.8542 12.099 41.903 12.1868 41.9355 12.291C41.9681 12.3887 41.9844 12.5026 41.9844 12.6328V17.6621C41.9844 17.8574 41.9486 18.0299 41.877 18.1797C41.8118 18.3229 41.6719 18.4368 41.457 18.5215C41.2487 18.6061 40.9883 18.694 40.6758 18.7852C40.3633 18.8763 40.0378 18.9544 39.6992 19.0195C39.3672 19.0846 39.0286 19.1335 38.6836 19.166C38.3451 19.1986 38.0033 19.2148 37.6582 19.2148C36.6491 19.2148 35.7441 19.0716 34.9434 18.7852C34.1491 18.4922 33.4753 18.0723 32.9219 17.5254C32.3685 16.972 31.9453 16.3014 31.6523 15.5137C31.3594 14.7194 31.2129 13.821 31.2129 12.8184C31.2129 11.7832 31.3691 10.8555 31.6816 10.0352C31.9941 9.20833 32.4368 8.50846 33.0098 7.93555C33.5827 7.35612 34.2728 6.91341 35.0801 6.60742C35.8939 6.30143 36.7988 6.14844 37.7949 6.14844C38.3418 6.14844 38.8398 6.1875 39.2891 6.26562C39.7383 6.33724 40.1289 6.42839 40.4609 6.53906C40.7995 6.64323 41.0794 6.75716 41.3008 6.88086C41.5221 7.00456 41.6751 7.11198 41.7598 7.20312C41.8509 7.29427 41.916 7.42448 41.9551 7.59375C41.9941 7.75651 42.0137 8.00065 42.0137 8.32617Z" fill="#7554CC"/>
<path d="M89.7508 27.7383C89.7352 27.8008 89.713 27.8516 89.6844 27.8906C89.6583 27.9271 89.618 27.9557 89.5633 27.9766C89.5086 27.9948 89.4383 28.0065 89.3524 28.0117C89.2664 28.0195 89.157 28.0234 89.0242 28.0234C88.8758 28.0234 88.756 28.0195 88.6649 28.0117C88.5763 28.0065 88.506 27.9948 88.4539 27.9766C88.4018 27.9557 88.3641 27.9271 88.3406 27.8906C88.3172 27.8516 88.299 27.8008 88.2859 27.7383L87.4774 24.5352H87.4695L86.7039 27.7383C86.6909 27.7982 86.6727 27.8477 86.6492 27.8867C86.6258 27.9232 86.588 27.9518 86.5359 27.9727C86.4865 27.9935 86.4175 28.0065 86.3289 28.0117C86.243 28.0195 86.1284 28.0234 85.9852 28.0234C85.8341 28.0234 85.713 28.0195 85.6219 28.0117C85.5333 28.0065 85.463 27.9948 85.4109 27.9766C85.3589 27.9557 85.3211 27.9271 85.2977 27.8906C85.2742 27.8516 85.2547 27.8008 85.2391 27.7383L84.0906 23.3281C84.0672 23.2344 84.0542 23.1615 84.0516 23.1094C84.049 23.0547 84.0633 23.013 84.0945 22.9844C84.1284 22.9557 84.1818 22.9388 84.2547 22.9336C84.3302 22.9258 84.4344 22.9219 84.5672 22.9219C84.6896 22.9219 84.7859 22.9245 84.8563 22.9297C84.9292 22.9323 84.9839 22.9414 85.0203 22.957C85.0568 22.9701 85.0815 22.9909 85.0945 23.0195C85.1076 23.0456 85.118 23.0833 85.1258 23.1328L86.0125 27.0039H86.0164L86.9383 23.1602C86.9487 23.1107 86.9617 23.0703 86.9774 23.0391C86.9956 23.0078 87.0242 22.9844 87.0633 22.9688C87.105 22.9505 87.1609 22.9388 87.2313 22.9336C87.3016 22.9258 87.3953 22.9219 87.5125 22.9219C87.6375 22.9219 87.7365 22.9245 87.8094 22.9297C87.8849 22.9349 87.9422 22.9466 87.9813 22.9648C88.0229 22.9805 88.0529 23.0039 88.0711 23.0352C88.0893 23.0664 88.1037 23.1081 88.1141 23.1602L89.0672 27.0039H89.075L89.9617 23.1445C89.9695 23.1029 89.98 23.0677 89.993 23.0391C90.006 23.0078 90.0307 22.9844 90.0672 22.9688C90.1037 22.9505 90.1557 22.9388 90.2234 22.9336C90.2912 22.9258 90.3862 22.9219 90.5086 22.9219C90.6232 22.9219 90.7117 22.9258 90.7742 22.9336C90.8393 22.9388 90.8862 22.9557 90.9149 22.9844C90.9435 23.013 90.9552 23.056 90.95 23.1133C90.9474 23.168 90.9344 23.2435 90.9109 23.3398L89.7508 27.7383Z" fill="#7554CC"/>
<path d="M83.3604 27.5977C83.3604 27.6732 83.3564 27.737 83.3486 27.7891C83.3434 27.8385 83.3343 27.8789 83.3213 27.9102C83.3083 27.9414 83.2913 27.9648 83.2705 27.9805C83.2523 27.9935 83.2314 28 83.208 28H80.6689C80.583 28 80.5101 27.9753 80.4502 27.9258C80.3929 27.8737 80.3643 27.7904 80.3643 27.6758V23.2695C80.3643 23.1549 80.3929 23.0729 80.4502 23.0234C80.5101 22.9714 80.583 22.9453 80.6689 22.9453H83.1924C83.2158 22.9453 83.2367 22.9518 83.2549 22.9648C83.2731 22.9779 83.2887 23.0013 83.3018 23.0352C83.3148 23.0664 83.3239 23.1081 83.3291 23.1602C83.3369 23.2096 83.3408 23.2734 83.3408 23.3516C83.3408 23.4245 83.3369 23.487 83.3291 23.5391C83.3239 23.5885 83.3148 23.6289 83.3018 23.6602C83.2887 23.6914 83.2731 23.7148 83.2549 23.7305C83.2367 23.7435 83.2158 23.75 83.1924 23.75H81.3877V24.9844H82.915C82.9385 24.9844 82.9593 24.9922 82.9775 25.0078C82.9984 25.0208 83.0153 25.043 83.0283 25.0742C83.0413 25.1029 83.0505 25.1432 83.0557 25.1953C83.0635 25.2448 83.0674 25.306 83.0674 25.3789C83.0674 25.4544 83.0635 25.5169 83.0557 25.5664C83.0505 25.6159 83.0413 25.6562 83.0283 25.6875C83.0153 25.7161 82.9984 25.737 82.9775 25.75C82.9593 25.763 82.9385 25.7695 82.915 25.7695H81.3877V27.1953H83.208C83.2314 27.1953 83.2523 27.2031 83.2705 27.2188C83.2913 27.2318 83.3083 27.2539 83.3213 27.2852C83.3343 27.3164 83.3434 27.3581 83.3486 27.4102C83.3564 27.4596 83.3604 27.5221 83.3604 27.5977Z" fill="#7554CC"/>
<path d="M79.1025 27.8594C79.1025 27.8854 79.0934 27.9089 79.0752 27.9297C79.0596 27.9505 79.0322 27.9674 78.9932 27.9805C78.9541 27.9935 78.902 28.0039 78.8369 28.0117C78.7718 28.0195 78.6885 28.0234 78.5869 28.0234C78.488 28.0234 78.4046 28.0195 78.3369 28.0117C78.2718 28.0039 78.2197 27.9935 78.1807 27.9805C78.1416 27.9674 78.113 27.9505 78.0947 27.9297C78.0791 27.9089 78.0713 27.8854 78.0713 27.8594V23.0859C78.0713 23.0599 78.0791 23.0365 78.0947 23.0156C78.113 22.9948 78.1416 22.9779 78.1807 22.9648C78.2223 22.9518 78.2757 22.9414 78.3408 22.9336C78.4059 22.9258 78.488 22.9219 78.5869 22.9219C78.6885 22.9219 78.7718 22.9258 78.8369 22.9336C78.902 22.9414 78.9541 22.9518 78.9932 22.9648C79.0322 22.9779 79.0596 22.9948 79.0752 23.0156C79.0934 23.0365 79.1025 23.0599 79.1025 23.0859V27.8594Z" fill="#7554CC"/>
<path d="M75.6925 27.8203C75.6795 27.8646 75.6626 27.901 75.6417 27.9297C75.6209 27.9557 75.5871 27.9766 75.5402 27.9922C75.4933 28.0052 75.4295 28.013 75.3488 28.0156C75.268 28.0208 75.1626 28.0234 75.0324 28.0234C74.9282 28.0234 74.8384 28.0221 74.7628 28.0195C74.6899 28.0195 74.6274 28.0169 74.5753 28.0117C74.5233 28.0065 74.4803 27.9987 74.4464 27.9883C74.4152 27.9779 74.3878 27.9648 74.3644 27.9492C74.3436 27.9336 74.3266 27.9154 74.3136 27.8945C74.3032 27.8711 74.2928 27.8424 74.2824 27.8086L72.7785 23.3281C72.7472 23.2344 72.7277 23.1602 72.7199 23.1055C72.7147 23.0508 72.7277 23.0104 72.7589 22.9844C72.7928 22.9557 72.8488 22.9388 72.9269 22.9336C73.005 22.9258 73.1144 22.9219 73.255 22.9219C73.3748 22.9219 73.4686 22.9245 73.5363 22.9297C73.604 22.9349 73.6561 22.944 73.6925 22.957C73.729 22.9701 73.7537 22.9896 73.7667 23.0156C73.7824 23.0417 73.7967 23.0742 73.8097 23.1133L75.0402 27.0117H75.0441L76.2511 23.1328C76.2615 23.0885 76.2746 23.0534 76.2902 23.0273C76.3058 22.9987 76.3318 22.9766 76.3683 22.9609C76.4074 22.9453 76.4621 22.9349 76.5324 22.9297C76.6027 22.9245 76.699 22.9219 76.8214 22.9219C76.9412 22.9219 77.0337 22.9258 77.0988 22.9336C77.1665 22.9414 77.2121 22.9609 77.2355 22.9922C77.2615 23.0208 77.2693 23.0625 77.2589 23.1172C77.2511 23.1719 77.2316 23.2448 77.2003 23.3359L75.6925 27.8203Z" fill="#7554CC"/>
<path d="M72.1069 27.5977C72.1069 27.6732 72.103 27.737 72.0952 27.7891C72.09 27.8385 72.0809 27.8789 72.0679 27.9102C72.0549 27.9414 72.0379 27.9648 72.0171 27.9805C71.9989 27.9935 71.978 28 71.9546 28H69.4155C69.3296 28 69.2567 27.9753 69.1968 27.9258C69.1395 27.8737 69.1108 27.7904 69.1108 27.6758V23.2695C69.1108 23.1549 69.1395 23.0729 69.1968 23.0234C69.2567 22.9714 69.3296 22.9453 69.4155 22.9453H71.939C71.9624 22.9453 71.9832 22.9518 72.0015 22.9648C72.0197 22.9779 72.0353 23.0013 72.0483 23.0352C72.0614 23.0664 72.0705 23.1081 72.0757 23.1602C72.0835 23.2096 72.0874 23.2734 72.0874 23.3516C72.0874 23.4245 72.0835 23.487 72.0757 23.5391C72.0705 23.5885 72.0614 23.6289 72.0483 23.6602C72.0353 23.6914 72.0197 23.7148 72.0015 23.7305C71.9832 23.7435 71.9624 23.75 71.939 23.75H70.1343V24.9844H71.6616C71.6851 24.9844 71.7059 24.9922 71.7241 25.0078C71.745 25.0208 71.7619 25.043 71.7749 25.0742C71.7879 25.1029 71.797 25.1432 71.8022 25.1953C71.8101 25.2448 71.814 25.306 71.814 25.3789C71.814 25.4544 71.8101 25.5169 71.8022 25.5664C71.797 25.6159 71.7879 25.6562 71.7749 25.6875C71.7619 25.7161 71.745 25.737 71.7241 25.75C71.7059 25.763 71.6851 25.7695 71.6616 25.7695H70.1343V27.1953H71.9546C71.978 27.1953 71.9989 27.2031 72.0171 27.2188C72.0379 27.2318 72.0549 27.2539 72.0679 27.2852C72.0809 27.3164 72.09 27.3581 72.0952 27.4102C72.103 27.4596 72.1069 27.5221 72.1069 27.5977Z" fill="#7554CC"/>
<path d="M68.1929 27.8672C68.1929 27.8958 68.1877 27.9206 68.1772 27.9414C68.1668 27.9596 68.1421 27.9753 68.103 27.9883C68.064 28.0013 68.0067 28.0104 67.9312 28.0156C67.8556 28.0208 67.7528 28.0234 67.6226 28.0234C67.5132 28.0234 67.4259 28.0208 67.3608 28.0156C67.2957 28.0104 67.2437 28.0013 67.2046 27.9883C67.1681 27.9727 67.1421 27.9544 67.1265 27.9336C67.1108 27.9102 67.0978 27.8828 67.0874 27.8516L66.6343 26.7227C66.5796 26.5951 66.5262 26.4818 66.4741 26.3828C66.422 26.2839 66.3634 26.2018 66.2983 26.1367C66.2358 26.069 66.1629 26.0182 66.0796 25.9844C65.9963 25.9505 65.8999 25.9336 65.7905 25.9336H65.4702V27.8594C65.4702 27.8854 65.4611 27.9089 65.4429 27.9297C65.4272 27.9505 65.3999 27.9674 65.3608 27.9805C65.3218 27.9935 65.2697 28.0039 65.2046 28.0117C65.1395 28.0195 65.0562 28.0234 64.9546 28.0234C64.8556 28.0234 64.7723 28.0195 64.7046 28.0117C64.6395 28.0039 64.5874 27.9935 64.5483 27.9805C64.5093 27.9674 64.4819 27.9505 64.4663 27.9297C64.4507 27.9089 64.4429 27.8854 64.4429 27.8594V23.2695C64.4429 23.1549 64.4715 23.0729 64.5288 23.0234C64.5887 22.9714 64.6616 22.9453 64.7476 22.9453H66.0562C66.189 22.9453 66.2983 22.9479 66.3843 22.9531C66.4702 22.9583 66.5483 22.9648 66.6187 22.9727C66.8218 23.0013 67.0041 23.0508 67.1655 23.1211C67.3296 23.1914 67.4676 23.2839 67.5796 23.3984C67.6942 23.5104 67.7814 23.6445 67.8413 23.8008C67.9012 23.9544 67.9312 24.1315 67.9312 24.332C67.9312 24.5013 67.909 24.6562 67.8647 24.7969C67.8231 24.9349 67.7606 25.0586 67.6772 25.168C67.5939 25.2773 67.491 25.3724 67.3687 25.4531C67.2463 25.5339 67.1069 25.599 66.9507 25.6484C67.0262 25.6849 67.0965 25.7292 67.1616 25.7812C67.2293 25.8333 67.2918 25.8971 67.3491 25.9727C67.409 26.0456 67.465 26.1302 67.5171 26.2266C67.5692 26.3203 67.62 26.4271 67.6694 26.5469L68.0952 27.543C68.1343 27.6419 68.1603 27.7148 68.1733 27.7617C68.1864 27.806 68.1929 27.8411 68.1929 27.8672ZM66.8687 24.4375C66.8687 24.2708 66.8309 24.1302 66.7554 24.0156C66.6799 23.901 66.5562 23.8203 66.3843 23.7734C66.3322 23.7604 66.2723 23.75 66.2046 23.7422C66.1395 23.7344 66.0483 23.7305 65.9312 23.7305H65.4702V25.1641H65.9937C66.1395 25.1641 66.2671 25.1471 66.3765 25.1133C66.4858 25.0768 66.577 25.0273 66.6499 24.9648C66.7228 24.8997 66.7775 24.8229 66.814 24.7344C66.8504 24.6458 66.8687 24.5469 66.8687 24.4375Z" fill="#7554CC"/>
<path d="M61.4004 27.5977C61.4004 27.6732 61.3965 27.737 61.3887 27.7891C61.3835 27.8385 61.3743 27.8789 61.3613 27.9102C61.3483 27.9414 61.3314 27.9648 61.3105 27.9805C61.2923 27.9935 61.2715 28 61.248 28H58.709C58.623 28 58.5501 27.9753 58.4902 27.9258C58.4329 27.8737 58.4043 27.7904 58.4043 27.6758V23.2695C58.4043 23.1549 58.4329 23.0729 58.4902 23.0234C58.5501 22.9714 58.623 22.9453 58.709 22.9453H61.2324C61.2559 22.9453 61.2767 22.9518 61.2949 22.9648C61.3132 22.9779 61.3288 23.0013 61.3418 23.0352C61.3548 23.0664 61.3639 23.1081 61.3691 23.1602C61.377 23.2096 61.3809 23.2734 61.3809 23.3516C61.3809 23.4245 61.377 23.487 61.3691 23.5391C61.3639 23.5885 61.3548 23.6289 61.3418 23.6602C61.3288 23.6914 61.3132 23.7148 61.2949 23.7305C61.2767 23.7435 61.2559 23.75 61.2324 23.75H59.4277V24.9844H60.9551C60.9785 24.9844 60.9993 24.9922 61.0176 25.0078C61.0384 25.0208 61.0553 25.043 61.0684 25.0742C61.0814 25.1029 61.0905 25.1432 61.0957 25.1953C61.1035 25.2448 61.1074 25.306 61.1074 25.3789C61.1074 25.4544 61.1035 25.5169 61.0957 25.5664C61.0905 25.6159 61.0814 25.6562 61.0684 25.6875C61.0553 25.7161 61.0384 25.737 61.0176 25.75C60.9993 25.763 60.9785 25.7695 60.9551 25.7695H59.4277V27.1953H61.248C61.2715 27.1953 61.2923 27.2031 61.3105 27.2188C61.3314 27.2318 61.3483 27.2539 61.3613 27.2852C61.3743 27.3164 61.3835 27.3581 61.3887 27.4102C61.3965 27.4596 61.4004 27.5221 61.4004 27.5977Z" fill="#7554CC"/>
<path d="M57.5059 27.2344C57.5059 27.2995 57.5033 27.3555 57.498 27.4023C57.4954 27.4466 57.4902 27.4857 57.4824 27.5195C57.4746 27.5508 57.4642 27.5781 57.4512 27.6016C57.4382 27.625 57.4173 27.6523 57.3887 27.6836C57.36 27.7122 57.304 27.75 57.2207 27.7969C57.14 27.8438 57.0397 27.8893 56.9199 27.9336C56.8027 27.9753 56.6673 28.0104 56.5137 28.0391C56.3626 28.0677 56.1986 28.082 56.0215 28.082C55.6751 28.082 55.3626 28.0286 55.084 27.9219C54.8053 27.8151 54.5684 27.6562 54.373 27.4453C54.1777 27.2318 54.028 26.9661 53.9238 26.6484C53.8197 26.3307 53.7676 25.9609 53.7676 25.5391C53.7676 25.1094 53.8249 24.7279 53.9395 24.3945C54.054 24.0612 54.2142 23.7812 54.4199 23.5547C54.6257 23.3281 54.8717 23.1562 55.1582 23.0391C55.4473 22.9219 55.765 22.8633 56.1113 22.8633C56.252 22.8633 56.3874 22.875 56.5176 22.8984C56.6478 22.9219 56.7676 22.9531 56.877 22.9922C56.9889 23.0286 57.0892 23.0716 57.1777 23.1211C57.2663 23.1706 57.3275 23.2135 57.3613 23.25C57.3978 23.2839 57.4225 23.3125 57.4355 23.3359C57.4486 23.3594 57.459 23.3893 57.4668 23.4258C57.4746 23.4622 57.4798 23.5052 57.4824 23.5547C57.4876 23.6042 57.4902 23.6654 57.4902 23.7383C57.4902 23.8164 57.4876 23.8828 57.4824 23.9375C57.4772 23.9922 57.4681 24.0365 57.4551 24.0703C57.4421 24.1042 57.4264 24.1289 57.4082 24.1445C57.39 24.1602 57.3691 24.168 57.3457 24.168C57.3066 24.168 57.2572 24.1458 57.1973 24.1016C57.1374 24.0547 57.0592 24.0039 56.9629 23.9492C56.8691 23.8919 56.7559 23.8411 56.623 23.7969C56.4928 23.75 56.3366 23.7266 56.1543 23.7266C55.9538 23.7266 55.7741 23.7682 55.6152 23.8516C55.459 23.9323 55.3249 24.0495 55.2129 24.2031C55.1035 24.3542 55.0202 24.5378 54.9629 24.7539C54.9056 24.9701 54.877 25.2135 54.877 25.4844C54.877 25.7812 54.9069 26.0391 54.9668 26.2578C55.0293 26.474 55.1165 26.6523 55.2285 26.793C55.3431 26.9336 55.4798 27.0391 55.6387 27.1094C55.8001 27.1771 55.9811 27.2109 56.1816 27.2109C56.3639 27.2109 56.5215 27.1901 56.6543 27.1484C56.7871 27.1042 56.9004 27.056 56.9941 27.0039C57.0905 26.9518 57.1686 26.9049 57.2285 26.8633C57.291 26.8216 57.3392 26.8008 57.373 26.8008C57.3991 26.8008 57.4199 26.806 57.4355 26.8164C57.4512 26.8268 57.4642 26.8477 57.4746 26.8789C57.485 26.9102 57.4928 26.9544 57.498 27.0117C57.5033 27.0664 57.5059 27.1406 57.5059 27.2344Z" fill="#7554CC"/>
<path d="M52.7441 27.6406C52.7441 27.7005 52.7337 27.7539 52.7129 27.8008C52.6921 27.8477 52.6634 27.8867 52.627 27.918C52.5931 27.9492 52.5514 27.9727 52.502 27.9883C52.4551 28.0013 52.4069 28.0078 52.3574 28.0078H51.9199C51.8288 28.0078 51.7493 27.9987 51.6816 27.9805C51.6165 27.9622 51.5553 27.9297 51.498 27.8828C51.4434 27.8333 51.39 27.7682 51.3379 27.6875C51.2858 27.6042 51.2272 27.4974 51.1621 27.3672L49.9043 25.0039C49.8314 24.8633 49.7572 24.7122 49.6816 24.5508C49.6061 24.3867 49.5384 24.2279 49.4785 24.0742H49.4707C49.4811 24.2617 49.4889 24.4492 49.4941 24.6367C49.4993 24.8216 49.502 25.013 49.502 25.2109V27.8555C49.502 27.8815 49.4941 27.9049 49.4785 27.9258C49.4655 27.9466 49.4408 27.9648 49.4043 27.9805C49.3704 27.9935 49.3236 28.0039 49.2637 28.0117C49.2038 28.0195 49.127 28.0234 49.0332 28.0234C48.9421 28.0234 48.8665 28.0195 48.8066 28.0117C48.7467 28.0039 48.6999 27.9935 48.666 27.9805C48.6322 27.9648 48.6087 27.9466 48.5957 27.9258C48.5827 27.9049 48.5762 27.8815 48.5762 27.8555V23.3125C48.5762 23.1901 48.6113 23.099 48.6816 23.0391C48.7546 22.9766 48.8431 22.9453 48.9473 22.9453H49.498C49.597 22.9453 49.6803 22.9544 49.748 22.9727C49.8158 22.9883 49.8757 23.0156 49.9277 23.0547C49.9824 23.0938 50.0332 23.1484 50.0801 23.2188C50.127 23.2865 50.1751 23.3711 50.2246 23.4727L51.209 25.3203C51.2663 25.4323 51.3223 25.543 51.377 25.6523C51.4342 25.7591 51.4889 25.8672 51.541 25.9766C51.5931 26.0833 51.6439 26.1888 51.6934 26.293C51.7428 26.3971 51.791 26.5013 51.8379 26.6055H51.8418C51.834 26.4232 51.8275 26.2331 51.8223 26.0352C51.8197 25.8372 51.8184 25.6484 51.8184 25.4688V23.0977C51.8184 23.0716 51.8262 23.0482 51.8418 23.0273C51.8574 23.0065 51.8835 22.9883 51.9199 22.9727C51.9564 22.957 52.0046 22.9466 52.0645 22.9414C52.1243 22.9336 52.2012 22.9297 52.2949 22.9297C52.3835 22.9297 52.4577 22.9336 52.5176 22.9414C52.5775 22.9466 52.623 22.957 52.6543 22.9727C52.6882 22.9883 52.7116 23.0065 52.7246 23.0273C52.7376 23.0482 52.7441 23.0716 52.7441 23.0977V27.6406Z" fill="#7554CC"/>
<path d="M47.5063 27.5977C47.5063 27.6732 47.5024 27.737 47.4946 27.7891C47.4894 27.8385 47.4803 27.8789 47.4673 27.9102C47.4543 27.9414 47.4373 27.9648 47.4165 27.9805C47.3983 27.9935 47.3774 28 47.354 28H44.8149C44.729 28 44.6561 27.9753 44.5962 27.9258C44.5389 27.8737 44.5103 27.7904 44.5103 27.6758V23.2695C44.5103 23.1549 44.5389 23.0729 44.5962 23.0234C44.6561 22.9714 44.729 22.9453 44.8149 22.9453H47.3384C47.3618 22.9453 47.3826 22.9518 47.4009 22.9648C47.4191 22.9779 47.4347 23.0013 47.4478 23.0352C47.4608 23.0664 47.4699 23.1081 47.4751 23.1602C47.4829 23.2096 47.4868 23.2734 47.4868 23.3516C47.4868 23.4245 47.4829 23.487 47.4751 23.5391C47.4699 23.5885 47.4608 23.6289 47.4478 23.6602C47.4347 23.6914 47.4191 23.7148 47.4009 23.7305C47.3826 23.7435 47.3618 23.75 47.3384 23.75H45.5337V24.9844H47.061C47.0845 24.9844 47.1053 24.9922 47.1235 25.0078C47.1444 25.0208 47.1613 25.043 47.1743 25.0742C47.1873 25.1029 47.1965 25.1432 47.2017 25.1953C47.2095 25.2448 47.2134 25.306 47.2134 25.3789C47.2134 25.4544 47.2095 25.5169 47.2017 25.5664C47.1965 25.6159 47.1873 25.6562 47.1743 25.6875C47.1613 25.7161 47.1444 25.737 47.1235 25.75C47.1053 25.763 47.0845 25.7695 47.061 25.7695H45.5337V27.1953H47.354C47.3774 27.1953 47.3983 27.2031 47.4165 27.2188C47.4373 27.2318 47.4543 27.2539 47.4673 27.2852C47.4803 27.3164 47.4894 27.3581 47.4946 27.4102C47.5024 27.4596 47.5063 27.5221 47.5063 27.5977Z" fill="#7554CC"/>
<path d="M43.2485 27.8594C43.2485 27.8854 43.2394 27.9089 43.2212 27.9297C43.2056 27.9505 43.1782 27.9674 43.1392 27.9805C43.1001 27.9935 43.048 28.0039 42.9829 28.0117C42.9178 28.0195 42.8345 28.0234 42.7329 28.0234C42.634 28.0234 42.5506 28.0195 42.4829 28.0117C42.4178 28.0039 42.3657 27.9935 42.3267 27.9805C42.2876 27.9674 42.259 27.9505 42.2407 27.9297C42.2251 27.9089 42.2173 27.8854 42.2173 27.8594V23.0859C42.2173 23.0599 42.2251 23.0365 42.2407 23.0156C42.259 22.9948 42.2876 22.9779 42.3267 22.9648C42.3683 22.9518 42.4217 22.9414 42.4868 22.9336C42.5519 22.9258 42.634 22.9219 42.7329 22.9219C42.8345 22.9219 42.9178 22.9258 42.9829 22.9336C43.048 22.9414 43.1001 22.9518 43.1392 22.9648C43.1782 22.9779 43.2056 22.9948 43.2212 23.0156C43.2394 23.0365 43.2485 23.0599 43.2485 23.0859V27.8594Z" fill="#7554CC"/>
<path d="M41.3188 27.2344C41.3188 27.2995 41.3162 27.3555 41.311 27.4023C41.3084 27.4466 41.3032 27.4857 41.2954 27.5195C41.2876 27.5508 41.2772 27.5781 41.2642 27.6016C41.2511 27.625 41.2303 27.6523 41.2017 27.6836C41.173 27.7122 41.117 27.75 41.0337 27.7969C40.953 27.8438 40.8527 27.8893 40.7329 27.9336C40.6157 27.9753 40.4803 28.0104 40.3267 28.0391C40.1756 28.0677 40.0116 28.082 39.8345 28.082C39.4881 28.082 39.1756 28.0286 38.897 27.9219C38.6183 27.8151 38.3813 27.6562 38.186 27.4453C37.9907 27.2318 37.841 26.9661 37.7368 26.6484C37.6326 26.3307 37.5806 25.9609 37.5806 25.5391C37.5806 25.1094 37.6379 24.7279 37.7524 24.3945C37.867 24.0612 38.0272 23.7812 38.2329 23.5547C38.4386 23.3281 38.6847 23.1562 38.9712 23.0391C39.2603 22.9219 39.578 22.8633 39.9243 22.8633C40.0649 22.8633 40.2004 22.875 40.3306 22.8984C40.4608 22.9219 40.5806 22.9531 40.6899 22.9922C40.8019 23.0286 40.9022 23.0716 40.9907 23.1211C41.0793 23.1706 41.1405 23.2135 41.1743 23.25C41.2108 23.2839 41.2355 23.3125 41.2485 23.3359C41.2616 23.3594 41.272 23.3893 41.2798 23.4258C41.2876 23.4622 41.2928 23.5052 41.2954 23.5547C41.3006 23.6042 41.3032 23.6654 41.3032 23.7383C41.3032 23.8164 41.3006 23.8828 41.2954 23.9375C41.2902 23.9922 41.2811 24.0365 41.2681 24.0703C41.255 24.1042 41.2394 24.1289 41.2212 24.1445C41.203 24.1602 41.1821 24.168 41.1587 24.168C41.1196 24.168 41.0701 24.1458 41.0103 24.1016C40.9504 24.0547 40.8722 24.0039 40.7759 23.9492C40.6821 23.8919 40.5688 23.8411 40.436 23.7969C40.3058 23.75 40.1496 23.7266 39.9673 23.7266C39.7668 23.7266 39.5871 23.7682 39.4282 23.8516C39.272 23.9323 39.1379 24.0495 39.0259 24.2031C38.9165 24.3542 38.8332 24.5378 38.7759 24.7539C38.7186 24.9701 38.6899 25.2135 38.6899 25.4844C38.6899 25.7812 38.7199 26.0391 38.7798 26.2578C38.8423 26.474 38.9295 26.6523 39.0415 26.793C39.1561 26.9336 39.2928 27.0391 39.4517 27.1094C39.6131 27.1771 39.7941 27.2109 39.9946 27.2109C40.1769 27.2109 40.3345 27.1901 40.4673 27.1484C40.6001 27.1042 40.7134 27.056 40.8071 27.0039C40.9035 26.9518 40.9816 26.9049 41.0415 26.8633C41.104 26.8216 41.1522 26.8008 41.186 26.8008C41.2121 26.8008 41.2329 26.806 41.2485 26.8164C41.2642 26.8268 41.2772 26.8477 41.2876 26.8789C41.298 26.9102 41.3058 26.9544 41.311 27.0117C41.3162 27.0664 41.3188 27.1406 41.3188 27.2344Z" fill="#7554CC"/>
<path d="M36.8779 26.4844C36.8779 26.75 36.8285 26.9831 36.7295 27.1836C36.6305 27.3841 36.4964 27.5521 36.3272 27.6875C36.1579 27.8203 35.96 27.9206 35.7334 27.9883C35.5068 28.056 35.2646 28.0898 35.0068 28.0898C34.8324 28.0898 34.6696 28.0755 34.5186 28.0469C34.3701 28.0182 34.2386 27.9844 34.124 27.9453C34.0094 27.9036 33.9131 27.8607 33.835 27.8164C33.7594 27.7721 33.7048 27.7331 33.6709 27.6992C33.637 27.6654 33.6123 27.6172 33.5967 27.5547C33.5837 27.4896 33.5771 27.3971 33.5771 27.2773C33.5771 27.1966 33.5798 27.1289 33.585 27.0742C33.5902 27.0195 33.598 26.9753 33.6084 26.9414C33.6214 26.9076 33.637 26.8841 33.6553 26.8711C33.6761 26.8555 33.6995 26.8477 33.7256 26.8477C33.762 26.8477 33.8128 26.8698 33.8779 26.9141C33.9456 26.9557 34.0316 27.0026 34.1357 27.0547C34.2399 27.1068 34.3636 27.1549 34.5068 27.1992C34.6527 27.2409 34.8206 27.2617 35.0107 27.2617C35.1357 27.2617 35.2477 27.2474 35.3467 27.2188C35.4456 27.1875 35.529 27.1445 35.5967 27.0898C35.667 27.0352 35.7204 26.9674 35.7568 26.8867C35.7933 26.806 35.8115 26.7161 35.8115 26.6172C35.8115 26.5026 35.7803 26.4049 35.7178 26.3242C35.6553 26.2409 35.5732 26.168 35.4717 26.1055C35.3727 26.0404 35.2594 25.9805 35.1318 25.9258C35.0042 25.8685 34.8727 25.8086 34.7373 25.7461C34.6019 25.6836 34.4704 25.6133 34.3428 25.5352C34.2152 25.4544 34.1006 25.3594 33.999 25.25C33.9001 25.138 33.8193 25.0065 33.7568 24.8555C33.6943 24.7044 33.6631 24.5234 33.6631 24.3125C33.6631 24.0703 33.7074 23.8581 33.7959 23.6758C33.887 23.4909 34.0081 23.3385 34.1592 23.2188C34.3128 23.0964 34.4925 23.0052 34.6982 22.9453C34.9066 22.8854 35.1266 22.8555 35.3584 22.8555C35.4782 22.8555 35.598 22.8646 35.7178 22.8828C35.8376 22.901 35.9495 22.9258 36.0537 22.957C36.1579 22.9883 36.2503 23.0234 36.3311 23.0625C36.4118 23.1016 36.4652 23.1341 36.4912 23.1602C36.5173 23.1862 36.5342 23.2083 36.542 23.2266C36.5524 23.2448 36.5602 23.2695 36.5654 23.3008C36.5732 23.3294 36.5785 23.3672 36.5811 23.4141C36.5837 23.4583 36.585 23.5143 36.585 23.582C36.585 23.6576 36.5824 23.7214 36.5772 23.7734C36.5745 23.8255 36.568 23.8685 36.5576 23.9023C36.5498 23.9362 36.5368 23.9609 36.5186 23.9766C36.5029 23.9922 36.4808 24 36.4522 24C36.4235 24 36.3779 23.9818 36.3154 23.9453C36.2529 23.9089 36.1761 23.8698 36.085 23.8281C35.9938 23.7839 35.8883 23.7448 35.7686 23.7109C35.6488 23.6745 35.5173 23.6562 35.374 23.6562C35.262 23.6562 35.1644 23.6706 35.0811 23.6992C34.9977 23.7253 34.9274 23.763 34.8701 23.8125C34.8154 23.8594 34.7738 23.9167 34.7451 23.9844C34.7191 24.0521 34.7061 24.1237 34.7061 24.1992C34.7061 24.3112 34.736 24.4089 34.7959 24.4922C34.8584 24.5729 34.9404 24.6458 35.042 24.7109C35.1462 24.7734 35.2633 24.8333 35.3936 24.8906C35.5238 24.9453 35.6566 25.0039 35.792 25.0664C35.9274 25.1289 36.0602 25.2005 36.1904 25.2812C36.3206 25.3594 36.4365 25.4544 36.5381 25.5664C36.6397 25.6758 36.7217 25.806 36.7842 25.957C36.8467 26.1055 36.8779 26.2812 36.8779 26.4844Z" fill="#7554CC"/>
<path d="M31.1436 27.5703C31.1436 27.6484 31.1396 27.7148 31.1318 27.7695C31.1266 27.8216 31.1175 27.8659 31.1045 27.9023C31.0915 27.9362 31.0745 27.9609 31.0537 27.9766C31.0355 27.9922 31.0133 28 30.9873 28H28.6709C28.585 28 28.512 27.9753 28.4521 27.9258C28.3949 27.8737 28.3662 27.7904 28.3662 27.6758V23.0859C28.3662 23.0599 28.374 23.0365 28.3896 23.0156C28.4079 22.9948 28.4365 22.9779 28.4756 22.9648C28.5146 22.9518 28.5667 22.9414 28.6318 22.9336C28.6995 22.9258 28.7829 22.9219 28.8818 22.9219C28.9834 22.9219 29.0667 22.9258 29.1318 22.9336C29.1969 22.9414 29.249 22.9518 29.2881 22.9648C29.3271 22.9779 29.3545 22.9948 29.3701 23.0156C29.3883 23.0365 29.3975 23.0599 29.3975 23.0859V27.1523H30.9873C31.0133 27.1523 31.0355 27.1602 31.0537 27.1758C31.0745 27.1888 31.0915 27.2122 31.1045 27.2461C31.1175 27.2773 31.1266 27.3203 31.1318 27.375C31.1396 27.4271 31.1436 27.4922 31.1436 27.5703Z" fill="#7554CC"/>
<path d="M27.4954 27.6172C27.5266 27.7109 27.5462 27.7852 27.554 27.8398C27.5618 27.8945 27.5514 27.9362 27.5227 27.9648C27.4941 27.9909 27.4433 28.0065 27.3704 28.0117C27.2975 28.0195 27.1972 28.0234 27.0696 28.0234C26.9368 28.0234 26.8326 28.0208 26.7571 28.0156C26.6842 28.013 26.6282 28.0065 26.5891 27.9961C26.5501 27.9831 26.5227 27.9661 26.5071 27.9453C26.4915 27.9245 26.4785 27.8971 26.468 27.8633L26.1282 26.8477H24.2298L23.9094 27.8359C23.899 27.8724 23.8847 27.9036 23.8665 27.9297C23.8508 27.9531 23.8235 27.9727 23.7844 27.9883C23.748 28.0013 23.6946 28.0104 23.6243 28.0156C23.5566 28.0208 23.4667 28.0234 23.3548 28.0234C23.235 28.0234 23.1412 28.0195 23.0735 28.0117C23.0058 28.0039 22.9589 27.9857 22.9329 27.957C22.9068 27.9258 22.8977 27.8828 22.9055 27.8281C22.9133 27.7734 22.9329 27.7005 22.9641 27.6094L24.5227 23.125C24.5383 23.0807 24.5566 23.0456 24.5774 23.0195C24.5982 22.9909 24.6308 22.9701 24.6751 22.957C24.7219 22.9414 24.7857 22.9323 24.8665 22.9297C24.9472 22.9245 25.054 22.9219 25.1868 22.9219C25.3404 22.9219 25.4628 22.9245 25.554 22.9297C25.6451 22.9323 25.7154 22.9414 25.7649 22.957C25.817 22.9701 25.8535 22.9909 25.8743 23.0195C25.8977 23.0482 25.9173 23.0872 25.9329 23.1367L27.4954 27.6172ZM25.1751 23.9102H25.1712L24.4563 26.0586H25.8899L25.1751 23.9102Z" fill="#7554CC"/>
<path d="M22.4487 26.4844C22.4487 26.6641 22.424 26.8268 22.3745 26.9727C22.325 27.1185 22.256 27.2474 22.1675 27.3594C22.0815 27.4714 21.9774 27.5677 21.855 27.6484C21.7352 27.7292 21.6024 27.7956 21.4565 27.8477C21.3107 27.8997 21.1545 27.9388 20.9878 27.9648C20.8237 27.9883 20.6401 28 20.437 28H19.0933C19.0073 28 18.9344 27.9753 18.8745 27.9258C18.8172 27.8737 18.7886 27.7904 18.7886 27.6758V23.2695C18.7886 23.1549 18.8172 23.0729 18.8745 23.0234C18.9344 22.9714 19.0073 22.9453 19.0933 22.9453H20.3628C20.6727 22.9453 20.9344 22.9714 21.1479 23.0234C21.3641 23.0755 21.5451 23.1549 21.6909 23.2617C21.8394 23.3659 21.9526 23.4987 22.0308 23.6602C22.1089 23.8216 22.1479 24.0117 22.1479 24.2305C22.1479 24.3529 22.1323 24.4688 22.1011 24.5781C22.0698 24.6849 22.0243 24.7826 21.9644 24.8711C21.9045 24.9596 21.8302 25.0378 21.7417 25.1055C21.6558 25.1732 21.5568 25.2279 21.4448 25.2695C21.5881 25.2956 21.7196 25.3411 21.8394 25.4062C21.9618 25.4714 22.0672 25.556 22.1558 25.6602C22.2469 25.7617 22.3185 25.8815 22.3706 26.0195C22.4227 26.1576 22.4487 26.3125 22.4487 26.4844ZM21.1206 24.3555C21.1206 24.2539 21.105 24.1628 21.0737 24.082C21.0425 24.0013 20.9956 23.9349 20.9331 23.8828C20.8706 23.8281 20.7912 23.7865 20.6948 23.7578C20.6011 23.7292 20.4748 23.7148 20.3159 23.7148H19.7964V25.0273H20.3706C20.519 25.0273 20.6375 25.0104 20.7261 24.9766C20.8146 24.9401 20.8875 24.8919 20.9448 24.832C21.0047 24.7695 21.049 24.6979 21.0776 24.6172C21.1063 24.5339 21.1206 24.4466 21.1206 24.3555ZM21.3823 26.5195C21.3823 26.4023 21.3628 26.2982 21.3237 26.207C21.2847 26.1133 21.2274 26.0352 21.1519 25.9727C21.0763 25.9102 20.98 25.862 20.8628 25.8281C20.7456 25.7943 20.5933 25.7773 20.4058 25.7773H19.7964V27.2148H20.5386C20.6818 27.2148 20.8016 27.2005 20.8979 27.1719C20.9969 27.1406 21.0815 27.0964 21.1519 27.0391C21.2248 26.9792 21.2808 26.9062 21.3198 26.8203C21.3615 26.7318 21.3823 26.6315 21.3823 26.5195Z" fill="#7554CC"/>
<path d="M17.7612 25.4141C17.7612 25.8333 17.7091 26.2083 17.605 26.5391C17.5008 26.8698 17.3459 27.151 17.1401 27.3828C16.9344 27.612 16.6792 27.7878 16.3745 27.9102C16.0724 28.0299 15.7222 28.0898 15.3237 28.0898C14.9305 28.0898 14.5868 28.0391 14.2925 27.9375C14.0008 27.8333 13.7573 27.6758 13.562 27.4648C13.3667 27.2539 13.2196 26.9857 13.1206 26.6602C13.0243 26.3346 12.9761 25.9492 12.9761 25.5039C12.9761 25.0951 13.0282 24.7279 13.1323 24.4023C13.2365 24.0742 13.3914 23.7956 13.5972 23.5664C13.8029 23.3372 14.0568 23.1615 14.3589 23.0391C14.6636 22.9167 15.0164 22.8555 15.4175 22.8555C15.8003 22.8555 16.1375 22.9062 16.4292 23.0078C16.7235 23.1094 16.9683 23.2656 17.1636 23.4766C17.3615 23.6875 17.5099 23.9544 17.6089 24.2773C17.7104 24.5977 17.7612 24.9766 17.7612 25.4141ZM16.6831 25.4688C16.6831 25.2031 16.6623 24.9622 16.6206 24.7461C16.5789 24.5273 16.5073 24.3411 16.4058 24.1875C16.3068 24.0312 16.174 23.9115 16.0073 23.8281C15.8407 23.7422 15.6323 23.6992 15.3823 23.6992C15.1297 23.6992 14.9188 23.7474 14.7495 23.8438C14.5802 23.9375 14.4435 24.0638 14.3394 24.2227C14.2352 24.3815 14.161 24.5677 14.1167 24.7812C14.075 24.9922 14.0542 25.2161 14.0542 25.4531C14.0542 25.7292 14.075 25.9779 14.1167 26.1992C14.1584 26.418 14.2287 26.6055 14.3276 26.7617C14.4266 26.918 14.5594 27.0378 14.7261 27.1211C14.8927 27.2018 15.1024 27.2422 15.355 27.2422C15.6076 27.2422 15.8185 27.1953 15.9878 27.1016C16.1571 27.0078 16.2938 26.8802 16.3979 26.7188C16.5021 26.5573 16.575 26.3698 16.6167 26.1562C16.661 25.9401 16.6831 25.7109 16.6831 25.4688Z" fill="#7554CC"/>
<path d="M12.5898 27.5703C12.5898 27.6484 12.5859 27.7148 12.5781 27.7695C12.5729 27.8216 12.5638 27.8659 12.5508 27.9023C12.5378 27.9362 12.5208 27.9609 12.5 27.9766C12.4818 27.9922 12.4596 28 12.4336 28H10.1172C10.0312 28 9.95833 27.9753 9.89844 27.9258C9.84115 27.8737 9.8125 27.7904 9.8125 27.6758V23.0859C9.8125 23.0599 9.82031 23.0365 9.83594 23.0156C9.85417 22.9948 9.88281 22.9779 9.92188 22.9648C9.96094 22.9518 10.013 22.9414 10.0781 22.9336C10.1458 22.9258 10.2292 22.9219 10.3281 22.9219C10.4297 22.9219 10.513 22.9258 10.5781 22.9336C10.6432 22.9414 10.6953 22.9518 10.7344 22.9648C10.7734 22.9779 10.8008 22.9948 10.8164 23.0156C10.8346 23.0365 10.8438 23.0599 10.8438 23.0859V27.1523H12.4336C12.4596 27.1523 12.4818 27.1602 12.5 27.1758C12.5208 27.1888 12.5378 27.2122 12.5508 27.2461C12.5638 27.2773 12.5729 27.3203 12.5781 27.375C12.5859 27.4271 12.5898 27.4922 12.5898 27.5703Z" fill="#7554CC"/>
<path d="M8.60547 23.7305C8.60547 23.806 8.60156 23.8711 8.59375 23.9258C8.58854 23.9805 8.57943 24.0247 8.56641 24.0586C8.55599 24.0898 8.54167 24.112 8.52344 24.125C8.50781 24.138 8.48828 24.1445 8.46484 24.1445C8.43099 24.1445 8.3763 24.1211 8.30078 24.0742C8.22526 24.0273 8.125 23.9766 8 23.9219C7.875 23.8672 7.72526 23.8164 7.55078 23.7695C7.37891 23.7227 7.17839 23.6992 6.94922 23.6992C6.70443 23.6992 6.48307 23.7422 6.28516 23.8281C6.08724 23.9115 5.91797 24.0312 5.77734 24.1875C5.63672 24.3411 5.52865 24.5273 5.45312 24.7461C5.3776 24.9622 5.33984 25.2018 5.33984 25.4648C5.33984 25.7539 5.3776 26.0091 5.45312 26.2305C5.53125 26.4492 5.63932 26.6328 5.77734 26.7812C5.91536 26.9297 6.08073 27.0417 6.27344 27.1172C6.46875 27.1927 6.68359 27.2305 6.91797 27.2305C7.03255 27.2305 7.14583 27.2174 7.25781 27.1914C7.36979 27.1654 7.47396 27.1263 7.57031 27.0742V25.9023H6.61328C6.56641 25.9023 6.52995 25.8737 6.50391 25.8164C6.47786 25.7565 6.46484 25.6562 6.46484 25.5156C6.46484 25.4427 6.46745 25.3815 6.47266 25.332C6.48047 25.2826 6.49089 25.2435 6.50391 25.2148C6.51693 25.1836 6.53255 25.1615 6.55078 25.1484C6.56901 25.1328 6.58984 25.125 6.61328 25.125H8.32031C8.36198 25.125 8.39844 25.1328 8.42969 25.1484C8.46354 25.1615 8.49219 25.1823 8.51562 25.2109C8.54167 25.2396 8.5612 25.2747 8.57422 25.3164C8.58724 25.3555 8.59375 25.401 8.59375 25.4531V27.4648C8.59375 27.543 8.57943 27.612 8.55078 27.6719C8.52474 27.7292 8.46875 27.7747 8.38281 27.8086C8.29948 27.8424 8.19531 27.8776 8.07031 27.9141C7.94531 27.9505 7.8151 27.9818 7.67969 28.0078C7.54688 28.0339 7.41146 28.0534 7.27344 28.0664C7.13802 28.0794 7.0013 28.0859 6.86328 28.0859C6.45964 28.0859 6.09766 28.0286 5.77734 27.9141C5.45964 27.7969 5.1901 27.6289 4.96875 27.4102C4.7474 27.1888 4.57812 26.9206 4.46094 26.6055C4.34375 26.2878 4.28516 25.9284 4.28516 25.5273C4.28516 25.1133 4.34766 24.7422 4.47266 24.4141C4.59766 24.0833 4.77474 23.8034 5.00391 23.5742C5.23307 23.3424 5.50911 23.1654 5.83203 23.043C6.15755 22.9206 6.51953 22.8594 6.91797 22.8594C7.13672 22.8594 7.33594 22.875 7.51562 22.9062C7.69531 22.9349 7.85156 22.9714 7.98438 23.0156C8.11979 23.0573 8.23177 23.1029 8.32031 23.1523C8.40885 23.2018 8.47005 23.2448 8.50391 23.2812C8.54036 23.3177 8.56641 23.3698 8.58203 23.4375C8.59766 23.5026 8.60547 23.6003 8.60547 23.7305Z" fill="#7554CC"/>
</svg>
