<svg width="16" height="16" viewBox="0 0 16 16" fill="none" xmlns="http://www.w3.org/2000/svg">
<path d="M8 0C11.0087 4.41188e-06 13.1449 0.918555 14.4639 2.61426C15.7213 4.23121 16 6.26686 16 8C16 9.73314 15.7213 11.7688 14.4639 13.3857C13.1449 15.0813 11.0087 16 8 16C4.99133 16 2.85502 15.0813 1.53613 13.3857C0.278534 11.7688 2.32038e-06 9.73313 0 8C0 6.26687 0.278547 4.23121 1.53613 2.61426C2.85502 0.918551 4.99133 0 8 0ZM8 6.40039C7.55817 6.40039 7.2002 6.75837 7.2002 7.2002V12C7.20031 12.4417 7.55824 12.7998 8 12.7998C8.44175 12.7998 8.79969 12.4417 8.7998 12V7.2002C8.7998 6.75838 8.44182 6.4004 8 6.40039ZM8.00098 3.20312C7.98209 3.20179 7.96258 3.20021 7.94336 3.2002C7.35005 3.20036 6.86931 3.68111 6.86914 4.27441C6.86915 4.86786 7.34995 5.34944 7.94336 5.34961C7.96258 5.3496 7.9821 5.34802 8.00098 5.34668C8.02018 5.34806 8.04002 5.34961 8.05957 5.34961C8.65289 5.34934 9.13378 4.86779 9.13379 4.27441C9.13362 3.68117 8.65279 3.20046 8.05957 3.2002C8.04001 3.2002 8.02019 3.20174 8.00098 3.20312Z" fill="#4D368A"/>
</svg>
