<svg width="48" height="48" viewBox="0 0 48 48" fill="none" xmlns="http://www.w3.org/2000/svg">
<circle opacity="0.1" cx="24" cy="24" r="24" fill="#7554CC"/>
<circle opacity="0.2" cx="24" cy="23.9998" r="19.2" fill="#7554CC"/>
<circle cx="24" cy="24.0006" r="14.4" fill="#7554CC"/>
<path d="M25.92 29.0403C25.92 29.231 25.8444 29.4146 25.7094 29.5496C25.5744 29.6846 25.3908 29.7602 25.2 29.7602H22.32C21.9222 29.7602 21.6 29.438 21.6 29.0402C21.6 28.6424 21.9222 28.3203 22.32 28.3203H23.04V23.2803H22.32C21.9222 23.2803 21.6 22.9581 21.6 22.5603C21.6 22.1625 21.9222 21.8403 22.32 21.8403H23.76C23.9508 21.8403 24.1344 21.9159 24.2694 22.0509C24.4044 22.1859 24.48 22.3695 24.48 22.5603V28.3202H25.2C25.3908 28.3202 25.5744 28.3958 25.7094 28.5308C25.8444 28.6658 25.92 28.8495 25.92 29.0403ZM22.32 19.3203C22.32 18.8838 22.5828 18.4896 22.9869 18.3222C23.3901 18.1557 23.8545 18.2475 24.1641 18.5562C24.4728 18.8658 24.5646 19.3302 24.3981 19.7334C24.2307 20.1374 23.8365 20.4002 23.4 20.4002C22.8033 20.4002 22.32 19.9169 22.32 19.3203Z" fill="white"/>
</svg>
