<svg width="48" height="48" viewBox="0 0 48 48" fill="none" xmlns="http://www.w3.org/2000/svg">
<circle opacity="0.1" cx="24" cy="24" r="24" fill="#7554CC"/>
<circle opacity="0.3" cx="23.9997" cy="24.0002" r="20.0002" fill="#7554CC"/>
<circle cx="24.0001" cy="24.0021" r="15.9981" fill="#7554CC"/>
<path d="M30.0086 19.2993C29.1419 17.5493 27.4669 16.2576 25.5253 15.8326C23.4919 15.3826 21.4086 15.8659 19.8169 17.1493C18.2169 18.4243 17.3086 20.3326 17.3086 22.3743C17.3086 24.5326 18.6003 26.7909 20.5503 28.0993V28.7909C20.5419 29.0243 20.5336 29.3826 20.8169 29.6743C21.1086 29.9743 21.5419 30.0076 21.8836 30.0076H26.1586C26.6086 30.0076 26.9503 29.8826 27.1836 29.6493C27.5003 29.3243 27.4919 28.9076 27.4836 28.6826V28.0993C30.0669 26.3576 31.6919 22.6826 30.0086 19.2993Z" fill="white"/>
<path d="M26.717 32.3337C26.667 32.3337 26.6086 32.3253 26.5586 32.3087C24.8836 31.8337 23.1253 31.8337 21.4503 32.3087C21.142 32.392 20.817 32.217 20.7336 31.9087C20.642 31.6003 20.8253 31.2753 21.1336 31.192C23.017 30.6587 25.0003 30.6587 26.8836 31.192C27.192 31.2837 27.3753 31.6003 27.2836 31.9087C27.2003 32.167 26.967 32.3337 26.717 32.3337Z" fill="white"/>
</svg>
