<svg width="48" height="32" viewBox="0 0 48 32" fill="none" xmlns="http://www.w3.org/2000/svg">
<path d="M28.7728 25.435H18.2241V6.56641H28.7728V25.435Z" fill="#FF5F00"/>
<path d="M18.9013 16C18.9013 12.1724 20.7019 8.76292 23.5058 6.5657C21.4554 4.95899 18.8676 4 16.0552 4C9.39712 4 4 9.3725 4 16C4 22.6275 9.39712 28 16.0552 28C18.8676 28 21.4554 27.041 23.5058 25.4343C20.7019 23.2371 18.9013 19.8276 18.9013 16Z" fill="#EB001B"/>
<path d="M43 16C43 22.6275 37.6029 28 30.9448 28C28.1324 28 25.5446 27.041 23.4934 25.4343C26.2981 23.2371 28.0987 19.8276 28.0987 16C28.0987 12.1724 26.2981 8.76292 23.4934 6.5657C25.5446 4.95899 28.1324 4 30.9448 4C37.6029 4 43 9.3725 43 16Z" fill="#F79E1B"/>
</svg>
