<svg width="110" height="20" viewBox="0 0 110 20" fill="none" xmlns="http://www.w3.org/2000/svg">
  <g transform="translate(7.377, 3.698)">
    <path d="M77.377 0.198L95.323 0.198C96.123 0.198 96.773 0.473 97.273 1.023C97.773 1.573 98.023 2.223 98.023 3.023C98.023 3.823 97.773 4.473 97.273 5.023C96.773 5.573 96.123 5.848 95.323 5.848L91.573 5.848L91.573 13.194L87.323 13.194L87.323 5.848L83.573 5.848L83.573 13.194L77.377 13.194L77.377 0.198Z" fill="#7554CC"/>
    <path d="M66.013 0L77.767 0C78.567 0 79.217 0.275 79.717 0.825C80.217 1.375 80.467 2.025 80.467 2.825L80.467 10.657C80.467 11.457 80.217 12.107 79.717 12.657C79.217 13.207 78.567 13.482 77.767 13.482L66.013 13.482L66.013 0Z" fill="#7554CC"/>
    <path d="M54.093 0.198L64.173 0.198C65.773 0.198 67.073 0.723 68.073 1.773C69.073 2.823 69.573 4.123 69.573 5.673C69.573 7.223 69.073 8.523 68.073 9.573C67.073 10.623 65.773 11.148 64.173 11.148L59.173 11.148L59.173 13.302L54.093 13.302L54.093 0.198Z" fill="#7554CC"/>
    <path d="M44.880 0.198L54.630 0.198C56.230 0.198 57.530 0.723 58.530 1.773C59.530 2.823 60.030 4.123 60.030 5.673C60.030 7.223 59.530 8.523 58.530 9.573C57.530 10.623 56.230 11.148 54.630 11.148L49.630 11.148L49.630 13.302L44.880 13.302L44.880 0.198Z" fill="#7554CC"/>
    <path d="M32.488 0.198L44.488 0.198C45.288 0.198 45.938 0.473 46.438 1.023C46.938 1.573 47.188 2.223 47.188 3.023L47.188 10.657C47.188 11.457 46.938 12.107 46.438 12.657C45.938 13.207 45.288 13.482 44.488 13.482L32.488 13.482L32.488 0.198Z" fill="#7554CC"/>
    <path d="M20.953 0.198L32.053 0.198C32.853 0.198 33.503 0.473 34.003 1.023C34.503 1.573 34.753 2.223 34.753 3.023L34.753 10.657C34.753 11.457 34.503 12.107 34.003 12.657C33.503 13.207 32.853 13.482 32.053 13.482L20.953 13.482L20.953 0.198Z" fill="#7554CC"/>
    <path d="M15.523 0.198L21.373 0.198L21.373 13.302L15.523 13.302L15.523 0.198Z" fill="#7554CC"/>
    <path d="M0 0.198L14.040 0.198C14.840 0.198 15.490 0.473 15.990 1.023C16.490 1.573 16.740 2.223 16.740 3.023L16.740 10.657C16.740 11.457 16.490 12.107 15.990 12.657C15.490 13.207 14.840 13.482 14.040 13.482L0 13.482L0 0.198Z" fill="#7554CC"/>
  </g>
</svg>
