<svg width="96" height="14" viewBox="0 0 96 14" fill="none" xmlns="http://www.w3.org/2000/svg">
<path d="M85.3874 2.52024C84.7934 0.864242 84.3434 0.594243 83.7854 0.504243V0.198242H90.1574V0.504243C89.1494 0.576243 88.2314 1.26024 88.6454 2.48424L90.7154 8.67624C91.4714 6.44424 92.1914 4.33824 92.6414 2.59224C92.9654 1.40424 92.5154 0.594243 91.5074 0.504243V0.198242H95.3234V0.504243C94.4954 0.612242 93.8294 1.04424 93.3074 2.41224C92.1554 5.47224 90.9674 9.46824 89.6534 13.3922H89.2394L86.6474 6.08424L84.0194 13.3922H83.6054L79.2494 2.23224C78.7994 1.08024 78.0974 0.576243 77.3774 0.504243V0.198242H83.1914V0.504243C82.6874 0.576243 82.0574 0.972242 82.5794 2.32224L85.1534 8.89224L86.4134 5.43624L85.3874 2.52024Z" fill="#7554CC"/>
<path d="M71.9537 13.482C68.7137 13.482 66.0137 10.854 66.0137 6.75C66.0137 2.61 68.6957 0 71.9177 0C75.1217 0 77.7677 2.574 77.7677 6.66C77.7677 10.818 75.1217 13.482 71.9537 13.482ZM69.2717 6.624C69.2717 10.602 70.0277 13.014 72.1877 13.014C73.9877 13.014 74.5097 10.746 74.5097 6.984C74.5097 2.898 73.8437 0.467999 71.7917 0.467999C69.8657 0.467999 69.2717 2.754 69.2717 6.624Z" fill="#7554CC"/>
<path d="M55.2733 12.9962C56.0473 12.8882 56.4613 12.5462 56.4613 11.5562V1.74624C56.4613 0.954242 56.0473 0.612242 55.0933 0.504243V0.198242H60.9433V0.504243C59.9713 0.594243 59.5213 0.936242 59.5213 1.74624V11.5022C59.5213 12.5102 59.9713 12.8522 60.9073 12.8522H61.0873C62.5813 12.8522 63.9313 11.9522 64.8133 9.36024H65.1733L64.9753 13.3022H55.2733V12.9962Z" fill="#7554CC"/>
<path d="M44.8804 12.9962C45.6544 12.8882 46.0684 12.5462 46.0684 11.9162V1.94424C46.0684 0.954242 45.6544 0.612242 44.8804 0.504243V0.198242H54.2404L54.4204 4.03224H54.0784C53.3944 1.76424 52.0624 0.648243 50.5684 0.648243H50.4244C49.7764 0.648243 49.1284 1.15224 49.1284 1.94424V6.03024C50.1184 6.03024 50.2984 6.03024 50.4964 6.01224C52.0984 5.90424 52.7284 4.95024 52.8364 3.87024H53.1604V8.76624H52.8364C52.6744 7.30824 51.8104 6.60624 50.4964 6.51624C50.2984 6.49824 50.1184 6.49824 49.1284 6.48024V11.9162C49.1284 12.5642 49.5784 12.9062 50.6044 12.9962V13.3022H44.8804V12.9962Z" fill="#7554CC"/>
<path d="M32.4878 12.9962C33.4418 12.8882 33.8558 12.5462 33.8558 11.5562V1.94424C33.8558 0.954242 33.4418 0.612242 32.4878 0.504243V0.198242H38.3558C42.3338 0.198242 44.4218 2.89824 44.4218 6.66024C44.4218 10.8002 41.8478 13.3022 38.1758 13.3022H32.4878V12.9962ZM36.9158 11.6822C36.9158 12.5102 37.1858 12.8522 38.0678 12.8522H38.2658C39.6698 12.8522 41.1638 11.1242 41.1638 6.98424C41.1638 2.28624 39.7598 0.648243 38.2298 0.648243H38.0678C37.1858 0.648243 36.9158 0.990243 36.9158 1.81824V11.6822Z" fill="#7554CC"/>
<path d="M20.9531 12.9962C21.7091 12.8882 22.1411 12.2762 22.2311 10.4762C22.3571 8.24424 22.2311 4.91424 22.2491 1.60224C22.2491 0.954242 21.7271 0.594243 21.0431 0.504243V0.198242H25.0211L29.9891 7.70424C30.0071 5.83224 30.0431 4.06824 29.9891 3.20424C29.8811 1.38624 29.0891 0.576243 27.9731 0.504243V0.198242H32.0051V0.504243C31.1951 0.594243 30.6371 1.24224 30.5291 2.79024C30.3491 5.65224 30.5291 9.43224 30.4931 13.3022H30.1871L22.7171 2.19624C22.7351 5.65224 22.7351 8.46024 22.7891 10.4582C22.8251 12.0242 23.7611 12.9242 24.8051 12.9962V13.3022H20.9531V12.9962Z" fill="#7554CC"/>
<path d="M14.5229 12.9962C15.4769 12.8882 15.8909 12.5462 15.8909 11.7542V1.74624C15.8909 0.954242 15.4769 0.612242 14.5229 0.504243V0.198242H20.3729V0.504243C19.4009 0.594243 18.9509 0.936242 18.9509 1.74624V11.7542C18.9509 12.5642 19.4009 12.9062 20.3729 12.9962V13.3022H14.5229V12.9962Z" fill="#7554CC"/>
<path d="M0 12.9962C0.684 12.9062 1.35 12.5462 1.458 11.1782C1.656 8.55024 1.674 5.20224 1.782 1.85424C1.818 0.954242 1.116 0.594243 0.522 0.504243V0.198242H4.878L7.164 7.12824L9.342 0.198242H13.698V0.504243C12.996 0.594243 12.474 0.954242 12.474 1.85424L12.564 11.7182C12.564 12.5462 13.068 12.9062 14.04 12.9962V13.3022H8.046V12.9962C9.144 12.8702 9.504 12.5282 9.504 11.7182L9.45 1.45824L6.084 12.2222H5.778L2.268 2.21424C2.142 5.50824 2.034 8.65824 2.088 11.1782C2.106 12.5282 2.538 12.8702 3.78 12.9962V13.3022H0V12.9962Z" fill="#7554CC"/>
</svg>
