<svg width="12" height="16" viewBox="0 0 12 16" fill="none" xmlns="http://www.w3.org/2000/svg">
<path fill-rule="evenodd" clip-rule="evenodd" d="M5.89457 0.145557C6.87607 0.126596 7.84475 0.370698 8.70005 0.852521C9.5554 1.33435 10.2661 2.03633 10.7585 2.88558C11.2507 3.73462 11.5068 4.69991 11.5002 5.6813C11.4959 6.69987 11.2075 7.69703 10.6676 8.56078C10.5011 8.82721 10.3432 9.06367 10.2033 9.2732C10.1597 9.33844 10.1178 9.40123 10.0779 9.46134C9.90649 9.7203 9.77106 9.93468 9.6626 10.1484C9.45826 10.5512 9.33381 10.9814 9.33381 11.7014C9.33381 11.9982 9.21592 12.2828 9.00607 12.4926C8.79621 12.7025 8.51159 12.8204 8.21482 12.8204H3.78653C3.48976 12.8204 3.20513 12.7025 2.99528 12.4926C2.78542 12.2828 2.66753 11.9982 2.66753 11.7014C2.66753 10.9919 2.55483 10.5672 2.36393 10.1751C2.21666 9.87269 2.03005 9.59661 1.77753 9.22301C1.66391 9.05492 1.53695 8.86708 1.39421 8.64822C0.857974 7.82594 0.551608 6.87511 0.506922 5.89445C0.462237 4.91379 0.680854 3.93903 1.14009 3.07139C1.59932 2.20375 2.28242 1.47484 3.11848 0.960347C3.95453 0.44585 4.91307 0.164519 5.89457 0.145557ZM4.49815 14.1445C4.02476 14.1445 3.641 14.5283 3.641 15.0017C3.641 15.475 4.02476 15.8588 4.49815 15.8588H7.50356C7.97694 15.8588 8.3607 15.475 8.3607 15.0017C8.3607 14.5283 7.97694 14.1445 7.50356 14.1445H4.49815Z" fill="#4D368A"/>
</svg>
