<svg width="16" height="16" viewBox="0 0 16 16" fill="none" xmlns="http://www.w3.org/2000/svg">
<path d="M8 6.66406C7.54333 6.66406 7.10067 6.69072 6.66667 6.73072V11.3307C6.66667 11.5075 6.59643 11.6771 6.4714 11.8021C6.34638 11.9272 6.17681 11.9974 6 11.9974C5.82319 11.9974 5.65362 11.9272 5.5286 11.8021C5.40357 11.6771 5.33333 11.5075 5.33333 11.3307L5.31867 5.40739L8.658 4.02339C8.8614 3.92003 9.03488 3.76621 9.16184 3.57664C9.2888 3.38707 9.36498 3.16809 9.38311 2.94065C9.40124 2.71322 9.3607 2.48493 9.26538 2.27764C9.17005 2.07036 9.02313 1.89099 8.83867 1.75672C8.81733 1.73739 5.93333 0.138723 5.93333 0.138723C5.72996 0.0362409 5.50372 -0.0124407 5.27619 -0.00268116C5.04867 0.0070784 4.82743 0.0749539 4.63358 0.194475C4.43972 0.313995 4.27971 0.481177 4.1688 0.680082C4.05789 0.878987 3.99978 1.10299 4 1.33072V7.27872C1.59467 8.07406 0 9.57139 0 11.3307C0 13.9474 3.514 15.9974 8 15.9974C12.486 15.9974 16 13.9474 16 11.3307C16 8.71406 12.486 6.66406 8 6.66406ZM10.6667 12.6641C10.403 12.6641 10.1452 12.5859 9.92591 12.4394C9.70664 12.2928 9.53574 12.0846 9.43483 11.841C9.33391 11.5973 9.30751 11.3292 9.35895 11.0706C9.4104 10.812 9.53739 10.5744 9.72386 10.3879C9.91033 10.2014 10.1479 10.0745 10.4065 10.023C10.6652 9.97156 10.9333 9.99797 11.1769 10.0989C11.4205 10.1998 11.6288 10.3707 11.7753 10.59C11.9218 10.8092 12 11.067 12 11.3307C12 11.6843 11.8595 12.0235 11.6095 12.2735C11.3594 12.5236 11.0203 12.6641 10.6667 12.6641Z" fill="#4D368A"/>
</svg>
