<svg width="50" height="48" viewBox="0 0 50 48" fill="none" xmlns="http://www.w3.org/2000/svg">
<g filter="url(#filter0_d_752_477)">
<g clip-path="url(#clip0_752_477)">
<path opacity="0.1" d="M31.4255 6.24023C38.5692 6.24029 44.3218 12.0518 44.322 19.1797C44.322 25.873 41.1988 31.0647 37.7107 34.6387C34.2995 38.1337 30.2585 40.3884 27.4597 41.3535L27.4607 41.3555C27.4502 41.3592 27.439 41.3616 27.4285 41.3652C27.4235 41.3669 27.4188 41.3694 27.4138 41.3711L27.4128 41.3701C26.5079 41.6815 25.6191 41.7598 24.9597 41.7598C24.3002 41.7597 23.4116 41.6816 22.5066 41.3701V41.3711C22.5013 41.3693 22.4962 41.367 22.491 41.3652C22.4807 41.3617 22.47 41.3591 22.4597 41.3555V41.3535C19.661 40.3883 15.6197 38.1335 12.2087 34.6387C8.72072 31.0648 5.59839 25.8728 5.59839 19.1797C5.5986 12.0518 11.3512 6.24023 18.4949 6.24023C20.8573 6.24029 23.0653 6.88021 24.9617 7.98926C26.8619 6.87919 29.0722 6.24023 31.4255 6.24023Z" fill="#7554CC" stroke="#7554CC" stroke-width="9.6" stroke-linecap="round" stroke-linejoin="round"/>
<path opacity="0.2" d="M31.4255 8.63965C37.2325 8.63971 41.9214 13.3661 41.9216 19.1797C41.9216 25.0746 39.1814 29.697 35.9939 32.9629C32.8354 36.1991 29.0943 38.2622 26.6384 39.1006L26.6375 39.0986C26.0601 39.2983 25.4522 39.3604 24.9597 39.3604C24.4671 39.3603 23.8594 39.2984 23.282 39.0986V39.1006C20.8261 38.2622 17.0851 36.1991 13.9265 32.9629C10.739 29.697 7.9978 25.0747 7.9978 19.1797C7.99802 13.366 12.6878 8.63965 18.4949 8.63965C20.9411 8.63972 23.1841 9.48385 24.9607 10.8887C26.7417 9.48279 28.9903 8.63965 31.4255 8.63965Z" fill="#7554CC" stroke="#7554CC" stroke-width="4.8" stroke-linecap="round" stroke-linejoin="round"/>
<path d="M25.8628 36.829C25.3677 37.0037 24.5523 37.0037 24.0572 36.829C19.8342 35.3874 10.3982 29.3733 10.3982 19.1801C10.3982 14.6805 14.0241 11.04 18.4946 11.04C21.1448 11.04 23.4893 12.3215 24.96 14.3019C26.4307 12.3215 28.7897 11.04 31.4254 11.04C35.8959 11.04 39.5218 14.6805 39.5218 19.1801C39.5218 29.3733 30.0857 35.3874 25.8628 36.829Z" fill="#7554CC"/>
</g>
</g>
<defs>
<filter id="filter0_d_752_477" x="6.67572e-06" y="-0.48" width="49.92" height="49.92" filterUnits="userSpaceOnUse" color-interpolation-filters="sRGB">
<feFlood flood-opacity="0" result="BackgroundImageFix"/>
<feColorMatrix in="SourceAlpha" type="matrix" values="0 0 0 0 0 0 0 0 0 0 0 0 0 0 0 0 0 0 127 0" result="hardAlpha"/>
<feOffset dy="0.48"/>
<feGaussianBlur stdDeviation="0.48"/>
<feComposite in2="hardAlpha" operator="out"/>
<feColorMatrix type="matrix" values="0 0 0 0 0 0 0 0 0 0 0 0 0 0 0 0 0 0 0.1 0"/>
<feBlend mode="color-burn" in2="BackgroundImageFix" result="effect1_dropShadow_752_477"/>
<feBlend mode="normal" in="SourceGraphic" in2="effect1_dropShadow_752_477" result="shape"/>
</filter>
<clipPath id="clip0_752_477">
<rect x="0.960007" width="48" height="48" rx="9.6" fill="white"/>
</clipPath>
</defs>
</svg>
