<svg width="88" height="16" fill="none" xmlns="http://www.w3.org/2000/svg"><rect width="16" height="16" rx="4" fill="#0DCF38"/><path d="M9.322 6.373H13.6l-.641.454L8.8 9.601l1.504-.275 1.157 3.475L8 10.346 4.539 12.8 5.86 8.828 2.4 6.373h4.278L8 2.4l1.322 3.973z" fill="#fff"/><rect x="18" width="16" height="16" rx="4" fill="#0DCF38"/><path d="M27.322 6.373H31.6l-.641.454L26.8 9.601l1.504-.275 1.157 3.475L26 10.346 22.539 12.8l1.322-3.973L20.4 6.373h4.278L26 2.4l1.322 3.973z" fill="#fff"/><rect x="36" width="16" height="16" rx="4" fill="#0DCF38"/><path d="M45.322 6.373H49.6l-.641.454L44.8 9.601l1.504-.275 1.157 3.475L44 10.346 40.539 12.8l1.322-3.973L38.4 6.373h4.278L44 2.4l1.322 3.973z" fill="#fff"/><rect x="54" width="16" height="16" rx="4" fill="#0DCF38"/><path d="M63.322 6.373H67.6l-.641.454L62.8 9.601l1.504-.275 1.157 3.475L62 10.346 58.539 12.8l1.322-3.973L56.4 6.373h4.278L62 2.4l1.322 3.973z" fill="#fff"/><rect x="72" width="16" height="16" rx="4" fill="#0DCF38"/><path d="M81.322 6.373H85.6l-.641.454L80.8 9.601l1.504-.275 1.157 3.475L80 10.346 76.539 12.8l1.322-3.973L74.4 6.373h4.278L80 2.4l1.322 3.973z" fill="#fff"/></svg>