<svg width="48" height="48" viewBox="0 0 48 48" fill="none" xmlns="http://www.w3.org/2000/svg">
<circle opacity="0.1" cx="24" cy="24" r="24" fill="#7554CC"/>
<circle opacity="0.3" cx="23.9997" cy="24.0002" r="20.0002" fill="#7554CC"/>
<circle cx="24.0001" cy="24.0021" r="15.9981" fill="#7554CC"/>
<path d="M23.9998 28.31V19.6907C23.9998 18.2058 22.2046 17.4622 21.1547 18.5122L16.2558 23.4111C15.9303 23.7365 15.9303 24.2641 16.2558 24.5896L21.1547 29.4885C22.2046 30.5384 23.9998 29.7948 23.9998 28.31Z" fill="white"/>
<path d="M31.4998 28.31V19.6907C31.4998 18.2058 29.7046 17.4622 28.6547 18.5122L23.7558 23.4111C23.4303 23.7365 23.4303 24.2641 23.7558 24.5896L28.6547 29.4885C29.7046 30.5384 31.4998 29.7948 31.4998 28.31Z" fill="white"/>
</svg>
