<svg width="16" height="16" viewBox="0 0 16 16" fill="none" xmlns="http://www.w3.org/2000/svg">
<path d="M8.00098 1.33203C11.6743 1.33203 14.668 4.32569 14.668 7.99902C14.6679 11.6723 11.6743 14.666 8.00098 14.666C4.32772 14.666 1.33406 11.6723 1.33398 7.99902C1.33398 4.32571 4.32767 1.33207 8.00098 1.33203ZM8 4.83203C7.72392 4.83203 7.50011 5.05598 7.5 5.33203V8.66504C7.5 8.79752 7.55288 8.92481 7.64648 9.01855L9.64648 11.0186C9.84175 11.2138 10.1583 11.2138 10.3535 11.0186C10.5485 10.8233 10.5487 10.5067 10.3535 10.3115L8.5 8.45801V5.33203C8.49989 5.05598 8.27608 4.83203 8 4.83203Z" fill="#4D368A"/>
</svg>
