<svg width="24" height="25" viewBox="0 0 24 25" fill="none" xmlns="http://www.w3.org/2000/svg">
<path d="M12.0001 5.22266C7.22008 5.22266 3.33008 9.11266 3.33008 13.8927C3.33008 18.6727 7.22008 22.5727 12.0001 22.5727C16.7801 22.5727 20.6701 18.6827 20.6701 13.9027C20.6701 9.12266 16.7801 5.22266 12.0001 5.22266ZM12.7501 13.5727C12.7501 13.9827 12.4101 14.3227 12.0001 14.3227C11.5901 14.3227 11.2501 13.9827 11.2501 13.5727V8.57266C11.2501 8.16266 11.5901 7.82266 12.0001 7.82266C12.4101 7.82266 12.7501 8.16266 12.7501 8.57266V13.5727Z" fill="white"/>
<path d="M14.8899 4.02422H9.10989C8.70989 4.02422 8.38989 3.70422 8.38989 3.30422C8.38989 2.90422 8.70989 2.57422 9.10989 2.57422H14.8899C15.2899 2.57422 15.6099 2.89422 15.6099 3.29422C15.6099 3.69422 15.2899 4.02422 14.8899 4.02422Z" fill="white"/>
</svg>
