<svg width="36" height="36" viewBox="0 0 36 36" fill="none" xmlns="http://www.w3.org/2000/svg">
<circle cx="18" cy="18" r="16" stroke="#4D368A" stroke-width="2" stroke-linecap="round" stroke-linejoin="round" stroke-dasharray="1 5"/>
<g clip-path="url(#clip0_286_5968)">
<path d="M12.1673 19.6667C12.6276 19.6667 13.0006 19.2936 13.0006 18.8333C13.0006 18.3731 12.6276 18 12.1673 18C11.7071 18 11.334 18.3731 11.334 18.8333C11.334 19.2936 11.7071 19.6667 12.1673 19.6667Z" fill="#4D368A"/>
<path d="M8.83333 16.3346C9.29357 16.3346 9.66667 15.9615 9.66667 15.5013C9.66667 15.0411 9.29357 14.668 8.83333 14.668C8.3731 14.668 8 15.0411 8 15.5013C8 15.9615 8.3731 16.3346 8.83333 16.3346Z" fill="#4D368A"/>
<path d="M12.1673 12.9987C12.6276 12.9987 13.0006 12.6256 13.0006 12.1654C13.0006 11.7051 12.6276 11.332 12.1673 11.332C11.7071 11.332 11.334 11.7051 11.334 12.1654C11.334 12.6256 11.7071 12.9987 12.1673 12.9987Z" fill="#4D368A"/>
<path d="M8.83333 9.66667C9.29357 9.66667 9.66667 9.29357 9.66667 8.83333C9.66667 8.3731 9.29357 8 8.83333 8C8.3731 8 8 8.3731 8 8.83333C8 9.29357 8.3731 9.66667 8.83333 9.66667Z" fill="#4D368A"/>
<path d="M27.1673 19.6667C27.6276 19.6667 28.0007 19.2936 28.0007 18.8333C28.0007 18.3731 27.6276 18 27.1673 18C26.7071 18 26.334 18.3731 26.334 18.8333C26.334 19.2936 26.7071 19.6667 27.1673 19.6667Z" fill="#4D368A"/>
<path d="M23.8333 16.3346C24.2936 16.3346 24.6667 15.9615 24.6667 15.5013C24.6667 15.0411 24.2936 14.668 23.8333 14.668C23.3731 14.668 23 15.0411 23 15.5013C23 15.9615 23.3731 16.3346 23.8333 16.3346Z" fill="#4D368A"/>
<path d="M27.1673 12.9987C27.6276 12.9987 28.0007 12.6256 28.0007 12.1654C28.0007 11.7051 27.6276 11.332 27.1673 11.332C26.7071 11.332 26.334 11.7051 26.334 12.1654C26.334 12.6256 26.7071 12.9987 27.1673 12.9987Z" fill="#4D368A"/>
<path d="M23.8333 9.66667C24.2936 9.66667 24.6667 9.29357 24.6667 8.83333C24.6667 8.3731 24.2936 8 23.8333 8C23.3731 8 23 8.3731 23 8.83333C23 9.29357 23.3731 9.66667 23.8333 9.66667Z" fill="#4D368A"/>
<path d="M19.6673 27.9987C20.1276 27.9987 20.5007 27.6256 20.5007 27.1654C20.5007 26.7051 20.1276 26.332 19.6673 26.332C19.2071 26.332 18.834 26.7051 18.834 27.1654C18.834 27.6256 19.2071 27.9987 19.6673 27.9987Z" fill="#4D368A"/>
<path d="M16.3333 24.6667C16.7936 24.6667 17.1667 24.2936 17.1667 23.8333C17.1667 23.3731 16.7936 23 16.3333 23C15.8731 23 15.5 23.3731 15.5 23.8333C15.5 24.2936 15.8731 24.6667 16.3333 24.6667Z" fill="#4D368A"/>
<path d="M19.6673 21.3346C20.1276 21.3346 20.5007 20.9615 20.5007 20.5013C20.5007 20.0411 20.1276 19.668 19.6673 19.668C19.2071 19.668 18.834 20.0411 18.834 20.5013C18.834 20.9615 19.2071 21.3346 19.6673 21.3346Z" fill="#4D368A"/>
<path d="M16.3333 17.9987C16.7936 17.9987 17.1667 17.6256 17.1667 17.1654C17.1667 16.7051 16.7936 16.332 16.3333 16.332C15.8731 16.332 15.5 16.7051 15.5 17.1654C15.5 17.6256 15.8731 17.9987 16.3333 17.9987Z" fill="#4D368A"/>
<path d="M20.4993 10.5C20.0573 10.5 19.6334 10.3244 19.3208 10.0118C19.0083 9.69928 18.8327 9.27536 18.8327 8.83333C18.8327 8.61232 18.7449 8.40036 18.5886 8.24408C18.4323 8.0878 18.2204 8 17.9993 8C17.7783 8 17.5664 8.0878 17.4101 8.24408C17.2538 8.40036 17.166 8.61232 17.166 8.83333C17.166 9.27536 16.9904 9.69928 16.6779 10.0118C16.3653 10.3244 15.9414 10.5 15.4993 10.5C15.2783 10.5 15.0664 10.5878 14.9101 10.7441C14.7538 10.9004 14.666 11.1123 14.666 11.3333C14.666 11.5543 14.7538 11.7663 14.9101 11.9226C15.0664 12.0789 15.2783 12.1667 15.4993 12.1667C15.9414 12.1667 16.3653 12.3423 16.6779 12.6548C16.9904 12.9674 17.166 13.3913 17.166 13.8333C17.166 14.0543 17.2538 14.2663 17.4101 14.4226C17.5664 14.5789 17.7783 14.6667 17.9993 14.6667C18.2204 14.6667 18.4323 14.5789 18.5886 14.4226C18.7449 14.2663 18.8327 14.0543 18.8327 13.8333C18.8327 13.3913 19.0083 12.9674 19.3208 12.6548C19.6334 12.3423 20.0573 12.1667 20.4993 12.1667C20.7204 12.1667 20.9323 12.0789 21.0886 11.9226C21.2449 11.7663 21.3327 11.5543 21.3327 11.3333C21.3327 11.1123 21.2449 10.9004 21.0886 10.7441C20.9323 10.5878 20.7204 10.5 20.4993 10.5Z" fill="#4D368A"/>
<path d="M13.8333 23.832C13.3913 23.832 12.9674 23.6564 12.6548 23.3439C12.3423 23.0313 12.1667 22.6074 12.1667 22.1654C12.1667 21.9443 12.0789 21.7324 11.9226 21.5761C11.7663 21.4198 11.5543 21.332 11.3333 21.332C11.1123 21.332 10.9004 21.4198 10.7441 21.5761C10.5878 21.7324 10.5 21.9443 10.5 22.1654C10.5 22.6074 10.3244 23.0313 10.0118 23.3439C9.69928 23.6564 9.27536 23.832 8.83333 23.832C8.61232 23.832 8.40036 23.9198 8.24408 24.0761C8.0878 24.2324 8 24.4443 8 24.6654C8 24.8864 8.0878 25.0983 8.24408 25.2546C8.40036 25.4109 8.61232 25.4987 8.83333 25.4987C9.27536 25.4987 9.69928 25.6743 10.0118 25.9868C10.3244 26.2994 10.5 26.7233 10.5 27.1654C10.5 27.3864 10.5878 27.5983 10.7441 27.7546C10.9004 27.9109 11.1123 27.9987 11.3333 27.9987C11.5543 27.9987 11.7663 27.9109 11.9226 27.7546C12.0789 27.5983 12.1667 27.3864 12.1667 27.1654C12.1667 26.7233 12.3423 26.2994 12.6548 25.9868C12.9674 25.6743 13.3913 25.4987 13.8333 25.4987C14.0543 25.4987 14.2663 25.4109 14.4226 25.2546C14.5789 25.0983 14.6667 24.8864 14.6667 24.6654C14.6667 24.4443 14.5789 24.2324 14.4226 24.0761C14.2663 23.9198 14.0543 23.832 13.8333 23.832Z" fill="#4D368A"/>
<path d="M27.1673 23.832C26.7253 23.832 26.3014 23.6564 25.9888 23.3439C25.6762 23.0313 25.5006 22.6074 25.5006 22.1654C25.5006 21.9443 25.4128 21.7324 25.2566 21.5761C25.1003 21.4198 24.8883 21.332 24.6673 21.332C24.4463 21.332 24.2343 21.4198 24.0781 21.5761C23.9218 21.7324 23.834 21.9443 23.834 22.1654C23.834 22.6074 23.6584 23.0313 23.3458 23.3439C23.0333 23.6564 22.6093 23.832 22.1673 23.832C21.9463 23.832 21.7343 23.9198 21.5781 24.0761C21.4218 24.2324 21.334 24.4443 21.334 24.6654C21.334 24.8864 21.4218 25.0983 21.5781 25.2546C21.7343 25.4109 21.9463 25.4987 22.1673 25.4987C22.6093 25.4987 23.0333 25.6743 23.3458 25.9868C23.6584 26.2994 23.834 26.7233 23.834 27.1654C23.834 27.3864 23.9218 27.5983 24.0781 27.7546C24.2343 27.9109 24.4463 27.9987 24.6673 27.9987C24.8883 27.9987 25.1003 27.9109 25.2566 27.7546C25.4128 27.5983 25.5006 27.3864 25.5006 27.1654C25.5006 26.7233 25.6762 26.2994 25.9888 25.9868C26.3014 25.6743 26.7253 25.4987 27.1673 25.4987C27.3883 25.4987 27.6003 25.4109 27.7566 25.2546C27.9128 25.0983 28.0006 24.8864 28.0006 24.6654C28.0006 24.4443 27.9128 24.2324 27.7566 24.0761C27.6003 23.9198 27.3883 23.832 27.1673 23.832Z" fill="#4D368A"/>
</g>
<defs>
<clipPath id="clip0_286_5968">
<rect width="20" height="20" fill="white" transform="translate(8 8)"/>
</clipPath>
</defs>
</svg>
