<svg width="24" height="24" viewBox="0 0 24 24" fill="none" xmlns="http://www.w3.org/2000/svg">
<path fill-rule="evenodd" clip-rule="evenodd" d="M12.1541 10.4867C14.4552 10.4867 16.3207 8.62117 16.3207 6.31999C16.3207 4.0188 14.4552 2.15332 12.1541 2.15332C9.85287 2.15332 7.98739 4.0188 7.98739 6.31999C7.98739 8.62117 9.85287 10.4867 12.1541 10.4867Z" fill="#7554CC"/>
<path fill-rule="evenodd" clip-rule="evenodd" d="M4.4388 14.962C6.03336 13.4498 8.53501 12.1533 12.1541 12.1533C15.7731 12.1533 18.2747 13.4498 19.8693 14.962C20.9995 16.0338 22.1541 17.5925 22.1541 19.0764C22.1541 20.1016 21.2767 20.8667 19.7057 21.3633C18.1193 21.8649 15.6685 22.1533 12.1541 22.1533C8.63957 22.1533 6.18883 21.8649 4.60239 21.3633C3.03143 20.8667 2.15405 20.1016 2.15405 19.0764C2.15405 17.5925 3.30861 16.0338 4.4388 14.962Z" fill="#7554CC"/>
</svg>
