<svg width="48" height="32" viewBox="0 0 48 32" fill="none" xmlns="http://www.w3.org/2000/svg">
<path d="M20.8858 22.7985H17.1685L19.4936 9.24609H23.2107L20.8858 22.7985Z" fill="#1434CB"/>
<path d="M34.3616 9.57698C33.6283 9.30276 32.4654 9 31.0274 9C27.3563 9 24.7712 10.8453 24.7554 13.4836C24.7249 15.4301 26.6062 16.5113 28.0133 17.1603C29.4515 17.8235 29.9404 18.2564 29.9404 18.8475C29.9258 19.7554 28.7783 20.1739 27.708 20.1739C26.2239 20.1739 25.4286 19.9582 24.2201 19.4531L23.7306 19.2365L23.2104 22.2787C24.0823 22.6532 25.6886 22.9854 27.3563 23C31.2569 23 33.7962 21.1832 33.8263 18.3717C33.8412 16.829 32.8477 15.6468 30.706 14.6809C29.4058 14.0608 28.6096 13.6426 28.6096 13.0082C28.6248 12.4314 29.283 11.8406 30.7507 11.8406C31.9592 11.8117 32.8471 12.0855 33.5198 12.3595L33.856 12.5034L34.3616 9.57698V9.57698V9.57698Z" fill="#1434CB"/>
<path fill-rule="evenodd" clip-rule="evenodd" d="M41.0144 9.24609H43.8898L46.8888 22.7983H43.4469C43.4469 22.7983 43.11 21.2411 43.0033 20.7653H38.2305C38.0925 21.1256 37.4503 22.7983 37.4503 22.7983H33.5498L39.0715 10.3705C39.4541 9.49099 40.1277 9.24609 41.0144 9.24609ZM40.7854 14.2055C40.7854 14.2055 39.6074 17.2188 39.3013 17.9973H42.3911C42.2382 17.3198 41.5343 14.0758 41.5343 14.0758L41.2745 12.908C41.1651 13.2087 41.0069 13.6221 40.9002 13.901C40.8278 14.09 40.7792 14.2172 40.7854 14.2055Z" fill="#1434CB"/>
<path d="M7.04199 9.24609C7.85267 9.27465 8.51056 9.52018 8.72461 10.3857L10.0234 16.6113L10.0244 16.6133L10.4229 18.4873L14.0635 9.24609H17.9941L12.1514 22.7842H8.21973L4.90625 11.0068C3.76328 10.377 2.45835 9.87107 1 9.51953L1.06152 9.24609H7.04199Z" fill="#1434CB"/>
</svg>
