<svg width="57" height="36" viewBox="0 0 57 36" fill="none" xmlns="http://www.w3.org/2000/svg">
  <g transform="translate(0.478, 1.22)">
    <!-- Journal -->
    <path d="M41.356 17.78L46.594 17.78C47.194 17.78 47.694 17.99 48.094 18.41C48.494 18.83 48.694 19.35 48.694 19.97C48.694 20.59 48.494 21.11 48.094 21.53C47.694 21.95 47.194 22.16 46.594 22.16L41.356 22.16L41.356 17.78Z" fill="#7554CC"/>
    <path d="M33.610 17.78L40.396 17.78C40.996 17.78 41.496 17.99 41.896 18.41C42.296 18.83 42.496 19.35 42.496 19.97C42.496 20.59 42.296 21.11 41.896 21.53C41.496 21.95 40.996 22.16 40.396 22.16L33.610 22.16L33.610 17.78Z" fill="#7554CC"/>
    <path d="M26.451 17.78L32.661 17.78C33.261 17.78 33.761 17.99 34.161 18.41C34.561 18.83 34.761 19.35 34.761 19.97C34.761 20.59 34.561 21.11 34.161 21.53C33.761 21.95 33.261 22.16 32.661 22.16L26.451 22.16L26.451 17.78Z" fill="#7554CC"/>
    <path d="M19.191 17.78L25.291 17.78C25.891 17.78 26.391 17.99 26.791 18.41C27.191 18.83 27.391 19.35 27.391 19.97C27.391 20.59 27.191 21.11 26.791 21.53C26.391 21.95 25.891 22.16 25.291 22.16L19.191 22.16L19.191 17.78Z" fill="#7554CC"/>
    <path d="M11.877 17.78L17.781 17.78C18.181 17.78 18.531 17.95 18.831 18.29C19.131 18.63 19.281 19.04 19.281 19.52C19.281 20 19.131 20.41 18.831 20.75C18.531 21.09 18.181 21.26 17.781 21.26L11.877 21.26L11.877 17.78Z" fill="#7554CC"/>
    <path d="M4.598 17.62L10.610 17.62C11.010 17.62 11.360 17.79 11.660 18.13C11.960 18.47 12.110 18.88 12.110 19.36C12.110 19.84 11.960 20.25 11.660 20.59C11.360 20.93 11.010 21.1 10.610 21.1L4.598 21.1L4.598 17.62Z" fill="#7554CC"/>
    <path d="M0.527 17.78L4.325 17.78C4.725 17.78 5.075 17.95 5.375 18.29C5.675 18.63 5.825 19.04 5.825 19.52C5.825 20 5.675 20.41 5.375 20.75C5.075 21.09 4.725 21.26 4.325 21.26L0.527 21.26L0.527 17.78Z" fill="#7554CC"/>
    
    <!-- Wellness -->
    <path d="M45.013 0L50.917 0C51.317 0 51.667 0.17 51.967 0.51C52.267 0.85 52.417 1.26 52.417 1.74C52.417 2.22 52.267 2.63 51.967 2.97C51.667 3.31 51.317 3.48 50.917 3.48L45.013 3.48L45.013 0Z" fill="#7554CC"/>
    <path d="M38.316 0L44.220 0C44.620 0 44.970 0.17 45.270 0.51C45.570 0.85 45.720 1.26 45.720 1.74C45.720 2.22 45.720 2.63 45.270 2.97C44.970 3.31 44.620 3.48 44.220 3.48L38.316 3.48L38.316 0Z" fill="#7554CC"/>
    <path d="M32.084 0.18L37.484 0.18C37.884 0.18 38.234 0.35 38.534 0.69C38.834 1.03 38.984 1.44 38.984 1.92C38.984 2.4 38.834 2.81 38.534 3.15C38.234 3.49 37.884 3.66 37.484 3.66L32.084 3.66L32.084 0.18Z" fill="#7554CC"/>
    <path d="M24.402 0.18L30.612 0.18C31.012 0.18 31.362 0.35 31.662 0.69C31.962 1.03 32.112 1.44 32.112 1.92C32.112 2.4 31.962 2.81 31.662 3.15C31.362 3.49 31.012 3.66 30.612 3.66L24.402 3.66L24.402 0.18Z" fill="#7554CC"/>
    <path d="M18.215 0.18L23.453 0.18C23.853 0.18 24.203 0.35 24.503 0.69C24.803 1.03 24.953 1.44 24.953 1.92C24.953 2.4 24.803 2.81 24.503 3.15C24.203 3.49 23.853 3.66 23.453 3.66L18.215 3.66L18.215 0.18Z" fill="#7554CC"/>
    <path d="M12.027 0.18L17.027 0.18C17.427 0.18 17.777 0.35 18.077 0.69C18.377 1.03 18.527 1.44 18.527 1.92C18.527 2.4 18.377 2.81 18.077 3.15C17.777 3.49 17.427 3.66 17.027 3.66L12.027 3.66L12.027 0.18Z" fill="#7554CC"/>
    <path d="M5.488 0.18L10.888 0.18C11.288 0.18 11.638 0.35 11.938 0.69C12.238 1.03 12.388 1.44 12.388 1.92C12.388 2.4 12.238 2.81 11.938 3.15C11.638 3.49 11.288 3.66 10.888 3.66L5.488 3.66L5.488 0.18Z" fill="#7554CC"/>
    <path d="M0 0.18L4.986 0.18C5.386 0.18 5.736 0.35 6.036 0.69C6.336 1.03 6.486 1.44 6.486 1.92C6.486 2.4 6.336 2.81 6.036 3.15C5.736 3.49 5.386 3.66 4.986 3.66L0 3.66L0 0.18Z" fill="#7554CC"/>
  </g>
</svg>
