<svg width="56" height="31" viewBox="0 0 56 31" fill="none" xmlns="http://www.w3.org/2000/svg">
<path d="M46.3555 18.1807H48.3355V28.9807H51.5935V30.7807H46.3555V18.1807Z" fill="#7554CC"/>
<path d="M40.6609 18.1807H43.3429L45.3949 30.7807H43.4149L43.0549 28.2787V28.3147H40.8049L40.4449 30.7807H38.6089L40.6609 18.1807ZM42.8209 26.6047L41.9389 20.3767H41.9029L41.0389 26.6047H42.8209Z" fill="#7554CC"/>
<path d="M31.4492 18.1807H33.9332L35.8592 25.7227H35.8952V18.1807H37.6592V30.7807H35.6252L33.2492 21.5827H33.2132V30.7807H31.4492V18.1807Z" fill="#7554CC"/>
<path d="M24.1895 18.1807H27.1235C28.1435 18.1807 28.8875 18.4207 29.3555 18.9007C29.8235 19.3687 30.0575 20.0947 30.0575 21.0787V21.8527C30.0575 23.1607 29.6255 23.9887 28.7615 24.3367V24.3727C29.2415 24.5167 29.5775 24.8107 29.7695 25.2547C29.9735 25.6987 30.0755 26.2927 30.0755 27.0367V29.2507C30.0755 29.6107 30.0875 29.9047 30.1115 30.1327C30.1355 30.3487 30.1955 30.5647 30.2915 30.7807H28.2755C28.2035 30.5767 28.1555 30.3847 28.1315 30.2047C28.1075 30.0247 28.0955 29.7007 28.0955 29.2327V26.9287C28.0955 26.3527 27.9995 25.9507 27.8075 25.7227C27.6275 25.4947 27.3095 25.3807 26.8535 25.3807H26.1695V30.7807H24.1895V18.1807ZM26.8895 23.5807C27.2855 23.5807 27.5795 23.4787 27.7715 23.2747C27.9755 23.0707 28.0775 22.7287 28.0775 22.2487V21.2767C28.0775 20.8207 27.9935 20.4907 27.8255 20.2867C27.6695 20.0827 27.4175 19.9807 27.0695 19.9807H26.1695V23.5807H26.8895Z" fill="#7554CC"/>
<path d="M19.8275 30.9607C18.8675 30.9607 18.1355 30.6907 17.6315 30.1507C17.1275 29.5987 16.8755 28.8127 16.8755 27.7927V18.1807H18.8555V27.9367C18.8555 28.3687 18.9395 28.6807 19.1075 28.8727C19.2875 29.0647 19.5395 29.1607 19.8635 29.1607C20.1875 29.1607 20.4335 29.0647 20.6015 28.8727C20.7815 28.6807 20.8715 28.3687 20.8715 27.9367V18.1807H22.7795V27.7927C22.7795 28.8127 22.5275 29.5987 22.0235 30.1507C21.5195 30.6907 20.7875 30.9607 19.8275 30.9607Z" fill="#7554CC"/>
<path d="M12.6027 30.96C11.6307 30.96 10.8867 30.684 10.3707 30.132C9.85468 29.58 9.59668 28.8 9.59668 27.792V21.168C9.59668 20.16 9.85468 19.38 10.3707 18.828C10.8867 18.276 11.6307 18 12.6027 18C13.5747 18 14.3187 18.276 14.8347 18.828C15.3507 19.38 15.6087 20.16 15.6087 21.168V27.792C15.6087 28.8 15.3507 29.58 14.8347 30.132C14.3187 30.684 13.5747 30.96 12.6027 30.96ZM12.6027 29.16C13.2867 29.16 13.6287 28.746 13.6287 27.918V21.042C13.6287 20.214 13.2867 19.8 12.6027 19.8C11.9187 19.8 11.5767 20.214 11.5767 21.042V27.918C11.5767 28.746 11.9187 29.16 12.6027 29.16Z" fill="#7554CC"/>
<path d="M5.44486 30.8527C5.08486 30.8527 4.77886 30.8287 4.52686 30.7807V28.9807C4.71886 29.0287 4.93486 29.0527 5.17486 29.0527C5.57086 29.0527 5.86486 28.9567 6.05686 28.7647C6.24886 28.5607 6.34486 28.2547 6.34486 27.8467V18.1807H8.32486V27.7927C8.32486 28.8247 8.08486 29.5927 7.60486 30.0967C7.13686 30.6007 6.41686 30.8527 5.44486 30.8527Z" fill="#7554CC"/>
<path d="M52.9287 12.96C51.9687 12.96 51.2427 12.69 50.7507 12.15C50.2587 11.598 50.0127 10.812 50.0127 9.792V9.072H51.8847V9.936C51.8847 10.752 52.2267 11.16 52.9107 11.16C53.2467 11.16 53.4987 11.064 53.6667 10.872C53.8467 10.668 53.9367 10.344 53.9367 9.9C53.9367 9.372 53.8167 8.91 53.5767 8.514C53.3367 8.106 52.8927 7.62 52.2447 7.056C51.4287 6.336 50.8587 5.688 50.5347 5.112C50.2107 4.524 50.0487 3.864 50.0487 3.132C50.0487 2.136 50.3007 1.368 50.8047 0.828C51.3087 0.276 52.0407 0 53.0007 0C53.9487 0 54.6627 0.276 55.1427 0.828C55.6347 1.368 55.8807 2.148 55.8807 3.168V3.69H54.0087V3.042C54.0087 2.61 53.9247 2.298 53.7567 2.106C53.5887 1.902 53.3427 1.8 53.0187 1.8C52.3587 1.8 52.0287 2.202 52.0287 3.006C52.0287 3.462 52.1487 3.888 52.3887 4.284C52.6407 4.68 53.0907 5.16 53.7387 5.724C54.5667 6.444 55.1367 7.098 55.4487 7.686C55.7607 8.274 55.9167 8.964 55.9167 9.756C55.9167 10.788 55.6587 11.58 55.1427 12.132C54.6387 12.684 53.9007 12.96 52.9287 12.96Z" fill="#7554CC"/>
<path d="M46.2314 12.96C45.2714 12.96 44.5454 12.69 44.0534 12.15C43.5614 11.598 43.3154 10.812 43.3154 9.792V9.072H45.1874V9.936C45.1874 10.752 45.5294 11.16 46.2134 11.16C46.5494 11.16 46.8014 11.064 46.9694 10.872C47.1494 10.668 47.2394 10.344 47.2394 9.9C47.2394 9.372 47.1194 8.91 46.8794 8.514C46.6394 8.106 46.1954 7.62 45.5474 7.056C44.7314 6.336 44.1614 5.688 43.8374 5.112C43.5134 4.524 43.3514 3.864 43.3514 3.132C43.3514 2.136 43.6034 1.368 44.1074 0.828C44.6114 0.276 45.3434 0 46.3034 0C47.2514 0 47.9654 0.276 48.4454 0.828C48.9374 1.368 49.1834 2.148 49.1834 3.168V3.69H47.3114V3.042C47.3114 2.61 47.2274 2.298 47.0594 2.106C46.8914 1.902 46.6454 1.8 46.3214 1.8C45.6614 1.8 45.3314 2.202 45.3314 3.006C45.3314 3.462 45.4514 3.888 45.6914 4.284C45.9434 4.68 46.3934 5.16 47.0414 5.724C47.8694 6.444 48.4394 7.098 48.7514 7.686C49.0634 8.274 49.2194 8.964 49.2194 9.756C49.2194 10.788 48.9614 11.58 48.4454 12.132C47.9414 12.684 47.2034 12.96 46.2314 12.96Z" fill="#7554CC"/>
<path d="M37.083 0.180664H42.483V1.98066H39.063V5.31066H41.781V7.11066H39.063V10.9807H42.483V12.7807H37.083V0.180664Z" fill="#7554CC"/>
<path d="M29.4014 0.180664H31.8854L33.8114 7.72266H33.8474V0.180664H35.6114V12.7807H33.5774L31.2014 3.58266H31.1654V12.7807H29.4014V0.180664Z" fill="#7554CC"/>
<path d="M23.2139 0.180664H25.1939V10.9807H28.4519V12.7807H23.2139V0.180664Z" fill="#7554CC"/>
<path d="M17.0264 0.180664H19.0064V10.9807H22.2644V12.7807H17.0264V0.180664Z" fill="#7554CC"/>
<path d="M10.4873 0.180664H15.8873V1.98066H12.4673V5.31066H15.1853V7.11066H12.4673V10.9807H15.8873V12.7807H10.4873V0.180664Z" fill="#7554CC"/>
<path d="M0 0.180664H1.908L2.79 9.86466H2.826L3.762 0.180664H5.922L6.858 9.86466H6.894L7.776 0.180664H9.486L8.208 12.7807H5.742L4.842 4.28466H4.806L3.906 12.7807H1.278L0 0.180664Z" fill="#7554CC"/>
</svg>
