<svg width="20" height="21" viewBox="0 0 20 21" fill="none" xmlns="http://www.w3.org/2000/svg">
<path d="M10 20.3164C4.49 20.3164 0 15.8264 0 10.3164C0 4.80641 4.49 0.316406 10 0.316406C15.51 0.316406 20 4.80641 20 10.3164C20 15.8264 15.51 20.3164 10 20.3164ZM9.25 14.3164C9.25 14.7264 9.59 15.0664 10 15.0664C10.41 15.0664 10.75 14.7264 10.75 14.3164V9.31641C10.75 8.90641 10.41 8.56641 10 8.56641C9.59 8.56641 9.25 8.90641 9.25 9.31641V14.3164ZM10.92 5.93641C10.87 5.80641 10.8 5.70641 10.71 5.60641C10.61 5.51641 10.5 5.44641 10.38 5.39641C10.26 5.34641 10.13 5.31641 10 5.31641C9.87 5.31641 9.74 5.34641 9.62 5.39641C9.5 5.44641 9.39 5.51641 9.29 5.60641C9.2 5.70641 9.13 5.80641 9.08 5.93641C9.03 6.05641 9 6.18641 9 6.31641C9 6.44641 9.03 6.57641 9.08 6.69641C9.13 6.81641 9.2 6.92641 9.29 7.02641C9.39 7.11641 9.5 7.18641 9.62 7.23641C9.86 7.33641 10.14 7.33641 10.38 7.23641C10.5 7.18641 10.61 7.11641 10.71 7.02641C10.8 6.92641 10.87 6.81641 10.92 6.69641C10.97 6.57641 11 6.44641 11 6.31641C11 6.18641 10.97 6.05641 10.92 5.93641Z" fill="#7554CC"/>
</svg>
